<svg xmlns="http://www.w3.org/2000/svg" xmlns:xlink="http://www.w3.org/1999/xlink" width="106.763" height="103.241" viewBox="0 0 106.763 103.241">
  <defs>
    <linearGradient id="linear-gradient" x1="0.339" y1="0.027" x2="0.863" y2="1.961" gradientUnits="objectBoundingBox">
      <stop offset="0.004" stop-color="#e38ddd"/>
      <stop offset="1" stop-color="#9571f6"/>
    </linearGradient>
    <linearGradient id="linear-gradient-2" x1="0.339" y1="0.027" x2="0.807" y2="1.357" gradientUnits="objectBoundingBox">
      <stop offset="0" stop-color="#e38ddd"/>
      <stop offset="0" stop-color="#cc8e06"/>
      <stop offset="1" stop-color="#ffc727"/>
    </linearGradient>
    <clipPath id="clip-path">
      <path id="Path_738" data-name="Path 738" d="M3264.538,4514.136a7.165,7.165,0,0,0,3.231-.985c2.879-2.52,8.578-6.888,9.09-10.9.088-.685-2.823-1.884-3.131-2.585-1.67-1.215-2.325-1.533-3.346-3.468-3.014-5.712,7.744-13.353-2.115-18.6-7.222-3.846-14.2-2.42-11.135-14.177s-2.3-35.238-16.441-29.293c-8.115,3.412-2.691,14.919-7.81,21.692-4.864,6.437-2.953,12.847,3.789,18.526s2.1,8.2-1.364,14.532c-4.156,7.61,8.042,11.39,13.822,12.654C3253.783,4502.548,3264.949,4508.281,3264.538,4514.136Z" transform="translate(-3230.165 -4433.177)" fill="url(#linear-gradient)"/>
    </clipPath>
    <clipPath id="clip-path-2">
      <path id="Path_745" data-name="Path 745" d="M2754.156,4961.775a7.159,7.159,0,0,0,2.637-2.11c1.744-3.406,5.424-9.571,4.416-13.488-.172-.669-3.32-.707-3.865-1.245-2-.511-2.727-.564-4.391-1.984-4.912-4.193,2.258-15.27-8.843-16.5-8.132-.9-14.088,3-15.587-9.055s-15.167-31.89-26.107-21.138c-6.278,6.17,3.016,14.856.764,23.042-2.14,7.779,2.006,13.028,10.37,15.813s4.979,6.841,4.106,14.006c-1.048,8.607,11.682,7.609,17.52,6.647C2739.879,4954.985,2752.373,4956.184,2754.156,4961.775Z" transform="translate(-2700.201 -4893.164)" fill="#fe8794"/>
    </clipPath>
    <linearGradient id="linear-gradient-3" x1="0.479" y1="0.466" x2="0.369" y2="0.525" gradientUnits="objectBoundingBox">
      <stop offset="0" stop-color="#40447e"/>
      <stop offset="0.996" stop-color="#3c3b6b"/>
    </linearGradient>
    <linearGradient id="linear-gradient-4" x1="0" y1="0.5" x2="1" y2="0.5" xlink:href="#linear-gradient-3"/>
    <linearGradient id="linear-gradient-6" x1="0.329" y1="0.554" x2="-0.255" y2="0.738" gradientUnits="objectBoundingBox">
      <stop offset="0" stop-color="#fcb148"/>
      <stop offset="0.052" stop-color="#fdb946"/>
      <stop offset="0.142" stop-color="#fec144"/>
      <stop offset="0.318" stop-color="#ffc444"/>
      <stop offset="0.485" stop-color="#fdb946"/>
      <stop offset="0.775" stop-color="#f99c4c"/>
      <stop offset="0.866" stop-color="#f8924f"/>
      <stop offset="1" stop-color="#f8924f"/>
    </linearGradient>
    <linearGradient id="linear-gradient-7" x1="0.727" y1="0.007" x2="0.207" y2="1.135" gradientUnits="objectBoundingBox">
      <stop offset="0" stop-color="#ffdb44"/>
      <stop offset="1" stop-color="#feef06"/>
    </linearGradient>
    <linearGradient id="linear-gradient-8" x1="0.636" y1="1.231" x2="0.531" y2="0.666" xlink:href="#linear-gradient-6"/>
    <linearGradient id="linear-gradient-9" x1="0.409" y1="0.31" x2="0.858" y2="1.247" xlink:href="#linear-gradient-6"/>
    <linearGradient id="linear-gradient-10" x1="0.253" y1="0.019" x2="0.711" y2="1.039" xlink:href="#linear-gradient-7"/>
    <linearGradient id="linear-gradient-11" x1="0.464" y1="0.369" x2="1.215" y2="1.306" xlink:href="#linear-gradient-6"/>
    <linearGradient id="linear-gradient-12" x1="-0.451" y1="0.03" x2="2.864" y2="1.813" gradientUnits="objectBoundingBox">
      <stop offset="0" stop-color="#ffc444"/>
      <stop offset="0.996" stop-color="#f36f56"/>
    </linearGradient>
    <linearGradient id="linear-gradient-13" x1="0.497" y1="-0.747" x2="0.486" y2="-7.554" gradientUnits="objectBoundingBox">
      <stop offset="0" stop-color="#aa80f9"/>
      <stop offset="0.996" stop-color="#6165d7"/>
    </linearGradient>
    <linearGradient id="linear-gradient-14" x1="-91.496" y1="-3.156" x2="-91.434" y2="-7.453" xlink:href="#linear-gradient-12"/>
    <linearGradient id="linear-gradient-15" x1="0.496" y1="-1.686" x2="0.485" y2="-8.493" xlink:href="#linear-gradient-13"/>
    <linearGradient id="linear-gradient-16" x1="-91.395" y1="-4.221" x2="-91.333" y2="-8.518" xlink:href="#linear-gradient-12"/>
    <linearGradient id="linear-gradient-17" x1="0.228" y1="0.162" x2="0.85" y2="0.831" gradientUnits="objectBoundingBox">
      <stop offset="0" stop-color="#311944"/>
      <stop offset="1" stop-color="#893976"/>
    </linearGradient>
    <linearGradient id="linear-gradient-18" x1="-17.493" y1="0.253" x2="-16.463" y2="0.253" xlink:href="#linear-gradient-17"/>
    <linearGradient id="linear-gradient-19" x1="-13.521" y1="0.248" x2="-12.312" y2="0.248" xlink:href="#linear-gradient-17"/>
    <linearGradient id="linear-gradient-20" x1="0.486" y1="0.282" x2="0.972" y2="3.745" xlink:href="#linear-gradient-12"/>
    <linearGradient id="linear-gradient-21" x1="-5.186" y1="1.825" x2="-4.788" y2="3.648" xlink:href="#linear-gradient-12"/>
    <linearGradient id="linear-gradient-22" x1="-5.187" y1="1.193" x2="-6.516" y2="-0.268" xlink:href="#linear-gradient-12"/>
    <linearGradient id="linear-gradient-23" x1="1.427" y1="-2.638" x2="0.272" y2="1.127" xlink:href="#linear-gradient-12"/>
    <linearGradient id="linear-gradient-24" x1="-9.881" y1="2.117" x2="-9.156" y2="4.326" xlink:href="#linear-gradient-12"/>
    <linearGradient id="linear-gradient-25" x1="-18.462" y1="-4.047" x2="-18.462" y2="-5.443" xlink:href="#linear-gradient-12"/>
    <linearGradient id="linear-gradient-26" x1="-29.597" y1="-0.215" x2="-30.315" y2="-1.802" gradientUnits="objectBoundingBox">
      <stop offset="0" stop-color="#444b8c"/>
      <stop offset="0.996" stop-color="#3e4177"/>
    </linearGradient>
    <linearGradient id="linear-gradient-27" x1="-48.634" y1="-7.948" x2="-47.506" y2="-10.324" xlink:href="#linear-gradient-12"/>
  </defs>
  <g id="Group_486" data-name="Group 486" transform="translate(-231.618 -517.379)">
    <path id="Path_751" data-name="Path 751" d="M2852.447,5566.655c-4.974-2.875-8.886.768-12.66-2.826-2.289-2.179-1.165-3.8-3.981-7.06-3.119-3.607-5.149-2.395-8.284-5.641-3.963-4.1-1.981-7.3-5.395-10.244-4.142-3.575-8.608-.266-12.55-3.694a10.552,10.552,0,0,1-3.121-5.915H2802.6a1.272,1.272,0,0,0-1.225,1.314v51.36a1.162,1.162,0,0,0,1.225,1.221l65.763-5.014a1.05,1.05,0,0,0,.792-.52,14.189,14.189,0,0,1-9.662-3.714C2855.794,5572.417,2856.435,5568.96,2852.447,5566.655Z" transform="translate(-2565.944 -4972.527)" fill="#1d272f" opacity="0.48" style="mix-blend-mode: soft-light;isolation: isolate"/>
    <g id="Group_485" data-name="Group 485" transform="translate(-631 -7)">
      <g id="Group_461" data-name="Group 461" transform="translate(862.619 524.38)" style="isolation: isolate">
        <g id="Group_454" data-name="Group 454" transform="translate(19.965 0)">
          <g id="Group_453" data-name="Group 453">
            <g id="Group_452" data-name="Group 452" opacity="0.1" style="mix-blend-mode: soft-light;isolation: isolate">
              <path id="Path_732" data-name="Path 732" d="M3264.538,4514.136a7.165,7.165,0,0,0,3.231-.985c2.879-2.52,8.578-6.888,9.09-10.9.088-.685-2.823-1.884-3.131-2.585-1.67-1.215-2.325-1.533-3.346-3.468-3.014-5.712,7.744-13.353-2.115-18.6-7.222-3.846-14.2-2.42-11.135-14.177s-.555-31.933-14.695-25.987c-8.115,3.412-4.437,11.613-9.556,18.386-4.864,6.437-2.953,12.847,3.789,18.526s2.1,8.2-1.364,14.532c-4.156,7.61,8.042,11.39,13.822,12.654C3253.783,4502.548,3264.949,4508.281,3264.538,4514.136Z" transform="translate(-3230.165 -4433.177)" fill="url(#linear-gradient-2)"/>
              <g id="Group_451" data-name="Group 451" clip-path="url(#clip-path)">
                <g id="Group_450" data-name="Group 450" transform="translate(-1.429 -2.071)">
                  <g id="Group_449" data-name="Group 449">
                    <path id="Path_733" data-name="Path 733" d="M3602.119,4455.126l.11-.148c-22.837-16.977-33.127-45.663-27.526-76.735l-.182-.033a85.619,85.619,0,0,0,2.8,42.659A70.848,70.848,0,0,0,3602.119,4455.126Z" transform="translate(-3558.711 -4378.211)" fill="#fcfdfe"/>
                    <path id="Path_734" data-name="Path 734" d="M3310.554,5979.339c7.716-1.019,19.885,1.2,27.126,4.949l.085-.164c-7.27-3.762-19.487-5.99-27.235-4.968Z" transform="translate(-3306.073 -5918.605)" fill="#fcfdfe"/>
                    <path id="Path_735" data-name="Path 735" d="M4155.694,5634.975l.147-.112c-2.567-3.372-3.331-7.912-2.271-13.5a48.235,48.235,0,0,1,5.119-13.517l-.163-.087a48.435,48.435,0,0,0-5.138,13.571C4152.318,5626.97,4153.094,5631.56,4155.694,5634.975Z" transform="translate(-4116.731 -5561.443)" fill="#fcfdfe"/>
                    <path id="Path_736" data-name="Path 736" d="M3210.286,5176.927l.152-.1c-4.512-6.6-12.364-9.621-18.157-10.987l-.043.18C3198,5167.375,3205.807,5170.372,3210.286,5176.927Z" transform="translate(-3192.239 -5136.164)" fill="#fcfdfe"/>
                    <path id="Path_737" data-name="Path 737" d="M3578.822,4493.285l.184.021c1.02-8.954,7.565-15.782,11.376-19.055l-.12-.14C3586.43,4477.4,3579.849,4484.27,3578.822,4493.285Z" transform="translate(-3564.259 -4470.498)" fill="#fcfdfe"/>
                  </g>
                </g>
              </g>
            </g>
          </g>
        </g>
        <g id="Group_460" data-name="Group 460" transform="translate(0 17.329)">
          <g id="Group_459" data-name="Group 459" opacity="0.28">
            <g id="Group_458" data-name="Group 458" style="mix-blend-mode: soft-light;isolation: isolate">
              <path id="Path_739" data-name="Path 739" d="M2754.156,4961.775a7.159,7.159,0,0,0,2.637-2.11c1.744-3.406,5.424-9.571,4.416-13.488-.172-.669-3.32-.707-3.865-1.245-2-.511-2.727-.564-4.391-1.984-4.912-4.193,2.258-15.27-8.843-16.5-8.132-.9-14.088,3-15.587-9.055s-15.167-31.89-26.107-21.138c-6.278,6.17,3.016,14.856.764,23.042-2.14,7.779,2.006,13.028,10.37,15.813s4.979,6.841,4.106,14.006c-1.048,8.607,11.682,7.609,17.52,6.647C2739.879,4954.985,2752.373,4956.184,2754.156,4961.775Z" transform="translate(-2700.201 -4893.164)" fill="#ffc444"/>
              <g id="Group_457" data-name="Group 457" clip-path="url(#clip-path-2)">
                <g id="Group_456" data-name="Group 456" transform="translate(1.002 -1.555)">
                  <g id="Group_455" data-name="Group 455">
                    <path id="Path_740" data-name="Path 740" d="M2878.555,4923.147l.047-.178c-27.5-7.33-47.662-30.179-53.946-61.121l-.181.037a85.619,85.619,0,0,0,18.375,38.6A70.85,70.85,0,0,0,2878.555,4923.147Z" transform="translate(-2820.795 -4861.473)" fill="#fcfdfe"/>
                    <path id="Path_741" data-name="Path 741" d="M3138.79,6324.565c6.793-3.8,18.92-6.236,27.033-5.431l.018-.184c-8.145-.807-20.321,1.639-27.142,5.454Z" transform="translate(-3123.182 -6263.534)" fill="#fcfdfe"/>
                    <path id="Path_742" data-name="Path 742" d="M3916.651,5776.56l.095-.159c-3.632-2.184-6.021-6.12-7.1-11.7a48.238,48.238,0,0,1-.241-14.452l-.184-.021a48.418,48.418,0,0,0,.243,14.509C3910.555,5770.37,3912.972,5774.348,3916.651,5776.56Z" transform="translate(-3864.272 -5716.386)" fill="#fcfdfe"/>
                    <path id="Path_743" data-name="Path 743" d="M2747.617,5740.886l.1-.154c-6.635-4.468-15.045-4.367-20.933-3.5l.027.183C2732.669,5736.553,2741.031,5736.45,2747.617,5740.886Z" transform="translate(-2726.787 -5703.425)" fill="#fcfdfe"/>
                    <path id="Path_744" data-name="Path 744" d="M2997.334,4873.94l.179-.049c-2.363-8.7,1.194-17.46,3.525-21.911l-.164-.085C2998.531,4856.37,2994.956,4865.183,2997.334,4873.94Z" transform="translate(-2986.388 -4851.895)" fill="#fcfdfe"/>
                  </g>
                </g>
              </g>
            </g>
          </g>
        </g>
      </g>
      <path id="Path_746" data-name="Path 746" d="M2904.326,6923.23l-102.952-.9V6925a1.417,1.417,0,0,0,1.057,1.454l29.112,5.272a3.983,3.983,0,0,0,1.044.05l70.62-6.012a1.349,1.349,0,0,0,1.119-1.42Z" transform="translate(-1934.944 -6304.174)" fill="#656a6d"/>
      <path id="Path_747" data-name="Path 747" d="M2840.684,5580.245l-64.526,4.9a1.984,1.984,0,0,1-2.094-2.081v-49.547a2.171,2.171,0,0,1,2.094-2.239h64.526a1.89,1.89,0,0,1,1.72,2.024v44.791A2.073,2.073,0,0,1,2840.684,5580.245Z" transform="translate(-1908.663 -4965.527)" fill="url(#linear-gradient-3)"/>
      <path id="Path_748" data-name="Path 748" d="M2867.994,5580.245l-64.526,4.9a1.984,1.984,0,0,1-2.094-2.081v-49.547a2.171,2.171,0,0,1,2.094-2.239h64.526a1.89,1.89,0,0,1,1.72,2.024v44.791A2.072,2.072,0,0,1,2867.994,5580.245Z" transform="translate(-1934.944 -4965.527)" fill="url(#linear-gradient-4)"/>
      <path id="Path_749" data-name="Path 749" d="M2937.684,5650.572l-60.1,4.255a1.628,1.628,0,0,1-1.7-1.708v-43.378a1.78,1.78,0,0,1,1.7-1.836l60.1-.267a1.548,1.548,0,0,1,1.419,1.659v39.51A1.7,1.7,0,0,1,2937.684,5650.572Z" transform="translate(-2006.644 -5039.013)" fill="#d8dee8"/>
      <path id="Path_750" data-name="Path 750" d="M3735.883,5545.97a.748.748,0,1,1-.742-.833A.795.795,0,0,1,3735.883,5545.97Z" transform="translate(-2832.818 -4978.867)" fill="#fff"/>
      <path id="Path_752" data-name="Path 752" d="M2870.566,6824.874l-69.192,5.155,30.169,5.464a3.9,3.9,0,0,0,1.044.05l71.739-6.106-32.659-4.527A5.187,5.187,0,0,0,2870.566,6824.874Z" transform="translate(-1934.944 -6210.379)" fill="#263238"/>
      <path id="Path_753" data-name="Path 753" d="M3069.371,6854.26l57.6-4.356,17.828,2.452-57.108,4.656Z" transform="translate(-2192.845 -6234.479)" opacity="0.3" fill="url(#linear-gradient-4)" style="mix-blend-mode: multiply;isolation: isolate"/>
      <g id="Group_465" data-name="Group 465" transform="translate(876.526 546.191)">
        <path id="Path_754" data-name="Path 754" d="M3129.126,5014l-56.329-1.851a3.3,3.3,0,0,0-3.427,3.328v54.9a3.264,3.264,0,0,0,3.427,3.294l56.329-2.405a3.228,3.228,0,0,0,2.945-3.3v-50.691A3.191,3.191,0,0,0,3129.126,5014Z" transform="translate(-3069.371 -5012.15)" fill="#1d272f"/>
        <path id="Path_755" data-name="Path 755" d="M3100.826,5100.549a2.223,2.223,0,0,1-2.329-2.243v-54.828a2.249,2.249,0,0,1,2.329-2.266l56.329,1.775a2.171,2.171,0,0,1,2.007,2.229v50.754a2.2,2.2,0,0,1-2.007,2.249Z" transform="translate(-3097.4 -5040.117)" fill="#1d272f" opacity="0.74" style="mix-blend-mode: soft-light;isolation: isolate"/>
        <path id="Path_756" data-name="Path 756" d="M3129.126,5014l-56.329-1.851a3.3,3.3,0,0,0-3.427,3.328v2.469l62.7,1.607v-2.279A3.191,3.191,0,0,0,3129.126,5014Z" transform="translate(-3069.371 -5012.15)" fill="#1d272f"/>
        <path id="Path_757" data-name="Path 757" d="M3174.256,5066.97a1.078,1.078,0,0,1-1.111,1.087,1.156,1.156,0,0,1-1.114-1.152,1.078,1.078,0,0,1,1.114-1.087A1.157,1.157,0,0,1,3174.256,5066.97Z" transform="translate(-3168.164 -5063.796)" fill="#1d272f"/>
        <path id="Path_758" data-name="Path 758" d="M3277.739,5070.107a1.07,1.07,0,0,1-1.1,1.082,1.148,1.148,0,0,1-1.1-1.146,1.07,1.07,0,0,1,1.1-1.082A1.148,1.148,0,0,1,3277.739,5070.107Z" transform="translate(-3267.769 -5066.82)" fill="#1d272f"/>
        <path id="Path_759" data-name="Path 759" d="M3380.237,5073.213a1.062,1.062,0,0,1-1.09,1.077,1.139,1.139,0,0,1-1.093-1.14,1.063,1.063,0,0,1,1.093-1.077A1.14,1.14,0,0,1,3380.237,5073.213Z" transform="translate(-3366.425 -5069.814)" fill="#1d272f"/>
        <g id="Group_464" data-name="Group 464" opacity="0.5" style="mix-blend-mode: soft-light;isolation: isolate">
          <path id="Path_760" data-name="Path 760" d="M3107.231,5035.109c-6.579-9.574-17.967-6.528-25.17-17.105a23.147,23.147,0,0,1-2.786-5.638l-6.477-.213a3.3,3.3,0,0,0-3.427,3.328v54.9a3.264,3.264,0,0,0,3.427,3.294l54.266-2.317c-1.243-1.793-12.071-8.434-14.868-18.63C3109.638,5043.4,3111.2,5040.884,3107.231,5035.109Z" transform="translate(-3069.371 -5012.15)" fill="#1d272f"/>
        </g>
      </g>
      <g id="Group_472" data-name="Group 472" transform="translate(880.727 559.294)">
        <path id="Path_761" data-name="Path 761" d="M3236.328,5550.122l-55.438-.066v-1.812l55.438.225Z" transform="translate(-3180.89 -5541.15)" fill="#fff"/>
        <path id="Path_762" data-name="Path 762" d="M3236.328,5365.078l-55.438-.471v-4.645l55.438.877Z" transform="translate(-3180.89 -5359.962)" fill="#fff"/>
        <g id="Group_467" data-name="Group 467" transform="translate(1.226 11.785)">
          <g id="Group_466" data-name="Group 466">
            <path id="Path_763" data-name="Path 763" d="M3220.774,5679.779l-7.353.043V5672.8l7.353.009Zm-6.5-.919,5.392-.026v-5.076l-5.392,0Z" transform="translate(-3213.421 -5672.798)" fill="#fff"/>
          </g>
          <path id="Path_764" data-name="Path 764" d="M3532.522,5674.993l-42.581.025v-1.9l42.581.044Z" transform="translate(-3479.524 -5673.11)" fill="#fff"/>
          <path id="Path_765" data-name="Path 765" d="M3532.522,5756.828l-42.581.137v-1.791l42.581-.071Z" transform="translate(-3479.524 -5752.002)" fill="#fff"/>
        </g>
        <g id="Group_469" data-name="Group 469" transform="translate(1.226 21.785)">
          <g id="Group_468" data-name="Group 468" transform="translate(0 0.363)">
            <path id="Path_766" data-name="Path 766" d="M3220.774,5954.835l-7.353.121v-7.024l7.353-.069Zm-6.5-.851,5.392-.084v-5.076l-5.392.056Z" transform="translate(-3213.421 -5947.862)" fill="#fff"/>
          </g>
          <path id="Path_767" data-name="Path 767" d="M3532.522,5940.059l-42.581.4v-1.9l42.581-.333Z" transform="translate(-3479.524 -5938.232)" fill="#fff"/>
          <path id="Path_768" data-name="Path 768" d="M3532.522,6020.75l-42.581.515v-1.791l42.581-.45Z" transform="translate(-3479.524 -6015.981)" fill="#fff"/>
        </g>
        <g id="Group_471" data-name="Group 471" transform="translate(1.226 31.728)">
          <g id="Group_470" data-name="Group 470" transform="translate(0 0.774)">
            <path id="Path_769" data-name="Path 769" d="M3220.774,6229.665l-7.353.2v-7.025l7.353-.146Zm-6.5-.676,5.392-.143v-5.182l-5.392.113Z" transform="translate(-3213.421 -6222.691)" fill="#fff"/>
          </g>
          <path id="Path_770" data-name="Path 770" d="M3532.522,6203.979l-42.581.782v-1.9l42.581-.712Z" transform="translate(-3479.524 -6202.153)" fill="#fff"/>
          <path id="Path_771" data-name="Path 771" d="M3532.522,6284.67l-42.581.894v-1.791l42.581-.828Z" transform="translate(-3479.524 -6279.902)" fill="#fff"/>
        </g>
      </g>
      <path id="Path_772" data-name="Path 772" d="M3204.566,5667.632a.81.81,0,0,1-.561-.217l-2.209-2.09a.732.732,0,0,1,0-1.071.826.826,0,0,1,1.126,0l1.533,1.454,3.539-4.871a.807.807,0,0,1,1.093-.187.731.731,0,0,1,.2,1.045l-4.068,5.611a.806.806,0,0,1-.58.325C3204.613,5667.631,3204.589,5667.632,3204.566,5667.632Z" transform="translate(-2320.057 -5089.896)" fill="#feb134"/>
      <path id="Path_773" data-name="Path 773" d="M3209.68,5945.352a.809.809,0,0,1-.561-.218l-2.208-2.089a.73.73,0,0,1,0-1.071.825.825,0,0,1,1.125,0l1.533,1.454,3.539-4.871a.807.807,0,0,1,1.093-.187.731.731,0,0,1,.2,1.045l-4.069,5.611a.807.807,0,0,1-.579.324C3209.727,5945.35,3209.7,5945.351,3209.68,5945.352Z" transform="translate(-2324.979 -5357.153)" fill="#feb134"/>
      <g id="Group_478" data-name="Group 478" transform="translate(922.859 534.838)">
        <path id="Path_774" data-name="Path 774" d="M4324.916,4740.619a11.96,11.96,0,0,1-12.373,12.2,14,14,0,0,1-13.3-13.928,11.927,11.927,0,0,1,13.3-12.134A14.1,14.1,0,0,1,4324.916,4740.619Z" transform="translate(-4299.243 -4726.084)" fill="url(#linear-gradient-6)"/>
        <path id="Path_775" data-name="Path 775" d="M4374.708,4724.72a11.96,11.96,0,0,1-12.373,12.2,14,14,0,0,1-13.3-13.928,11.926,11.926,0,0,1,13.3-12.134A14.094,14.094,0,0,1,4374.708,4724.72Z" transform="translate(-4347.159 -4710.786)" fill="url(#linear-gradient-7)"/>
        <path id="Path_776" data-name="Path 776" d="M4390.192,4739.982a11.413,11.413,0,0,1-11.828,11.64,13.367,13.367,0,0,1-12.673-13.292,11.383,11.383,0,0,1,12.673-11.583A13.449,13.449,0,0,1,4390.192,4739.982Z" transform="translate(-4363.188 -4726.084)" fill="url(#linear-gradient-8)"/>
        <path id="Path_777" data-name="Path 777" d="M4401.218,4750.879a11.023,11.023,0,0,1-11.437,11.242,12.911,12.911,0,0,1-12.226-12.837,11,11,0,0,1,12.226-11.189A12.99,12.99,0,0,1,4401.218,4750.879Z" transform="translate(-4374.604 -4737.007)" fill="url(#linear-gradient-9)"/>
        <g id="Group_477" data-name="Group 477" transform="translate(9.243 3.269)">
          <path id="Path_778" data-name="Path 778" d="M4550.464,4797.56h0a.7.7,0,0,1,.617.686v1.183a17.4,17.4,0,0,1,2.049.355q.757.178,1.5.423a.691.691,0,0,1,.471.709l-.146,1.482a.555.555,0,0,1-.793.461,8.556,8.556,0,0,0-1.008-.375,9.127,9.127,0,0,0-1.9-.355l-.174-.014v3.385a8.884,8.884,0,0,1,3.93,2.01,4.247,4.247,0,0,1,1.259,3.137,4.132,4.132,0,0,1-1.392,3.262,6.355,6.355,0,0,1-3.939,1.386v1.305a.593.593,0,0,1-.618.6h-.011a.656.656,0,0,1-.62-.654v-1.287l-.275-.012a18.121,18.121,0,0,1-2.282-.244,14.746,14.746,0,0,1-1.577-.363.68.68,0,0,1-.494-.7l.17-1.905a.6.6,0,0,1,.843-.5,12.3,12.3,0,0,0,1.387.455,12.1,12.1,0,0,0,2.217.37l.011-3.766a8.159,8.159,0,0,1-3.827-1.878,4.3,4.3,0,0,1-1.268-3.2,3.736,3.736,0,0,1,1.374-3.1,6.1,6.1,0,0,1,3.874-1.081v-1.209A.558.558,0,0,1,4550.464,4797.56Zm-.619,4.519a2.086,2.086,0,0,0-1.234.435,1.269,1.269,0,0,0-.443,1.017,1.362,1.362,0,0,0,.41,1.01,2.893,2.893,0,0,0,1.267.646Zm1.095,6.82v3.454a1.908,1.908,0,0,0,1.32-.411,1.477,1.477,0,0,0,.46-1.163,1.588,1.588,0,0,0-.427-1.137A3.139,3.139,0,0,0,4550.94,4808.9Z" transform="translate(-4544.597 -4797.557)" fill="url(#linear-gradient-10)"/>
        </g>
        <path id="Path_779" data-name="Path 779" d="M4387.71,4754.054c.386-3.817,3.894-5.433,3.436-8.944-.282-2.164-1.922-3.987-3.752-5.411a11,11,0,0,0-9.84,11.187,12.912,12.912,0,0,0,12.226,12.838,11.488,11.488,0,0,0,1.889-.093C4389.028,4761,4387.378,4757.333,4387.71,4754.054Z" transform="translate(-4374.604 -4738.61)" opacity="0.3" fill="url(#linear-gradient-11)" style="mix-blend-mode: multiply;isolation: isolate"/>
      </g>
      <g id="Group_479" data-name="Group 479" transform="translate(912.051 526.564)">
        <path id="Path_780" data-name="Path 780" d="M4048.236,4505.383v.054a23.079,23.079,0,0,0-1.833-2.069c-.01-.023-.025-.047-.035-.069a12.234,12.234,0,0,0-1.167-2.155,11.9,11.9,0,0,0-1.864-2.134c-.088-.087-.19-.163-.284-.245l-.146-.121-.071-.061c-.025-.021-.051-.039-.076-.059l-.3-.231-.076-.059-.08-.054-.159-.109c-.208-.151-.434-.282-.653-.42-.112-.067-.229-.128-.343-.192l-.171-.1-.177-.088a11.058,11.058,0,0,0-3.019-1.008l-.4-.065c-.132-.018-.266-.03-.4-.046l-.2-.022-.2-.011-.2-.012c-.067,0-.132-.01-.2-.009l-.4,0c-.033,0-.068,0-.1,0l-.089,0-.178.01-.176.009-.046,0-.181.014-.242.017-.181.014-.031,0h-.011s-.063,0,.043,0l-.391.058c-.064.01-.129.016-.194.031l-.192.039-.192.038-.1.019c-.032.006-.063.016-.094.023-.125.032-.25.063-.375.1-.063.014-.125.036-.185.054l-.183.058-.183.055-.179.066c-.119.045-.239.084-.354.132l-.346.146a9.938,9.938,0,0,0-2.428,1.528l-.132.11-.125.117c-.083.077-.168.151-.247.23l-.01.009c-.153.159-.308.308-.446.472-.037.04-.073.081-.108.122l-.054.06-.05.063-.2.249-.05.061-.045.063-.093.127c-.06.085-.125.164-.178.252a9.406,9.406,0,0,0-1.032,2,9.123,9.123,0,0,0-.458,1.785c-.009.067-.018.133-.026.2s-.021.127-.023.19q-.015.189-.03.36c-.007.116-.007.229-.012.333,0,.052-.005.1-.006.154s0,.1,0,.147c0,.1,0,.186,0,.27a.3.3,0,0,0,0,.052c0,.015,0,.031.006.046s.007.026.009.053,0,.034.007.034h4.462l-2.711,3.006-6.3,6.892-9.014-9.9h4.739a.731.731,0,0,0,.021-.146c.019-.137.038-.271.06-.435.012-.081.023-.157.036-.244.007-.043.013-.083.02-.128s.012-.091.021-.13c.033-.164.068-.337.1-.521.02-.091.039-.185.059-.281s.047-.194.073-.294c.052-.2.1-.41.164-.626l.207-.669c.035-.116.08-.231.122-.35l.131-.358a17.079,17.079,0,0,1,1.542-3.075,16.888,16.888,0,0,1,2.532-3.089c.123-.125.258-.24.389-.36l.2-.178.1-.089.1-.085.418-.342.106-.085.11-.082.221-.163c.29-.222.6-.422.91-.628.156-.1.317-.194.478-.291l.24-.144.248-.134a16.032,16.032,0,0,1,4.289-1.6l.569-.113c.189-.035.383-.06.574-.089l.288-.041.289-.028.289-.028c.1-.008.192-.02.289-.022.192-.009.386-.032.579-.041.047,0,.1-.02.144-.02h.145l.288.016.288.01c.1,0,.192.013.288.018l.573.034c.13,0,.044,0,.078,0h.015l.03,0,.06.008.121.015.24.03.121.015.06.007.074.01.3.045.3.046.15.023c.049.008.094.019.141.029l.555.118c.092.019.183.045.273.068l.273.072.271.073.268.085c.178.058.356.112.53.174l.52.195a14.885,14.885,0,0,1,3.7,2.119l.2.157c.066.054.13.109.195.165.129.11.258.216.382.328.245.23.489.45.711.689l.169.174.083.087.08.09.315.359.078.089.074.093.146.184c.1.123.2.239.284.366a14.88,14.88,0,0,1,1.252,2q.252.483.45.959a14.114,14.114,0,0,1,.836,2.706c.019.1.038.2.057.3s.039.2.05.293c.026.193.052.378.076.556s.031.351.046.514c.006.082.014.161.019.24s.019.153.022.228C4048.212,4505.11,4048.236,4505.252,4048.236,4505.383Z" transform="translate(-4012.35 -4491.165)" fill="#37474f"/>
        <path id="Path_781" data-name="Path 781" d="M4465.671,4600.55v.054a23.219,23.219,0,0,0-1.833-2.069c-.01-.023-.025-.046-.035-.069a12.182,12.182,0,0,0-1.167-2.154,11.866,11.866,0,0,0-1.864-2.134c-.088-.087-.189-.164-.284-.246-.048-.04-.1-.082-.146-.122l-.071-.061-.076-.059-.3-.231-.076-.059-.08-.054-.159-.109c-.209-.151-.434-.282-.654-.42-.111-.067-.229-.128-.342-.192l-.172-.1-.177-.088a11.069,11.069,0,0,0-3.019-1.008l-.4-.065c-.132-.019-.266-.03-.4-.046l-.2-.022-.2-.011-.2-.012c-.066,0-.132-.01-.2-.009l-.4,0c-.033,0-.068,0-.1,0l-.089,0-.177.01-.176.008-.047,0-.181.014-.242.017-.181.014-.03,0h-.011s-.063,0,.043,0l-.391.058c-.064.01-.13.016-.194.03l-.192.039-.191.037-.1.02c-.032.006-.063.016-.094.023l-.375.095c-.063.014-.124.035-.185.054l-.183.058-.183.055-.179.065c-.119.045-.238.085-.354.132l-.346.147a9.922,9.922,0,0,0-2.428,1.527l-.131.11-.125.117c-.083.078-.167.151-.247.23l-.009.009a11.735,11.735,0,0,1,17.961.184c.168.321.318.642.45.959a14.1,14.1,0,0,1,.836,2.705c.019.1.038.2.056.3s.039.2.05.293c.025.193.051.378.075.557s.031.351.046.514c.006.082.014.161.019.24s.019.153.023.228C4465.647,4600.277,4465.671,4600.419,4465.671,4600.55Z" transform="translate(-4429.785 -4586.332)" fill="#37474f" opacity="0.4" style="mix-blend-mode: multiply;isolation: isolate"/>
      </g>
      <g id="Group_482" data-name="Group 482" transform="translate(931.715 557.999)">
        <path id="Path_782" data-name="Path 782" d="M4536.833,5527.323s.3-1.123.087-1.41-1.509-1.435-1.384-1.061a2.415,2.415,0,0,0,.312.624s-.7.324-.25.811.6.6.625,1.036S4536.534,5527.909,4536.833,5527.323Z" transform="translate(-4535.406 -5517.273)" fill="url(#linear-gradient-12)"/>
        <path id="Path_783" data-name="Path 783" d="M4807.081,6878.8a10.039,10.039,0,0,1,.138,1.316c-.02.346-3.855.522-3.894.263s.634-.67,1.107-.816,1.859-.533,1.859-.533Z" transform="translate(-4793.19 -6820.284)" fill="url(#linear-gradient-13)"/>
        <path id="Path_784" data-name="Path 784" d="M4878.345,6852.086l.123,1.208a.871.871,0,0,0,.837.066l.2-1.313Z" transform="translate(-4865.385 -6794.541)" fill="url(#linear-gradient-14)"/>
        <path id="Path_785" data-name="Path 785" d="M4988.71,6920.583a9.942,9.942,0,0,1,.139,1.316c-.02.346-3.855.522-3.894.263s.634-.67,1.107-.815,1.859-.533,1.859-.533Z" transform="translate(-4967.978 -6860.495)" fill="url(#linear-gradient-15)"/>
        <path id="Path_786" data-name="Path 786" d="M5059.974,6893.872l.123,1.207a.873.873,0,0,0,.837.067l.2-1.314Z" transform="translate(-5040.171 -6834.751)" fill="url(#linear-gradient-16)"/>
        <path id="Path_787" data-name="Path 787" d="M4851.245,6003.237l-1.329,2.7c-.356,5.129-.534,10.706-.42,16.67.084,4.438.322,8.642.663,12.587l1.8-.083a17.981,17.981,0,0,0,1.989-7.563c.1-3.365-.921-3.812-.857-7.034.084-4.175,1.835-5.29,2.768-10.312a26.864,26.864,0,0,0,.312-7.474Z" transform="translate(-4837.589 -5977.212)" fill="url(#linear-gradient-17)"/>
        <path id="Path_788" data-name="Path 788" d="M4871.92,6002.723l-2.662.277c-1.6,2.779-2.042,5.672-1.762,6.951.4,1.81,1.445,2.39,1.388,4.207-.057,1.8-1.117,2.264-1.789,4.384-.465,1.467-.343,2.817-.078,5.456.533,5.314,1.816,6.939.741,8.682a3.922,3.922,0,0,1-1.934,1.535c.026.326.052.653.08.976l1.8-.083a17.987,17.987,0,0,0,1.989-7.564c.1-3.365-.921-3.812-.857-7.034.084-4.175,1.835-5.289,2.768-10.312A26.883,26.883,0,0,0,4871.92,6002.723Z" transform="translate(-4853.337 -5977.212)" opacity="0.3" fill="url(#linear-gradient-18)" style="mix-blend-mode: multiply;isolation: isolate"/>
        <path id="Path_789" data-name="Path 789" d="M4960.123,6026.852c.832,4.537,1.567,9.394,2.141,14.544.692,6.219,1.062,12.081,1.207,17.524l1.979.056c2.6-5.143,2.758-8.629,2.383-10.9a32.85,32.85,0,0,1-.626-5.154,36.262,36.262,0,0,1,.194-4.781c.312-3.584.691-4.367.745-7.108.051-2.573.062-3.875-.673-4.635C4965.539,6024.4,4960.5,6026.674,4960.123,6026.852Z" transform="translate(-4944.083 -5999.209)" fill="url(#linear-gradient-19)"/>
        <path id="Path_790" data-name="Path 790" d="M4536.107,5510.661l-1.316-.091c-1.035,4.182-.292,8.239,2.043,9.731,3.649,2.331,10.433-2.061,11.9-6.843.646-2.1.5-5.128-.792-5.717-.357-.164-.913-.189-2.116.487-3.594,2.018-3.688,5.831-5.515,6.154C4539.5,5514.525,4538.19,5514.007,4536.107,5510.661Z" transform="translate(-4534.334 -5500.786)" fill="url(#linear-gradient-20)"/>
        <path id="Path_791" data-name="Path 791" d="M4798.562,5519.133c-.632-1.049.162-2.061.342-4.047.2-2.252-.663-2.627-1.521-6.359-.571-2.482-1.118-4.865-.464-7.655.313-1.337.844-3.6,2.721-4.7.968-.565,2.291-.508,4.9-.372,3.222.168,4.832.252,6.033.885.175.092,3.83,2.08,4.081,5.319.256,3.3-3.335,3.741-3.814,8.138a35.292,35.292,0,0,0,.417,6.979c.239,1.891.4,2.375.03,2.947-.9,1.379-3.652.986-9.159.2C4799.963,5520.162,4799.033,5519.916,4798.562,5519.133Z" transform="translate(-4786.74 -5489.493)" fill="url(#linear-gradient-21)"/>
        <path id="Path_792" data-name="Path 792" d="M4850.382,5610.447c.233.857,1.07,1.5,1.653,3.582.126.45,1.022,3.655-.14,4.444-.671.456-1.274-.407-2.9-.521-2.825-.2-4.17,2.179-6.016,1.53a2.522,2.522,0,0,1-1.165-.9,1.867,1.867,0,0,0,.193,1.365c.472.783,1.4,1.029,3.562,1.337,5.507.786,8.26,1.179,9.159-.2.373-.573.209-1.057-.03-2.947a35.222,35.222,0,0,1-.417-6.979c.479-4.4,4.07-4.84,3.813-8.138a5.112,5.112,0,0,0-.826-2.35C4852.71,5602.511,4849.65,5607.754,4850.382,5610.447Z" transform="translate(-4830.184 -5590.304)" opacity="0.3" fill="url(#linear-gradient-22)" style="mix-blend-mode: multiply;isolation: isolate"/>
        <path id="Path_793" data-name="Path 793" d="M5133.954,6028.17l-.911.582a2.135,2.135,0,0,0-1.134-.7c-.666-.146-1.431.064-1.449.276-.014.17.452.342.523.369.582.214,1.013.036,1.249.27a1.758,1.758,0,0,0,.425.379,1.241,1.241,0,0,0,.163.084c.388.151,1.054-.525,1.111-.584Z" transform="translate(-5108.001 -6001.541)" fill="url(#linear-gradient-23)"/>
        <path id="Path_794" data-name="Path 794" d="M5134.131,5521.326c-.66-1.579-1.116-4-.075-7.587,6.862,2.7,10.361,9.113,8.995,14.195-1.126,4.189-5.224,6.229-6.138,6.658l-.639-1.452a6.827,6.827,0,0,0,2.085-4.915C5138.125,5525.465,5135.465,5524.522,5134.131,5521.326Z" transform="translate(-5110.871 -5506.649)" fill="url(#linear-gradient-24)"/>
        <path id="Path_795" data-name="Path 795" d="M4921.828,5412.1a7.347,7.347,0,0,0,.427,2.1c.337.813,2.108,1.323,2.467,1.5s-.673.711-1.708.816-3.994-.131-4.528-.524.429-.363,1.168-.635,1.167-1.717,1.037-2.374S4921.828,5412.1,4921.828,5412.1Z" transform="translate(-4903.865 -5408.838)" fill="url(#linear-gradient-25)"/>
        <path id="Path_796" data-name="Path 796" d="M4949.151,5328.4c-.538-.528-.613-.59-.671-.772a1.758,1.758,0,0,1,1.079-1.983c.039-.013.539-.173.729.043.162.185-.077.439.037.794.106.332.395.357.928.793.44.358.713.582.776.9a1.53,1.53,0,0,1-1.347,1.559C4950.434,5329.72,4950.366,5329.593,4949.151,5328.4Z" transform="translate(-4932.827 -5325.575)" fill="url(#linear-gradient-26)"/>
        <g id="Group_481" data-name="Group 481" transform="translate(15.833 2.357)">
          <path id="Path_797" data-name="Path 797" d="M4956.575,5390.033a1.527,1.527,0,0,1-1.442.433c-.78-.191-.581-1.98-.01-2.266a1.012,1.012,0,0,1,.8.038c.153.075.2.151.45.267.234.107.308.092.371.167.078.095.112.3-.134.787a.436.436,0,0,1,.485-.069.275.275,0,0,1,.087.121C4957.252,5389.733,4957.021,5389.958,4956.575,5390.033Z" transform="translate(-4954.62 -5388.136)" fill="url(#linear-gradient-27)"/>
        </g>
      </g>
      <g id="Group_484" data-name="Group 484" transform="translate(910.009 556.081)">
        <path id="Path_798" data-name="Path 798" d="M3976.363,5295.832a8.479,8.479,0,0,1-8.772,8.647,9.928,9.928,0,0,1-9.43-9.874,8.456,8.456,0,0,1,9.43-8.6A9.993,9.993,0,0,1,3976.363,5295.832Z" transform="translate(-3958.161 -5285.528)" fill="url(#linear-gradient-6)"/>
        <path id="Path_799" data-name="Path 799" d="M4011.665,5284.562a8.48,8.48,0,0,1-8.772,8.647,9.928,9.928,0,0,1-9.429-9.874,8.456,8.456,0,0,1,9.429-8.6A9.994,9.994,0,0,1,4011.665,5284.562Z" transform="translate(-3992.133 -5274.682)" fill="url(#linear-gradient-7)"/>
        <path id="Path_800" data-name="Path 800" d="M4022.643,5295.381a8.092,8.092,0,0,1-8.386,8.252,9.477,9.477,0,0,1-8.984-9.424,8.07,8.07,0,0,1,8.984-8.212A9.536,9.536,0,0,1,4022.643,5295.381Z" transform="translate(-4003.497 -5285.528)" fill="url(#linear-gradient-8)"/>
        <path id="Path_801" data-name="Path 801" d="M4030.459,5303.108a7.815,7.815,0,0,1-8.109,7.971,9.154,9.154,0,0,1-8.667-9.1,7.8,7.8,0,0,1,8.667-7.933A9.209,9.209,0,0,1,4030.459,5303.108Z" transform="translate(-4011.591 -5293.274)" fill="url(#linear-gradient-9)"/>
        <g id="Group_483" data-name="Group 483" transform="translate(6.553 2.318)">
          <path id="Path_802" data-name="Path 802" d="M4136.271,5336.2h0a.5.5,0,0,1,.438.486v.838a12.382,12.382,0,0,1,1.452.252c.358.084.713.184,1.066.3a.49.49,0,0,1,.334.5l-.1,1.051a.394.394,0,0,1-.562.327,6.069,6.069,0,0,0-.715-.267,6.511,6.511,0,0,0-1.348-.252l-.124-.01v2.4a6.3,6.3,0,0,1,2.786,1.424,3.013,3.013,0,0,1,.893,2.225,2.928,2.928,0,0,1-.987,2.312,4.5,4.5,0,0,1-2.792.983v.925a.421.421,0,0,1-.437.427h-.008a.465.465,0,0,1-.439-.464v-.913l-.2-.009a12.736,12.736,0,0,1-1.617-.173,10.372,10.372,0,0,1-1.118-.257.481.481,0,0,1-.351-.5l.121-1.351a.427.427,0,0,1,.6-.353,8.829,8.829,0,0,0,.983.323,8.6,8.6,0,0,0,1.572.262l.008-2.67a5.784,5.784,0,0,1-2.713-1.331,3.05,3.05,0,0,1-.9-2.266,2.648,2.648,0,0,1,.974-2.2,4.32,4.32,0,0,1,2.746-.767v-.857A.4.4,0,0,1,4136.271,5336.2Zm-.439,3.2a1.479,1.479,0,0,0-.875.308.9.9,0,0,0-.314.721.967.967,0,0,0,.29.716,2.049,2.049,0,0,0,.9.458Zm.776,4.835v2.449a1.356,1.356,0,0,0,.937-.292,1.048,1.048,0,0,0,.326-.824,1.127,1.127,0,0,0-.3-.806A2.231,2.231,0,0,0,4136.608,5344.242Z" transform="translate(-4132.112 -5336.201)" fill="url(#linear-gradient-10)"/>
        </g>
        <path id="Path_803" data-name="Path 803" d="M4020.882,5305.358c.274-2.706,2.761-3.852,2.437-6.341a6.27,6.27,0,0,0-2.66-3.836,7.8,7.8,0,0,0-6.977,7.931,9.154,9.154,0,0,0,8.667,9.1,8.142,8.142,0,0,0,1.34-.065A8.858,8.858,0,0,1,4020.882,5305.358Z" transform="translate(-4011.591 -5294.409)" opacity="0.3" fill="url(#linear-gradient-11)" style="mix-blend-mode: multiply;isolation: isolate"/>
      </g>
    </g>
  </g>
</svg>
