<svg id="Group_542" data-name="Group 542" xmlns="http://www.w3.org/2000/svg" width="40.16" height="36.609" viewBox="0 0 40.16 36.609">
  <path id="Path_684" data-name="Path 684" d="M133.5,40.072q-.1,0-.211,0c-.1-3.434-3.2-6.2-6.985-6.2a7.316,7.316,0,0,0-2.644.5,9.58,9.58,0,0,0-8.184-4.384c-5.173,0-9.381,3.836-9.381,8.551a7.705,7.705,0,0,0,.074,1.057A6.588,6.588,0,0,0,100,45.893c0,3.488,3.117,6.326,6.948,6.326a6.869,6.869,0,0,0,1.609-.194h1.708v4.389h-2.531a.735.735,0,1,0,0,1.464h2.531v4.389h-2.531a.735.735,0,1,0,0,1.464h2.531v.45A2.549,2.549,0,0,0,112.92,66.6h17.658a2.549,2.549,0,0,0,2.656-2.421V52.207c.09,0,.176.011.269.011,3.672,0,6.659-2.723,6.659-6.069s-2.987-6.077-6.659-6.077ZM116.316,65.136h-3.4a1.007,1.007,0,0,1-1.049-.956v-.45h1.172a.735.735,0,1,0,0-1.464h-1.172V57.877h1.172a.735.735,0,1,0,0-1.464h-1.172V52.024h1.172a.735.735,0,1,0,0-1.464h-1.172V46.172h1.172a.735.735,0,1,0,0-1.464h-1.172v-.45a1.007,1.007,0,0,1,1.049-.956h3.4Zm15.311-.956a1.007,1.007,0,0,1-1.049.956H117.922V43.3h12.656a1.007,1.007,0,0,1,1.049.956ZM133.5,50.754c-.094,0-.18-.007-.269-.011V44.257a2.549,2.549,0,0,0-2.656-2.421H112.92a2.549,2.549,0,0,0-2.655,2.421v.45h-2.531a.735.735,0,1,0,0,1.464h2.531V50.56h-2.531a.835.835,0,0,0-.507.177c-.094,0-.184.017-.279.017a5.124,5.124,0,0,1-5.341-4.861,5.118,5.118,0,0,1,5.317-4.867h0l.08.013a.843.843,0,0,0,.707-.229.685.685,0,0,0,.192-.661,6.56,6.56,0,0,1-.2-1.607c0-3.908,3.488-7.087,7.775-7.087a7.858,7.858,0,0,1,7.09,4.195.78.78,0,0,0,.48.395.869.869,0,0,0,.644-.056,5.717,5.717,0,0,1,2.612-.646,5.169,5.169,0,0,1,5.381,4.913,2.3,2.3,0,0,1-.035.333c-.012.081-.024.163-.033.245a.7.7,0,0,0,.254.611.859.859,0,0,0,.689.182,5.638,5.638,0,0,1,.94-.091,4.853,4.853,0,0,1,5.052,4.613,4.85,4.85,0,0,1-5.052,4.605Z" transform="translate(-100 -29.991)" fill="#3c3c3c"/>
  <path id="Path_685" data-name="Path 685" d="M356.729,297.443a3.826,3.826,0,1,0-3.836,0,5.573,5.573,0,0,0-3.652,5.222.941.941,0,0,0,1.882,0,3.688,3.688,0,1,1,7.376,0,.941.941,0,0,0,1.882,0A5.573,5.573,0,0,0,356.729,297.443Zm-1.918-1.347a1.944,1.944,0,1,1,1.945-1.944A1.946,1.946,0,0,1,354.811,296.1Z" transform="translate(-330.287 -273.403)" fill="#fff"/>
</svg>
