<svg xmlns="http://www.w3.org/2000/svg" width="32" height="32" viewBox="0 0 32 32">
  <g id="Group_851" data-name="Group 851" transform="translate(-42 -336)">
    <g id="Ellipse_33" data-name="Ellipse 33" transform="translate(42 336)" fill="#f3f3f3" stroke="#e4e4e4" stroke-width="1">
      <circle cx="16" cy="16" r="16" stroke="none"/>
      <circle cx="16" cy="16" r="15.5" fill="none"/>
    </g>
    <path id="call" d="M11.519,13.812a4.863,4.863,0,0,1-2.271-.774A14.765,14.765,0,0,1,5.681,10.37,13.546,13.546,0,0,1,3,6.8C2.052,5.075,2.214,4.169,2.4,3.781a2.414,2.414,0,0,1,.946-1.015,4.55,4.55,0,0,1,.739-.392l.071-.031a.69.69,0,0,1,.566-.052,1.658,1.658,0,0,1,.538.413A8.941,8.941,0,0,1,6.6,4.7a1.989,1.989,0,0,1,.264.819,1.294,1.294,0,0,1-.329.769c-.034.046-.068.09-.1.133-.2.258-.239.333-.211.466A4.895,4.895,0,0,0,7.419,8.657,4.7,4.7,0,0,0,9.167,9.82c.139.03.215-.015.481-.219l.119-.09a1.3,1.3,0,0,1,.781-.349h0a1.871,1.871,0,0,1,.822.289,9.851,9.851,0,0,1,1.991,1.336,1.665,1.665,0,0,1,.414.537.7.7,0,0,1-.052.568c-.01.021-.02.045-.031.071a4.555,4.555,0,0,1-.395.738,2.412,2.412,0,0,1-1.016.944,1.74,1.74,0,0,1-.763.167Z" transform="translate(49.743 343.75)"/>
  </g>
</svg>
