<svg xmlns="http://www.w3.org/2000/svg" width="24.308" height="32.314" viewBox="0 0 24.308 32.314">
  <g id="Group_572" data-name="Group 572" transform="translate(0 0)">
    <path id="Path_1058" data-name="Path 1058" d="M277.449,194.536h-.26v-2.855A3.824,3.824,0,0,0,274,187.917V187.2a.634.634,0,1,0-1.267,0v.714a3.824,3.824,0,0,0-3.185,3.765v2.855h-.26a.634.634,0,1,0,0,1.267h2.743a1.415,1.415,0,0,0,2.671,0h2.743a.634.634,0,0,0,0-1.267Z" transform="translate(-261.217 -175.826)"/>
    <path id="Path_1059" data-name="Path 1059" d="M162.517,1.094h-20.38a1.964,1.964,0,0,0-1.964,1.964V31.447a1.964,1.964,0,0,0,1.964,1.961h20.38a1.964,1.964,0,0,0,1.964-1.961V3.058a1.964,1.964,0,0,0-1.964-1.964Zm-21.074,6.53h21.768V26.9H141.443Zm.694-5.263h20.38a.7.7,0,0,1,.7.7v3.3H141.443v-3.3a.7.7,0,0,1,.694-.7Zm20.38,29.776h-20.38a.7.7,0,0,1-.7-.694V28.165h21.771v3.278a.7.7,0,0,1-.694.694Z" transform="translate(-140.173 -1.094)"/>
    <path id="Path_1060" data-name="Path 1060" d="M335.946,48.668h2.519a.634.634,0,0,0,0-1.267h-2.519a.634.634,0,0,0,0,1.267Z" transform="translate(-324.009 -44.719)"/>
    <path id="Path_1061" data-name="Path 1061" d="M320.47,491.56h-2.519a.634.634,0,1,0,0,1.267h2.519a.634.634,0,1,0,0-1.267Z" transform="translate(-307.057 -463.151)"/>
    <path id="Path_1062" data-name="Path 1062" d="M299.966,48.594h.443a.634.634,0,1,0,0-1.267h-.443a.634.634,0,1,0,0,1.267Z" transform="translate(-290.113 -44.649)"/>
  </g>
</svg>
