<svg id="Group_571" data-name="Group 571" xmlns="http://www.w3.org/2000/svg" width="25.169" height="33.281" viewBox="0 0 25.169 33.281">
  <path id="Path_979" data-name="Path 979" d="M192.384,72.484H168.368a.577.577,0,0,1-.577-.577V39.78a.577.577,0,0,1,.577-.577h24.015a.577.577,0,0,1,.577.577V71.908A.577.577,0,0,1,192.384,72.484Zm-23.439-1.153h22.862V40.356H168.944Z" transform="translate(-167.792 -39.203)"/>
  <path id="Path_980" data-name="Path 980" d="M297.093,97.461a3.98,3.98,0,1,1,3.98-3.98A3.985,3.985,0,0,1,297.093,97.461Zm0-6.807a2.827,2.827,0,1,0,2.827,2.827A2.83,2.83,0,0,0,297.093,90.654Z" transform="translate(-284.509 -86.047)"/>
  <path id="Path_981" data-name="Path 981" d="M293.184,182.51h0a.577.577,0,0,1-.526-.35L292.2,181.1l-1.013.394a.577.577,0,0,1-.736-.772l1.382-3.11a.577.577,0,1,1,1.054.469l-.814,1.832.228-.089a.577.577,0,0,1,.739.311l.154.361.845-1.9a.577.577,0,0,1,1.054.469l-1.382,3.11a.577.577,0,0,1-.527.342Z" transform="translate(-281.982 -167.786)"/>
  <path id="Path_982" data-name="Path 982" d="M344.645,182.506a.576.576,0,0,1-.527-.342l-1.382-3.11a.577.577,0,0,1,1.054-.469l.845,1.9.154-.361a.577.577,0,0,1,.739-.311l.228.089-.814-1.832A.577.577,0,0,1,346,177.6l1.382,3.11a.577.577,0,0,1-.736.772l-1.013-.394-.456,1.064a.576.576,0,0,1-.526.35h0Z" transform="translate(-330.679 -167.782)"/>
  <path id="Path_983" data-name="Path 983" d="M239.1,286.106H222.518a.577.577,0,1,1,0-1.153H239.1a.577.577,0,1,1,0,1.153Z" transform="translate(-218.224 -268.081)"/>
  <path id="Path_984" data-name="Path 984" d="M239.1,328.6H222.518a.577.577,0,1,1,0-1.153H239.1a.577.577,0,1,1,0,1.153Z" transform="translate(-218.224 -307.654)"/>
  <path id="Path_985" data-name="Path 985" d="M239.1,371.086H222.518a.577.577,0,1,1,0-1.153H239.1a.577.577,0,1,1,0,1.153Z" transform="translate(-218.224 -347.227)"/>
  <path id="Path_986" data-name="Path 986" d="M239.1,413.576H222.518a.577.577,0,1,1,0-1.153H239.1a.577.577,0,1,1,0,1.153Z" transform="translate(-218.224 -386.8)"/>
  <path id="Path_987" data-name="Path 987" d="M294.163,456.066h-7.815a.577.577,0,0,1,0-1.153h7.814a.577.577,0,0,1,0,1.153Z" transform="translate(-277.672 -426.373)"/>
</svg>
