<svg xmlns="http://www.w3.org/2000/svg" width="17.409" height="16.794" viewBox="0 0 17.409 16.794">
  <g id="Group_551" data-name="Group 551" transform="translate(0 0)">
    <path id="Path_920" data-name="Path 920" d="M199.585,87.2V85.212a.627.627,0,1,0-1.253,0V87.26m0,4.259v9.233a.627.627,0,1,0,1.253,0V91.5" transform="translate(-196.201 -84.585)" fill-rule="evenodd"/>
    <path id="Path_921" data-name="Path 921" d="M154.374,132.6a2.814,2.814,0,1,0-2.814,2.812A2.813,2.813,0,0,0,154.374,132.6Zm-4.375,0a1.561,1.561,0,1,1,1.561,1.559A1.56,1.56,0,0,1,150,132.6Z" transform="translate(-148.746 -127.846)" fill-rule="evenodd"/>
    <path id="Path_922" data-name="Path 922" d="M473.755,87.2V85.212a.627.627,0,1,0-1.253,0V87.26m0,4.259v9.233a.627.627,0,1,0,1.253,0V91.5" transform="translate(-458.59 -84.585)" fill-rule="evenodd"/>
    <path id="Path_923" data-name="Path 923" d="M428.544,132.6a2.814,2.814,0,1,0-2.814,2.812A2.813,2.813,0,0,0,428.544,132.6Zm-4.375,0a1.561,1.561,0,1,1,1.561,1.559A1.56,1.56,0,0,1,424.169,132.6Z" transform="translate(-411.135 -127.846)" fill-rule="evenodd"/>
    <path id="Path_924" data-name="Path 924" d="M338.33,98.753v1.992a.627.627,0,1,0,1.253,0V98.7m0-4.259V85.2a.627.627,0,1,0-1.253,0v9.251" transform="translate(-330.184 -84.578)" fill-rule="evenodd"/>
    <path id="Path_925" data-name="Path 925" d="M286.1,302.141a2.814,2.814,0,1,0,2.814-2.812A2.813,2.813,0,0,0,286.1,302.141Zm4.375,0a1.561,1.561,0,1,1-1.561-1.559A1.56,1.56,0,0,1,290.475,302.141Z" transform="translate(-280.198 -290.101)" fill-rule="evenodd"/>
  </g>
</svg>
