<svg xmlns="http://www.w3.org/2000/svg" width="171.582" height="154.717" viewBox="0 0 171.582 154.717">
  <g id="Group_855" data-name="Group 855" transform="translate(-102.065 -125.382)">
    <path id="Path_1791" data-name="Path 1791" d="M544.891,1571.188c4.053,26.433,31.958,46.893,53.435,56.561,15.116,6.8,32.19,9.423,48.152,5.354,25.8-6.578,44.425-31.644,46.318-59.516,2.258-33.248-19.465-64.045-48.887-74.02-29.67-10.059-63.509,3.012-84.229,26.787C548.755,1538.889,542.318,1554.407,544.891,1571.188Z" transform="translate(-426.521 -1364.174)" fill="#dcdcdc" opacity="0.4"/>
    <g id="Group_834" data-name="Group 834" transform="translate(102.065 125.382)">
      <g id="Group_833" data-name="Group 833" transform="translate(0 0)">
        <g id="Background_Complete" data-name="Background Complete" transform="translate(24.445 17.95)">
          <g id="Group_709" data-name="Group 709" transform="translate(56.077 0)">
            <g id="Group_706" data-name="Group 706">
              <path id="Path_1571" data-name="Path 1571" d="M-394.141,144.667l.055,21.255a2.152,2.152,0,0,1-2.144,2.158l-33.713.088a2.151,2.151,0,0,1-2.155-2.147l-.055-21.255a2,2,0,0,1,2-2.007l34.008-.088A2,2,0,0,1-394.141,144.667Z" transform="translate(432.153 -142.67)" fill="#ebebeb"/>
              <g id="Group_705" data-name="Group 705" transform="translate(3.199 3.656)">
                <path id="Path_1572" data-name="Path 1572" d="M-359.182,188.761a1.978,1.978,0,0,1-1.973,1.984,1.979,1.979,0,0,1-1.984-1.974,1.979,1.979,0,0,1,1.974-1.984A1.978,1.978,0,0,1-359.182,188.761Z" transform="translate(388.563 -172.146)" fill="#dbdbdb"/>
                <path id="Path_1573" data-name="Path 1573" d="M-353.307,188.745a1.979,1.979,0,0,1-1.974,1.984,1.979,1.979,0,0,1-1.984-1.974,1.979,1.979,0,0,1,1.973-1.984A1.979,1.979,0,0,1-353.307,188.745Z" transform="translate(385.125 -172.137)" fill="#ffc727"/>
                <rect id="Rectangle_163" data-name="Rectangle 163" width="7.135" height="4.931" rx="2.466" transform="translate(0 0.079) rotate(-0.148)" fill="#ffc727"/>
                <path id="Path_1574" data-name="Path 1574" d="M-357.539,154.189l-3.228.009a1.353,1.353,0,0,1-1.356-1.349h0a1.353,1.353,0,0,1,1.349-1.356l3.228-.008a1.352,1.352,0,0,1,1.356,1.349h0A1.352,1.352,0,0,1-357.539,154.189Z" transform="translate(387.969 -151.485)" fill="#fff"/>
                <rect id="Rectangle_164" data-name="Rectangle 164" width="18.051" height="0.887" transform="translate(0.038 14.917) rotate(-0.149)" fill="#dbdbdb"/>
                <rect id="Rectangle_165" data-name="Rectangle 165" width="12.78" height="0.887" transform="translate(0.044 16.887) rotate(-0.149)" fill="#dbdbdb"/>
                <rect id="Rectangle_166" data-name="Rectangle 166" width="9.003" height="0.887" transform="translate(15.598 0.039) rotate(-0.149)" fill="#dbdbdb"/>
                <g id="Group_704" data-name="Group 704" transform="translate(0.1 10.142)">
                  <g id="Group_673" data-name="Group 673">
                    <g id="Group_672" data-name="Group 672">
                      <rect id="Rectangle_167" data-name="Rectangle 167" width="0.124" height="1.35" transform="translate(0.613)" fill="#c7c7c7"/>
                      <rect id="Rectangle_168" data-name="Rectangle 168" width="1.35" height="0.124" transform="translate(0 0.613)" fill="#c7c7c7"/>
                      <rect id="Rectangle_169" data-name="Rectangle 169" width="1.35" height="0.124" transform="translate(0.154 1.108) rotate(-44.999)" fill="#c7c7c7"/>
                      <rect id="Rectangle_170" data-name="Rectangle 170" width="0.124" height="1.35" transform="matrix(0.707, -0.707, 0.707, 0.707, 0.154, 0.242)" fill="#c7c7c7"/>
                    </g>
                  </g>
                  <g id="Group_675" data-name="Group 675" transform="translate(1.624)">
                    <g id="Group_674" data-name="Group 674">
                      <rect id="Rectangle_171" data-name="Rectangle 171" width="0.124" height="1.35" transform="translate(0.613)" fill="#c7c7c7"/>
                      <rect id="Rectangle_172" data-name="Rectangle 172" width="1.35" height="0.124" transform="translate(0 0.613)" fill="#c7c7c7"/>
                      <rect id="Rectangle_173" data-name="Rectangle 173" width="1.35" height="0.124" transform="translate(0.154 1.108) rotate(-45)" fill="#c7c7c7"/>
                      <rect id="Rectangle_174" data-name="Rectangle 174" width="0.124" height="1.35" transform="matrix(0.707, -0.707, 0.707, 0.707, 0.154, 0.242)" fill="#c7c7c7"/>
                    </g>
                  </g>
                  <g id="Group_677" data-name="Group 677" transform="translate(3.248)">
                    <g id="Group_676" data-name="Group 676">
                      <rect id="Rectangle_175" data-name="Rectangle 175" width="0.125" height="1.35" transform="translate(0.612)" fill="#c7c7c7"/>
                      <rect id="Rectangle_176" data-name="Rectangle 176" width="1.35" height="0.124" transform="translate(0 0.613)" fill="#c7c7c7"/>
                      <path id="Path_1575" data-name="Path 1575" d="M-415.91,177.352l-.088-.088.954-.955.088.088Z" transform="translate(416.152 -176.156)" fill="#c7c7c7"/>
                      <path id="Path_1576" data-name="Path 1576" d="M-415.044,177.352-416,176.4l.088-.088.954.955Z" transform="translate(416.152 -176.156)" fill="#c7c7c7"/>
                    </g>
                  </g>
                  <g id="Group_679" data-name="Group 679" transform="translate(4.872)">
                    <g id="Group_678" data-name="Group 678">
                      <rect id="Rectangle_177" data-name="Rectangle 177" width="0.125" height="1.35" transform="translate(0.612)" fill="#c7c7c7"/>
                      <rect id="Rectangle_178" data-name="Rectangle 178" width="1.35" height="0.124" transform="translate(0 0.613)" fill="#c7c7c7"/>
                      <path id="Path_1577" data-name="Path 1577" d="M-412,177.352l-.088-.088.955-.955.088.088Z" transform="translate(412.237 -176.156)" fill="#c7c7c7"/>
                      <path id="Path_1578" data-name="Path 1578" d="M-411.129,177.352l-.955-.955.088-.088.955.955Z" transform="translate(412.237 -176.156)" fill="#c7c7c7"/>
                    </g>
                  </g>
                  <g id="Group_681" data-name="Group 681" transform="translate(8.416)">
                    <g id="Group_680" data-name="Group 680">
                      <rect id="Rectangle_179" data-name="Rectangle 179" width="0.125" height="1.35" transform="translate(0.612)" fill="#c7c7c7"/>
                      <rect id="Rectangle_180" data-name="Rectangle 180" width="1.35" height="0.124" transform="translate(0 0.613)" fill="#c7c7c7"/>
                      <path id="Path_1579" data-name="Path 1579" d="M-403.448,177.352l-.088-.088.954-.955.088.088Z" transform="translate(403.69 -176.156)" fill="#c7c7c7"/>
                      <path id="Path_1580" data-name="Path 1580" d="M-402.582,177.352l-.954-.955.088-.088.954.955Z" transform="translate(403.69 -176.156)" fill="#c7c7c7"/>
                    </g>
                  </g>
                  <g id="Group_683" data-name="Group 683" transform="translate(10.04)">
                    <g id="Group_682" data-name="Group 682">
                      <rect id="Rectangle_181" data-name="Rectangle 181" width="0.125" height="1.35" transform="translate(0.612)" fill="#c7c7c7"/>
                      <rect id="Rectangle_182" data-name="Rectangle 182" width="1.35" height="0.124" transform="translate(0 0.613)" fill="#c7c7c7"/>
                      <path id="Path_1581" data-name="Path 1581" d="M-399.533,177.352l-.088-.088.955-.955.088.088Z" transform="translate(399.775 -176.156)" fill="#c7c7c7"/>
                      <path id="Path_1582" data-name="Path 1582" d="M-398.667,177.352l-.955-.955.088-.088.955.955Z" transform="translate(399.775 -176.156)" fill="#c7c7c7"/>
                    </g>
                  </g>
                  <g id="Group_685" data-name="Group 685" transform="translate(11.664)">
                    <g id="Group_684" data-name="Group 684">
                      <rect id="Rectangle_183" data-name="Rectangle 183" width="0.125" height="1.35" transform="translate(0.613)" fill="#c7c7c7"/>
                      <rect id="Rectangle_184" data-name="Rectangle 184" width="1.35" height="0.124" transform="translate(0 0.613)" fill="#c7c7c7"/>
                      <path id="Path_1583" data-name="Path 1583" d="M-395.618,177.352l-.088-.088.955-.955.088.088Z" transform="translate(395.86 -176.156)" fill="#c7c7c7"/>
                      <path id="Path_1584" data-name="Path 1584" d="M-394.752,177.352l-.955-.955.088-.088.955.955Z" transform="translate(395.86 -176.156)" fill="#c7c7c7"/>
                    </g>
                  </g>
                  <g id="Group_687" data-name="Group 687" transform="translate(13.287)">
                    <g id="Group_686" data-name="Group 686">
                      <rect id="Rectangle_185" data-name="Rectangle 185" width="0.125" height="1.35" transform="translate(0.613)" fill="#c7c7c7"/>
                      <rect id="Rectangle_186" data-name="Rectangle 186" width="1.35" height="0.124" transform="translate(0 0.613)" fill="#c7c7c7"/>
                      <path id="Path_1585" data-name="Path 1585" d="M-391.7,177.352l-.088-.088.955-.955.088.088Z" transform="translate(391.945 -176.156)" fill="#c7c7c7"/>
                      <path id="Path_1586" data-name="Path 1586" d="M-390.837,177.352l-.955-.955.088-.088.955.955Z" transform="translate(391.945 -176.156)" fill="#c7c7c7"/>
                    </g>
                  </g>
                  <g id="Group_689" data-name="Group 689" transform="translate(16.832)">
                    <g id="Group_688" data-name="Group 688">
                      <rect id="Rectangle_187" data-name="Rectangle 187" width="0.125" height="1.35" transform="translate(0.613)" fill="#c7c7c7"/>
                      <rect id="Rectangle_188" data-name="Rectangle 188" width="1.35" height="0.124" transform="translate(0 0.613)" fill="#c7c7c7"/>
                      <path id="Path_1587" data-name="Path 1587" d="M-383.156,177.352l-.088-.088.955-.955.088.088Z" transform="translate(383.398 -176.156)" fill="#c7c7c7"/>
                      <path id="Path_1588" data-name="Path 1588" d="M-382.29,177.352l-.955-.955.088-.088.955.955Z" transform="translate(383.398 -176.156)" fill="#c7c7c7"/>
                    </g>
                  </g>
                  <g id="Group_691" data-name="Group 691" transform="translate(18.456)">
                    <g id="Group_690" data-name="Group 690">
                      <rect id="Rectangle_189" data-name="Rectangle 189" width="0.125" height="1.35" transform="translate(0.613)" fill="#c7c7c7"/>
                      <rect id="Rectangle_190" data-name="Rectangle 190" width="1.35" height="0.124" transform="translate(0 0.613)" fill="#c7c7c7"/>
                      <path id="Path_1589" data-name="Path 1589" d="M-379.24,177.352l-.088-.088.954-.955.088.088Z" transform="translate(379.482 -176.156)" fill="#c7c7c7"/>
                      <path id="Path_1590" data-name="Path 1590" d="M-378.374,177.352l-.954-.955.088-.088.954.955Z" transform="translate(379.482 -176.156)" fill="#c7c7c7"/>
                    </g>
                  </g>
                  <g id="Group_693" data-name="Group 693" transform="translate(20.08)">
                    <g id="Group_692" data-name="Group 692">
                      <rect id="Rectangle_191" data-name="Rectangle 191" width="0.125" height="1.35" transform="translate(0.612)" fill="#c7c7c7"/>
                      <rect id="Rectangle_192" data-name="Rectangle 192" width="1.35" height="0.124" transform="translate(0 0.613)" fill="#c7c7c7"/>
                      <path id="Path_1591" data-name="Path 1591" d="M-375.325,177.352l-.088-.088.954-.955.088.088Z" transform="translate(375.567 -176.156)" fill="#c7c7c7"/>
                      <path id="Path_1592" data-name="Path 1592" d="M-374.459,177.352l-.954-.955.088-.088.954.955Z" transform="translate(375.567 -176.156)" fill="#c7c7c7"/>
                    </g>
                  </g>
                  <g id="Group_695" data-name="Group 695" transform="translate(21.704)">
                    <g id="Group_694" data-name="Group 694">
                      <rect id="Rectangle_193" data-name="Rectangle 193" width="0.125" height="1.35" transform="translate(0.612)" fill="#c7c7c7"/>
                      <rect id="Rectangle_194" data-name="Rectangle 194" width="1.35" height="0.124" transform="translate(0 0.613)" fill="#c7c7c7"/>
                      <path id="Path_1593" data-name="Path 1593" d="M-371.41,177.352l-.088-.088.955-.955.088.088Z" transform="translate(371.652 -176.156)" fill="#c7c7c7"/>
                      <path id="Path_1594" data-name="Path 1594" d="M-370.544,177.352l-.955-.955.088-.088.955.955Z" transform="translate(371.652 -176.156)" fill="#c7c7c7"/>
                    </g>
                  </g>
                  <g id="Group_697" data-name="Group 697" transform="translate(25.248)">
                    <g id="Group_696" data-name="Group 696">
                      <rect id="Rectangle_195" data-name="Rectangle 195" width="0.125" height="1.35" transform="translate(0.612)" fill="#c7c7c7"/>
                      <rect id="Rectangle_196" data-name="Rectangle 196" width="1.35" height="0.124" transform="translate(0 0.613)" fill="#c7c7c7"/>
                      <path id="Path_1595" data-name="Path 1595" d="M-362.863,177.352l-.088-.088.955-.955.088.088Z" transform="translate(363.105 -176.156)" fill="#c7c7c7"/>
                      <path id="Path_1596" data-name="Path 1596" d="M-362,177.352l-.955-.955.088-.088.955.955Z" transform="translate(363.105 -176.156)" fill="#c7c7c7"/>
                    </g>
                  </g>
                  <g id="Group_699" data-name="Group 699" transform="translate(26.872)">
                    <g id="Group_698" data-name="Group 698">
                      <rect id="Rectangle_197" data-name="Rectangle 197" width="0.125" height="1.35" transform="translate(0.612)" fill="#c7c7c7"/>
                      <rect id="Rectangle_198" data-name="Rectangle 198" width="1.35" height="0.124" transform="translate(0 0.613)" fill="#c7c7c7"/>
                      <path id="Path_1597" data-name="Path 1597" d="M-358.948,177.352l-.088-.088.955-.955.088.088Z" transform="translate(359.19 -176.156)" fill="#c7c7c7"/>
                      <path id="Path_1598" data-name="Path 1598" d="M-358.082,177.352l-.955-.955.088-.088.955.955Z" transform="translate(359.19 -176.156)" fill="#c7c7c7"/>
                    </g>
                  </g>
                  <g id="Group_701" data-name="Group 701" transform="translate(28.496)">
                    <g id="Group_700" data-name="Group 700">
                      <rect id="Rectangle_199" data-name="Rectangle 199" width="0.125" height="1.35" transform="translate(0.613)" fill="#c7c7c7"/>
                      <rect id="Rectangle_200" data-name="Rectangle 200" width="1.35" height="0.124" transform="translate(0 0.613)" fill="#c7c7c7"/>
                      <path id="Path_1599" data-name="Path 1599" d="M-355.033,177.352l-.088-.088.955-.955.088.088Z" transform="translate(355.275 -176.156)" fill="#c7c7c7"/>
                      <path id="Path_1600" data-name="Path 1600" d="M-354.167,177.352l-.955-.955.088-.088.955.955Z" transform="translate(355.275 -176.156)" fill="#c7c7c7"/>
                    </g>
                  </g>
                  <g id="Group_703" data-name="Group 703" transform="translate(30.12)">
                    <g id="Group_702" data-name="Group 702">
                      <rect id="Rectangle_201" data-name="Rectangle 201" width="0.125" height="1.35" transform="translate(0.612)" fill="#c7c7c7"/>
                      <rect id="Rectangle_202" data-name="Rectangle 202" width="1.35" height="0.124" transform="translate(0 0.613)" fill="#c7c7c7"/>
                      <path id="Path_1601" data-name="Path 1601" d="M-351.117,177.352l-.088-.088.954-.955.088.088Z" transform="translate(351.359 -176.156)" fill="#c7c7c7"/>
                      <path id="Path_1602" data-name="Path 1602" d="M-350.251,177.352l-.954-.955.088-.088.954.955Z" transform="translate(351.359 -176.156)" fill="#c7c7c7"/>
                    </g>
                  </g>
                </g>
              </g>
            </g>
            <g id="Group_708" data-name="Group 708" transform="translate(33.784 21.108)">
              <circle id="Ellipse_165" data-name="Ellipse 165" cx="3.732" cy="3.732" r="3.732" transform="translate(0 7.367) rotate(-80.756)" fill="#c7c7c7"/>
              <g id="Group_707" data-name="Group 707" transform="translate(2.433 1.397)">
                <rect id="Rectangle_203" data-name="Rectangle 203" width="3.701" height="3.358" transform="translate(0 1.943)" fill="#fff"/>
                <path id="Path_1603" data-name="Path 1603" d="M-340.976,199.914h-.376v-1.5a1.105,1.105,0,0,0-1.1-1.1,1.105,1.105,0,0,0-1.1,1.1v1.5h-.377v-1.5a1.482,1.482,0,0,1,1.48-1.48,1.482,1.482,0,0,1,1.48,1.48Z" transform="translate(344.307 -196.935)" fill="#fff"/>
                <path id="Path_1604" data-name="Path 1604" d="M-340.7,204.913l.155.735h-.658l.155-.735a.328.328,0,0,1-.155-.277.328.328,0,0,1,.329-.329.328.328,0,0,1,.329.329A.329.329,0,0,1-340.7,204.913Z" transform="translate(342.706 -201.25)" fill="#c7c7c7"/>
              </g>
            </g>
          </g>
          <g id="Group_715" data-name="Group 715" transform="translate(0 62.795)">
            <g id="Group_714" data-name="Group 714">
              <rect id="Rectangle_204" data-name="Rectangle 204" width="36.596" height="50.644" transform="translate(1.773 1.879)" fill="#ebebeb"/>
              <rect id="Rectangle_205" data-name="Rectangle 205" width="40.142" height="1.879" fill="#dbdbdb"/>
              <rect id="Rectangle_206" data-name="Rectangle 206" width="12.624" height="1.879" transform="translate(40.142)" fill="#ebebeb"/>
              <rect id="Rectangle_207" data-name="Rectangle 207" width="12.399" height="50.644" transform="translate(38.369 1.879)" fill="#dbdbdb"/>
              <g id="Group_711" data-name="Group 711" transform="translate(5.707 9.083)">
                <path id="Path_1605" data-name="Path 1605" d="M-524.876,332.22H-553.6V315.978h28.728Zm-28.624-.1h28.521V316.082H-553.5Z" transform="translate(553.604 -315.978)" fill="#c7c7c7"/>
                <g id="Group_710" data-name="Group 710" transform="translate(10.356 4.75)">
                  <rect id="Rectangle_208" data-name="Rectangle 208" width="5.59" height="3.213" fill="#c7c7c7"/>
                  <path id="Path_1606" data-name="Path 1606" d="M-519.08,330.722h-5.694V327.89h5.694Zm-5.59-.1h5.487v-2.625h-5.487Z" transform="translate(526.374 -327.699)" fill="#c7c7c7"/>
                </g>
              </g>
              <g id="Group_713" data-name="Group 713" transform="translate(5.707 29.472)">
                <path id="Path_1607" data-name="Path 1607" d="M-524.876,381.381H-553.6V365.139h28.728Zm-28.624-.1h28.521V365.243H-553.5Z" transform="translate(553.604 -365.139)" fill="#c7c7c7"/>
                <g id="Group_712" data-name="Group 712" transform="translate(10.356 4.75)">
                  <rect id="Rectangle_209" data-name="Rectangle 209" width="5.59" height="3.213" fill="#c7c7c7"/>
                  <path id="Path_1608" data-name="Path 1608" d="M-519.08,379.883h-5.694v-2.832h5.694Zm-5.59-.1h5.487v-2.624h-5.487Z" transform="translate(526.374 -376.86)" fill="#c7c7c7"/>
                </g>
              </g>
            </g>
          </g>
        </g>
        <g id="Floor" transform="translate(3.421 133.077)">
          <path id="Path_1609" data-name="Path 1609" d="M-618.056,420.465l20.577-.1,20.577-.037,41.154-.069,41.154.069,20.577.036,20.577.1-20.577.1-20.577.036-41.154.069L-576.9,420.6l-20.577-.037Z" transform="translate(618.056 -420.258)" fill="#263238"/>
        </g>
        <g id="Shadows" transform="translate(6.521 140.643)">
          <g id="Group_716" data-name="Group 716" transform="translate(0)">
            <ellipse id="Ellipse_166" data-name="Ellipse 166" cx="18.366" cy="3.525" rx="18.366" ry="3.525" transform="translate(0 3.792)" fill="#ebebeb"/>
            <ellipse id="Ellipse_167" data-name="Ellipse 167" cx="71.756" cy="7.037" rx="71.756" ry="7.037" transform="translate(14.902)" fill="#ebebeb"/>
          </g>
        </g>
        <g id="Character" transform="translate(46.891 1.576)">
          <g id="Group_726" data-name="Group 726" transform="translate(54.237 16.262)">
            <g id="Group_719" data-name="Group 719" transform="translate(1.103 68.453)">
              <g id="Group_718" data-name="Group 718">
                <g id="Group_717" data-name="Group 717">
                  <path id="Path_1610" data-name="Path 1610" d="M-369.092,307.451-370.3,314.7l-8.189,44.225h-1.32l5.955-44.225.88-7.249Z" transform="translate(379.81 -307.451)" fill="#c7c7c7"/>
                </g>
              </g>
              <path id="Path_1611" data-name="Path 1611" d="M-364.572,307.451h3.883L-361.9,314.7h-3.554Z" transform="translate(371.407 -307.451)" fill="#a6a6a6"/>
            </g>
            <g id="Group_722" data-name="Group 722" transform="translate(26.82 68.453)">
              <g id="Group_721" data-name="Group 721">
                <g id="Group_720" data-name="Group 720">
                  <path id="Path_1612" data-name="Path 1612" d="M-307.085,358.924h-1.32l-8.189-44.225-1.209-7.249h3.883l.88,7.249Z" transform="translate(317.803 -307.451)" fill="#c7c7c7"/>
                </g>
              </g>
              <path id="Path_1613" data-name="Path 1613" d="M-313.92,307.451l.88,7.249h-3.554l-1.209-7.249Z" transform="translate(317.803 -307.451)" fill="#a6a6a6"/>
            </g>
            <g id="Group_725" data-name="Group 725" transform="translate(51.383 68.453)">
              <g id="Group_724" data-name="Group 724">
                <g id="Group_723" data-name="Group 723">
                  <path id="Path_1614" data-name="Path 1614" d="M-247.86,358.924h-1.32l-8.189-44.225-1.209-7.249h3.883l.88,7.249Z" transform="translate(258.578 -307.451)" fill="#c7c7c7"/>
                </g>
              </g>
              <path id="Path_1615" data-name="Path 1615" d="M-253.815,314.7h-3.554l-1.209-7.249h3.883Z" transform="translate(258.578 -307.451)" fill="#a6a6a6"/>
            </g>
            <path id="Path_1616" data-name="Path 1616" d="M-322.462,214.259H-382.47v-6.323h22.464l11.7-65.536h31.854Z" transform="translate(382.47 -142.4)" fill="#c7c7c7"/>
            <path id="Path_1617" data-name="Path 1617" d="M-322.718,300.418H-382.47v6.323h59.977Z" transform="translate(382.47 -234.882)" fill="#dbdbdb"/>
            <path id="Path_1618" data-name="Path 1618" d="M-242.4,214.259h-3.271l6.163-71.859h3.115Z" transform="translate(302.406 -142.4)" fill="#dbdbdb"/>
          </g>
          <g id="Group_777" data-name="Group 777" transform="translate(0)">
            <g id="Group_730" data-name="Group 730" transform="translate(96.666)">
              <g id="Group_728" data-name="Group 728">
                <path id="Path_1619" data-name="Path 1619" d="M-261.846,110.278a34.767,34.767,0,0,0-7.981-5.414c-1.587-.756-6.373-2.444-7.046-1.271s.682,1.791.682,1.791-2.129-.411-2.7.832,1.569,2.134,1.569,2.134-2.217-.263-2.7,1.018,1.822,1.816,1.822,1.816-2.016-.334-1.968.887c.058,1.469,3.844,1.666,5.556,2.59.389.21,7.579,4.815,7.579,4.815Z" transform="translate(280.166 -103.19)" fill="#eb9481"/>
                <g id="Group_727" data-name="Group 727" transform="translate(1.892 2.155)">
                  <path id="Path_1620" data-name="Path 1620" d="M-275.5,122.269a9.792,9.792,0,0,1,6.213,2.288c.044.031.1-.027.057-.063-2.05-1.756-3.446-2.658-6.27-2.359C-275.64,122.149-275.635,122.262-275.5,122.269Z" transform="translate(275.603 -116.4)" fill="#263238"/>
                  <path id="Path_1621" data-name="Path 1621" d="M-273.684,115.328a14.7,14.7,0,0,1,6.642,2.484c.035.021.074-.036.041-.06-2.3-1.666-3.71-2.534-6.639-2.566C-273.773,115.184-273.815,115.309-273.684,115.328Z" transform="translate(274.527 -112.366)" fill="#263238"/>
                  <path id="Path_1622" data-name="Path 1622" d="M-270.184,108.47a13.188,13.188,0,0,1,6.416,2.931.052.052,0,0,0,.069-.078,9.359,9.359,0,0,0-6.459-2.935C-270.332,108.375-270.357,108.433-270.184,108.47Z" transform="translate(272.5 -108.386)" fill="#263238"/>
                </g>
              </g>
              <g id="Group_729" data-name="Group 729" transform="translate(3.847 9.984)">
                <path id="Path_1623" data-name="Path 1623" d="M-260.394,135.351a34.186,34.186,0,0,1-4.944-.972c-1.479-.53-6.266-4.534-5.46-5.617,1.041-1.4,4.259.369,5.723,1.44,0,0,2.4-3.237,4.989-2.468S-260.394,135.351-260.394,135.351Z" transform="translate(270.89 -127.469)" fill="#eb9481"/>
                <path id="Path_1624" data-name="Path 1624" d="M-269.692,128.264c1.869-.59,3.7.94,5.2,1.873a.161.161,0,0,0,.248-.093c1.1-1.289,3.023-2.788,4.8-2.614a.041.041,0,0,0,.015-.08c-1.883-.445-3.895.873-5.008,2.362-1.52-.981-3.423-2.436-5.261-1.465A.01.01,0,0,0-269.692,128.264Z" transform="translate(270.196 -127.262)" fill="#263238"/>
              </g>
            </g>
            <g id="Group_739" data-name="Group 739" transform="translate(68.083 1.462)">
              <g id="Group_734" data-name="Group 734" transform="translate(13.065)">
                <g id="Group_732" data-name="Group 732" transform="translate(0.542)">
                  <path id="Path_1625" data-name="Path 1625" d="M-316.275,108.834a33.724,33.724,0,0,1,9.7-2.115c1.757-.046,6.816.357,6.955,1.7s-1.351,1.359-1.351,1.359,2.112.49,2.128,1.857-2.3,1.312-2.3,1.312,2.132.661,2.051,2.026-2.4.919-2.4.919,1.978.513,1.438,1.61c-.65,1.319-4.189-.04-6.129.108-.44.034-8.881,1.319-8.881,1.319Z" transform="translate(316.275 -106.716)" fill="#eb9481"/>
                  <g id="Group_731" data-name="Group 731" transform="translate(7.948 2.255)">
                    <path id="Path_1626" data-name="Path 1626" d="M-290.134,127.282a9.792,9.792,0,0,0-6.607-.435c-.053.01-.08-.066-.026-.081,2.586-.771,4.228-1.028,6.688.392C-289.959,127.227-290.01,127.328-290.134,127.282Z" transform="translate(296.927 -120.338)" fill="#263238"/>
                    <path id="Path_1627" data-name="Path 1627" d="M-289.557,120.375a14.7,14.7,0,0,0-7.078-.43c-.04,0-.053-.063-.013-.071,2.776-.589,4.42-.808,7.109.354C-289.418,120.281-289.43,120.412-289.557,120.375Z" transform="translate(296.855 -116.391)" fill="#263238"/>
                    <path id="Path_1628" data-name="Path 1628" d="M-289.991,112.909a13.19,13.19,0,0,0-7.054.07.052.052,0,0,1-.032-.1,9.359,9.359,0,0,1,7.094-.057C-289.816,112.882-289.817,112.945-289.991,112.909Z" transform="translate(297.111 -112.153)" fill="#263238"/>
                  </g>
                </g>
                <g id="Group_733" data-name="Group 733" transform="translate(0 5.938)">
                  <path id="Path_1629" data-name="Path 1629" d="M-317.581,128.457a34.178,34.178,0,0,0,4.913,1.121c1.567.117,7.568-1.6,7.272-2.913-.383-1.7-4.042-1.394-5.814-1.009,0,0-.881-3.935-3.555-4.283S-317.581,128.457-317.581,128.457Z" transform="translate(317.581 -121.225)" fill="#eb9481"/>
                  <path id="Path_1630" data-name="Path 1630" d="M-301.6,126.04c-1.468-1.3-3.762-.644-5.509-.4a.161.161,0,0,1-.189-.186c-.48-1.625-1.629-3.776-3.326-4.341a.041.041,0,0,1,.019-.08c1.9.358,3.2,2.381,3.615,4.193,1.788-.279,4.118-.834,5.4.8C-301.583,126.036-301.594,126.048-301.6,126.04Z" transform="translate(313.528 -121.033)" fill="#263238"/>
                </g>
              </g>
              <g id="Group_736" data-name="Group 736" transform="translate(0 1.827)">
                <g id="Group_735" data-name="Group 735">
                  <path id="Path_1631" data-name="Path 1631" d="M-325.936,136.87c-9.491-2.56-24.431-11.141-23.059-15.274,1.333-4.013,6.934-8.209,14.116-10.443,1.045-.325.812,1.867,1.312,5.689.237,1.81,3.412,6.681,1.879,6.672a6.31,6.31,0,0,0-2.323.518c-.559.214,6.171,4.708,9.934,7.529C-319.028,135.347-321.884,137.963-325.936,136.87Z" transform="translate(349.084 -111.121)" fill="#eb9481"/>
                </g>
              </g>
              <g id="Group_738" data-name="Group 738" transform="translate(9.451 18.082)">
                <path id="Path_1632" data-name="Path 1632" d="M-326.3,156.9l10.516-6.586s6.318,3.84,7.877,5.965.333,4.429-4.567,4.435C-318.09,160.72-326.3,156.9-326.3,156.9Z" transform="translate(326.296 -150.314)" fill="#ffc727"/>
                <g id="Group_737" data-name="Group 737" transform="translate(1.16 1.126)" opacity="0.1">
                  <path id="Path_1633" data-name="Path 1633" d="M-302.158,153.636h-5.462l.97-.606h3.575C-302.788,153.217-302.481,153.42-302.158,153.636Z" transform="translate(314.206 -153.03)"/>
                  <path id="Path_1634" data-name="Path 1634" d="M-303.866,158.436H-315.28l.966-.606h9.647C-304.4,158.033-304.128,158.236-303.866,158.436Z" transform="translate(318.689 -155.839)"/>
                  <path id="Path_1635" data-name="Path 1635" d="M-306.141,163.226H-322.93l.966-.606h15.246C-306.5,162.832-306.3,163.035-306.141,163.226Z" transform="translate(323.166 -158.643)"/>
                  <path id="Path_1636" data-name="Path 1636" d="M-305.633,168.026h-16.374c-.576-.224-1.083-.431-1.493-.605h17.788A2.06,2.06,0,0,1-305.633,168.026Z" transform="translate(323.5 -161.452)"/>
                  <path id="Path_1637" data-name="Path 1637" d="M-298.534,172.22a3.125,3.125,0,0,1-.834.6h-8.8c-.738-.182-1.468-.386-2.177-.6Z" transform="translate(315.804 -164.261)"/>
                </g>
                <path id="Path_1638" data-name="Path 1638" d="M-319.711,159.481c4.237-2.585,8.43-5.5,9.133-6.076.031-.026-.007-.07-.041-.054a91.47,91.47,0,0,0-9.13,6.078C-319.778,159.453-319.743,159.5-319.711,159.481Z" transform="translate(322.471 -152.09)" fill="#263238"/>
                <path id="Path_1639" data-name="Path 1639" d="M-301.563,166.143a23.941,23.941,0,0,1-6.1-.991c2.75-1.846,6.018-4.023,8.411-5.562A12.8,12.8,0,0,1-297,161.709C-295.438,163.833-296.665,166.139-301.563,166.143Z" transform="translate(315.389 -155.743)" fill="#263238"/>
              </g>
            </g>
            <g id="Group_755" data-name="Group 755" transform="translate(0 54.483)">
              <g id="Group_746" data-name="Group 746" transform="translate(46.039 0.075)">
                <g id="Group_743" data-name="Group 743" transform="translate(9.597 51.863)">
                  <path id="Path_1640" data-name="Path 1640" d="M-377.977,397.981c1.167.111,32.94-7.456,33.941-8.487a54.606,54.606,0,0,0-1.419-6.94l-.018-.078c-.573-2.5-9.828-22.69-9.828-22.69l-20.594,5.741,9.356,18.736s-3.876,2.8-7.2,5.455c0,.005-.008.007-.007.011a45.517,45.517,0,0,0-4.2,3.572C-378.915,394.541-379.142,397.879-377.977,397.981Z" transform="translate(378.902 -359.787)" fill="#eb9481"/>
                  <path id="Path_1641" data-name="Path 1641" d="M-377.977,418.41c1.164.112,32.937-7.456,33.942-8.484a55.344,55.344,0,0,0-1.421-6.941l-.019-.075c-.211-.93-1.636-4.324-3.333-8.213-3.389.911-15.538,4.193-19.951,5.558l2.216,4.441s-3.875,2.8-7.2,5.455c0,0,0,0,0,.009a45.815,45.815,0,0,0-4.2,3.571C-378.916,414.975-379.145,418.313-377.977,418.41Z" transform="translate(378.903 -380.218)" fill="#ebebeb"/>
                  <g id="Group_742" data-name="Group 742" transform="translate(0 19.004)">
                    <path id="Path_1642" data-name="Path 1642" d="M-378.275,424.949c1.2.1,33-7.551,34.024-8.609.392-.4-.311-5.416-2.052-10.733l-20.493,4.959s-10.466,8.284-11.469,9.566S-379.475,424.845-378.275,424.949Z" transform="translate(379.096 -405.608)" fill="#ffc727"/>
                    <g id="Group_741" data-name="Group 741" transform="translate(0.896 0.094)">
                      <g id="Group_740" data-name="Group 740" transform="translate(0 5.458)">
                        <path id="Path_1643" data-name="Path 1643" d="M-376.861,438.167c5.3-1.414,26.8-6.617,32.147-7.612.043-.008.051.021.008.033-5.221,1.516-26.766,6.545-32.134,7.666C-376.954,438.278-376.973,438.2-376.861,438.167Z" transform="translate(376.936 -425.76)" fill="#263238"/>
                        <path id="Path_1644" data-name="Path 1644" d="M-372.862,436.472a4.4,4.4,0,0,1,3.5.534,4.266,4.266,0,0,1,1.876,2.559c.007.032-.052.047-.064.015a5.089,5.089,0,0,0-5.3-3.041A.034.034,0,0,1-372.862,436.472Z" transform="translate(374.566 -429.134)" fill="#263238"/>
                        <path id="Path_1645" data-name="Path 1645" d="M-353.306,419.417a7.639,7.639,0,0,1,6.526,1.04c.068.055-.012.151-.083.133a30.362,30.362,0,0,0-6.417-.9A.138.138,0,0,1-353.306,419.417Z" transform="translate(363.167 -419.074)" fill="#263238"/>
                        <path id="Path_1646" data-name="Path 1646" d="M-356.9,421.921a7.64,7.64,0,0,1,6.526,1.04c.068.055-.012.151-.083.133a30.314,30.314,0,0,0-6.417-.9A.138.138,0,0,1-356.9,421.921Z" transform="translate(365.273 -420.539)" fill="#263238"/>
                        <path id="Path_1647" data-name="Path 1647" d="M-360.5,424.425a7.64,7.64,0,0,1,6.527,1.04c.068.055-.012.151-.083.133a30.333,30.333,0,0,0-6.417-.9A.138.138,0,0,1-360.5,424.425Z" transform="translate(367.379 -422.005)" fill="#263238"/>
                        <path id="Path_1648" data-name="Path 1648" d="M-364.1,426.929a7.64,7.64,0,0,1,6.527,1.04c.068.055-.012.151-.083.133a30.307,30.307,0,0,0-6.417-.9A.138.138,0,0,1-364.1,426.929Z" transform="translate(369.485 -423.47)" fill="#263238"/>
                        <path id="Path_1649" data-name="Path 1649" d="M-307.455,419.055a1.914,1.914,0,0,1,.885,3.723A1.914,1.914,0,0,1-307.455,419.055Z" transform="translate(337.1 -418.996)" fill="#263238"/>
                      </g>
                      <path id="Path_1650" data-name="Path 1650" d="M-361.564,409.586c1.509,1.208,3.488,1.721,5.26,2.406a.268.268,0,0,0,.342-.265.058.058,0,0,0,.052-.077,11.517,11.517,0,0,0-3.252-4.988c-.89-.769-2.461-1.317-3.325-.161C-363.3,407.593-362.445,408.88-361.564,409.586Zm-.524-1.743c-.347-2.372,2.177-1.093,2.81-.5a12.437,12.437,0,0,1,1.126,1.252,34.4,34.4,0,0,1,1.963,2.872c-.849-.39-1.725-.7-2.588-1.061C-359.807,409.977-361.9,409.15-362.088,407.842Z" transform="translate(368.672 -405.836)" fill="#263238"/>
                      <path id="Path_1651" data-name="Path 1651" d="M-339.663,410.613c-.5-1.352-2.164-1.271-3.235-.785a11.511,11.511,0,0,0-4.529,3.866.057.057,0,0,0,.028.088.268.268,0,0,0,.253.35c1.893-.156,3.937-.089,5.725-.821C-340.376,412.885-339.187,411.893-339.663,410.613Zm-4.661,2.7c-.93.1-1.858.153-2.783.287a34.52,34.52,0,0,1,2.695-2.2,12.36,12.36,0,0,1,1.433-.882c.775-.39,3.557-.9,2.554,1.274C-340.977,412.989-343.216,413.191-344.323,413.31Z" transform="translate(359.672 -407.983)" fill="#263238"/>
                    </g>
                  </g>
                </g>
                <g id="Group_745" data-name="Group 745">
                  <path id="Path_1652" data-name="Path 1652" d="M-382.1,308.635l21.867-5.854s-19.216-39.853-17.664-42.046c.776-1.1,21.27-2.021,27.627-7.747,8.257-7.438,2.248-18.25,2.248-18.25h-22.918s.418,4.781-.453,5.53c-.575.5-27.791,3.605-30.514,12.9C-405.244,264.569-382.1,308.635-382.1,308.635Z" transform="translate(402.235 -234.738)" fill="#263238"/>
                  <g id="Group_744" data-name="Group 744" transform="translate(19.719 64.978)">
                    <path id="Path_1653" data-name="Path 1653" d="M-354.654,397.123a13.735,13.735,0,0,1,1.795-.678c.635-.219,1.27-.441,1.909-.65,1.257-.411,2.518-.805,3.788-1.172,2.558-.737,5.12-1.461,7.7-2.13,1.343-.349,4.221-1.11,4.4-1.083.086.013.106.157.03.185-2.488.9-5.016,1.683-7.544,2.467s-5.051,1.559-7.61,2.218c-.709.183-1.422.345-2.133.52a16.006,16.006,0,0,1-2.265.5C-354.661,397.3-354.734,397.164-354.654,397.123Z" transform="translate(354.689 -391.409)" fill="#455a64"/>
                  </g>
                  <path id="Path_1654" data-name="Path 1654" d="M-353.632,261.18a3.492,3.492,0,0,1,1.712-.59q4.934-.977,9.866-1.959c3.078-.609,6.173-1.165,9.235-1.851a21.279,21.279,0,0,0,7.271-2.758,10.66,10.66,0,0,0,4.328-6.03,19.056,19.056,0,0,0,.358-7.574c-.077-.614-.209-1.225-.342-1.829-.01-.046.063-.064.073-.018.978,4.671,1.215,10.119-2.191,13.966a14.067,14.067,0,0,1-6.366,3.783,73.828,73.828,0,0,1-8.279,1.867q-4.934.977-9.868,1.951c-1.583.312-3.191.567-4.759.944a1.626,1.626,0,0,0-.85.407,1.235,1.235,0,0,0-.105,1.151c.182.775.415,1.54.661,2.3,1.988,6.111,15.932,35.057,16.309,35.723.04.07-.07.129-.112.06-3.193-5.318-13.586-27.665-15.761-33.437a36.92,36.92,0,0,1-1.435-4.5A1.546,1.546,0,0,1-353.632,261.18Z" transform="translate(373.999 -236.965)" fill="#455a64"/>
                </g>
              </g>
              <g id="Group_754" data-name="Group 754">
                <g id="Group_750" data-name="Group 750" transform="translate(0 60.037)">
                  <path id="Path_1655" data-name="Path 1655" d="M-512.424,410.209c1.089.435,33.708,2.1,34.959,1.392a54.675,54.675,0,0,0,.588-7.059l.165-3.807c.055-1.286,16.848-20,16.848-20l-23.411-1.416-14.318,20.941s-4.506,1.6-8.442,3.212c0,0-.009,0-.01.009a45.554,45.554,0,0,0-5.032,2.249C-512.358,406.645-513.514,409.784-512.424,410.209Z" transform="translate(513.018 -379.317)" fill="#eb9481"/>
                  <path id="Path_1656" data-name="Path 1656" d="M-472.436,416.132c-2.437,2.9-4.259,5.2-4.277,5.619l-.168,3.808a54.669,54.669,0,0,1-.586,7.061c-1.251.706-33.87-.959-34.96-1.392s.066-3.567,1.351-4.483a46.291,46.291,0,0,1,5.028-2.249s.009,0,.013-.008c3.934-1.616,8.441-3.211,8.441-3.211l4.136-6.049Z" transform="translate(513.018 -400.334)" fill="#ebebeb"/>
                  <g id="Group_749" data-name="Group 749" transform="translate(0 14.597)">
                    <path id="Path_1657" data-name="Path 1657" d="M-512.792,439.156c1.123.438,33.788,2.025,35.072,1.3.489-.273,1.223-5.286,1.046-10.877l-21.06-1s-12.372,5.01-13.7,5.958S-513.914,438.719-512.792,439.156Z" transform="translate(513.243 -422.745)" fill="#ffc727"/>
                    <g id="Group_748" data-name="Group 748" transform="translate(0.894)">
                      <g id="Group_747" data-name="Group 747" transform="translate(0 6.299)">
                        <path id="Path_1658" data-name="Path 1658" d="M-511,450.986c5.482.131,27.581,1.18,32.991,1.727.044,0,.042.034,0,.034-5.436-.012-27.527-1.24-32.993-1.672C-511.118,451.066-511.114,450.983-511,450.986Z" transform="translate(511.087 -442.158)" fill="#263238"/>
                        <path id="Path_1659" data-name="Path 1659" d="M-503.716,440.358a4.4,4.4,0,0,1,3.211,1.5,4.266,4.266,0,0,1,1.082,2.983c0,.033-.063.031-.066,0a5.088,5.088,0,0,0-4.229-4.407A.034.034,0,0,1-503.716,440.358Z" transform="translate(506.793 -435.938)" fill="#263238"/>
                        <path id="Path_1660" data-name="Path 1660" d="M-480.257,429.7a7.642,7.642,0,0,1,5.971,2.832c.049.072-.054.141-.117.1a30.341,30.341,0,0,0-5.905-2.668A.138.138,0,0,1-480.257,429.7Z" transform="translate(493.128 -429.701)" fill="#263238"/>
                        <path id="Path_1661" data-name="Path 1661" d="M-484.414,431.093a7.64,7.64,0,0,1,5.971,2.832c.049.072-.054.141-.117.1a30.323,30.323,0,0,0-5.906-2.668A.138.138,0,0,1-484.414,431.093Z" transform="translate(495.56 -430.515)" fill="#263238"/>
                        <path id="Path_1662" data-name="Path 1662" d="M-488.571,432.485a7.641,7.641,0,0,1,5.971,2.832c.05.072-.054.141-.117.1a30.337,30.337,0,0,0-5.906-2.668A.138.138,0,0,1-488.571,432.485Z" transform="translate(497.993 -431.33)" fill="#263238"/>
                        <path id="Path_1663" data-name="Path 1663" d="M-492.727,433.877a7.64,7.64,0,0,1,5.971,2.832c.05.072-.053.141-.117.1a30.341,30.341,0,0,0-5.905-2.668A.138.138,0,0,1-492.727,433.877Z" transform="translate(500.426 -432.145)" fill="#263238"/>
                        <path id="Path_1664" data-name="Path 1664" d="M-436.828,442.442a1.914,1.914,0,0,1-.2,3.821A1.914,1.914,0,0,1-436.828,442.442Z" transform="translate(468.766 -437.156)" fill="#263238"/>
                      </g>
                      <path id="Path_1665" data-name="Path 1665" d="M-485.985,418.069c1.108,1.583,2.864,2.632,4.372,3.787a.268.268,0,0,0,.4-.158.058.058,0,0,0,.071-.059,11.515,11.515,0,0,0-1.719-5.7c-.637-.988-1.992-1.955-3.145-1.089C-487.1,415.667-486.633,417.145-485.985,418.069Zm-.013-1.821c.334-2.374,2.4-.438,2.837.309a12.338,12.338,0,0,1,.729,1.518,34.405,34.405,0,0,1,1.078,3.308c-.706-.613-1.458-1.16-2.186-1.746C-484.409,418.938-486.183,417.557-486,416.249Z" transform="translate(496.79 -414.512)" fill="#263238"/>
                      <path id="Path_1666" data-name="Path 1666" d="M-466.214,426.841c-.1-1.439-1.72-1.828-2.884-1.662a11.515,11.515,0,0,0-5.433,2.438.057.057,0,0,0,0,.092.268.268,0,0,0,.145.408c1.861.382,3.8,1.021,5.725.821C-467.537,428.821-466.118,428.2-466.214,426.841Zm-5.231,1.278c-.92-.165-1.826-.375-2.751-.507a34.383,34.383,0,0,1,3.2-1.354,12.358,12.358,0,0,1,1.624-.444c.853-.156,3.667.132,2.093,1.94C-468.143,428.752-470.349,428.317-471.445,428.12Z" transform="translate(489.716 -420.734)" fill="#263238"/>
                    </g>
                  </g>
                </g>
                <g id="Group_753" data-name="Group 753" transform="translate(14.428)">
                  <path id="Path_1667" data-name="Path 1667" d="M-478.456,311.258l26.155,3.2s25.869-30.948,27.958-33.008c6.479-6.389,29.706-17.405,36.635-27.663,6.223-9.212-.08-19.051-.08-19.051h-25.538a52.628,52.628,0,0,0,2.6,7.965s-21.211,15.971-32.52,27.387C-450.53,277.442-478.456,311.258-478.456,311.258Z" transform="translate(478.456 -234.661)" fill="#263238"/>
                  <g id="Group_752" data-name="Group 752" transform="translate(5.68)">
                    <path id="Path_1668" data-name="Path 1668" d="M-326.235,250.043a12.222,12.222,0,0,1,2.183.629c.741.258,1.472.553,2.187.876a42.9,42.9,0,0,1,4.1,2.164c.042.025,0,.083-.038.062-1.4-.676-2.846-1.279-4.293-1.852l-2.087-.827a22.057,22.057,0,0,1-2.112-.86C-326.38,250.189-326.337,250.028-326.235,250.043Z" transform="translate(383.749 -243.62)" fill="#455a64"/>
                    <path id="Path_1669" data-name="Path 1669" d="M-323.147,234.637c.327,1.156.618,2.322.985,3.467.168.525.335,1.059.55,1.567.182.428.453.916.957,1,.581.095.732-.406.671-.882-.068-.532-.221-1.062-.341-1.583-.139-.6-.819-3.521-.822-3.538-.008-.046-.007-.055.026-.088a.045.045,0,0,1,.053-.005,25.445,25.445,0,0,1,.975,2.858c.158.557.312,1.114.467,1.672a2.633,2.633,0,0,1,.151,1.291.987.987,0,0,1-.893.772c.022.038.046.073.065.112.054.113.1.234.142.35s.091.238.13.361a1.1,1.1,0,0,1,.039.179c.01.068,0,.134.008.2a.1.1,0,0,1-.179.07c-.032-.059-.078-.1-.114-.16a1.062,1.062,0,0,1-.089-.192c-.043-.115-.08-.231-.113-.349s-.073-.234-.1-.353c-.015-.071-.02-.143-.028-.214a1.336,1.336,0,0,1-.679-.236,2.249,2.249,0,0,1-.727-1.043c-.19-.48-.341-.978-.493-1.471a21.89,21.89,0,0,1-.853-3.731A.108.108,0,0,1-323.147,234.637Z" transform="translate(382.003 -234.557)" fill="#455a64"/>
                    <path id="Path_1670" data-name="Path 1670" d="M-286.22,240.476c.122.575.207,1.157.357,1.726s.316,1.113.516,1.653a5.95,5.95,0,0,0,.755,1.48,5.629,5.629,0,0,0,1.165,1.118,9.682,9.682,0,0,0,2.78,1.442,12.8,12.8,0,0,0,1.533.4q.406.078.817.118a1.717,1.717,0,0,1,.659.132.132.132,0,0,1-.006.227,2.365,2.365,0,0,1-1.209.074,8.854,8.854,0,0,1-1.3-.189,9.372,9.372,0,0,1-2.473-.957,7.708,7.708,0,0,1-2.092-1.61,5.8,5.8,0,0,1-1.163-2.362,11.813,11.813,0,0,1-.452-3.241A.057.057,0,0,1-286.22,240.476Z" transform="translate(360.334 -237.997)" fill="#455a64"/>
                    <g id="Group_751" data-name="Group 751" transform="translate(0 72.736)">
                      <path id="Path_1671" data-name="Path 1671" d="M-464.693,409.949a16.66,16.66,0,0,1,2.114.085c.739.049,1.48.1,2.219.156,1.455.117,2.906.253,4.356.417,2.918.332,5.836.677,8.746,1.079,1.517.209,4.772.645,4.944.74a.1.1,0,0,1-.046.181c-2.917-.15-5.822-.432-8.729-.707s-5.806-.56-8.694-.963c-.8-.112-1.6-.243-2.395-.364a19.56,19.56,0,0,1-2.52-.436C-464.775,410.113-464.792,409.955-464.693,409.949Z" transform="translate(464.762 -409.936)" fill="#455a64"/>
                    </g>
                    <path id="Path_1672" data-name="Path 1672" d="M-353.3,333c-1.356.869-2.666,1.807-3.982,2.735a38.006,38.006,0,0,0-3.609,2.672,18.807,18.807,0,0,0-1.594,1.7l-1.56,1.8q-1.561,1.8-3.1,3.624-.871,1.029-1.732,2.067c-.6.719-1.151,1.474-1.753,2.189-.037.044.027.107.065.063,1.065-1.2,2.189-2.346,3.251-3.55s2.126-2.407,3.174-3.624c1.011-1.173,1.988-2.394,3.064-3.509a24.689,24.689,0,0,1,3.575-2.8c1.454-1.035,2.919-2.056,4.326-3.155C-353.051,333.115-353.164,332.915-353.3,333Z" transform="translate(409.675 -292.161)" fill="#455a64"/>
                    <path id="Path_1673" data-name="Path 1673" d="M-360.884,254.387c-4.361,3.06-8.876,6.482-12.975,9.882s-8.162,6.865-12.129,10.428q-1.667,1.5-3.3,3.028c-1.1,1.032-2.182,2.318-3.285,3.348-.06.056.032.141.092.087,1.993-1.788,4.057-3.732,6.076-5.492s4.022-3.482,6.043-5.212q6.089-5.214,12.329-10.25c2.308-1.87,5-3.76,7.258-5.689C-360.706,254.455-360.806,254.332-360.884,254.387Z" transform="translate(422.526 -246.155)" fill="#455a64"/>
                    <path id="Path_1674" data-name="Path 1674" d="M-349.57,238.893c-.249-.736-.514-1.466-.787-2.193-.016-.043-.083-.023-.068.021a33.143,33.143,0,0,1,2.191,9.38,12.15,12.15,0,0,1-.664,4.568,11.922,11.922,0,0,1-2.33,3.8,45.78,45.78,0,0,1-7.057,5.93q-3.979,2.984-8.087,5.791c-2.732,1.877-5.531,3.661-8.358,5.392-2.8,1.717-5.692,3.289-8.5,4.989a22.684,22.684,0,0,0-3.806,2.823,48.283,48.283,0,0,0-3.293,3.538q-3.407,3.9-6.755,7.848-6.708,7.891-13.158,16-.789.993-1.576,1.989c-.026.032.02.077.047.045q6.635-8.126,13.414-16.135,3.371-3.976,6.777-7.922c2.174-2.511,4.269-5.177,7.036-7.068,1.34-.915,2.768-1.69,4.177-2.491q2.205-1.255,4.38-2.562,4.32-2.6,8.509-5.406c2.775-1.857,5.513-3.764,8.2-5.75q2.013-1.489,3.99-3.025a38.889,38.889,0,0,0,3.283-2.777,14.768,14.768,0,0,0,2.629-3.313,10.915,10.915,0,0,0,1.308-4.2A22.072,22.072,0,0,0-349.57,238.893Z" transform="translate(433.783 -235.797)" fill="#455a64"/>
                  </g>
                </g>
              </g>
            </g>
            <g id="Group_757" data-name="Group 757" transform="translate(75.421 22.05)">
              <path id="Path_1675" data-name="Path 1675" d="M-331.384,193.364c.455.872,32.369,8.244,32.574,8.1.553-.4,2.384-29.62-6.032-42.683-1.483-2.3-5.083-2.727-6.934-2.248-.925.24-4.728,3.48-6.47,6.72S-331.669,192.811-331.384,193.364Z" transform="translate(331.39 -156.356)" fill="#ffc727"/>
              <g id="Group_756" data-name="Group 756" transform="translate(0 0.611)" opacity="0.1">
                <path id="Path_1676" data-name="Path 1676" d="M-280.595,158.436h-7.345c.29-.241.56-.444.8-.606h5.454A5.307,5.307,0,0,1-280.595,158.436Z" transform="translate(305.961 -157.83)"/>
                <path id="Path_1677" data-name="Path 1677" d="M-281.921,163.226H-293.04c.195-.212.394-.411.589-.606h10.161C-282.161,162.819-282.041,163.018-281.921,163.226Z" transform="translate(308.946 -160.633)"/>
                <path id="Path_1678" data-name="Path 1678" d="M-283.226,168.026H-297.07c.149-.207.307-.406.465-.605h13.081C-283.421,167.619-283.326,167.822-283.226,168.026Z" transform="translate(311.304 -163.443)"/>
                <path id="Path_1679" data-name="Path 1679" d="M-284.112,172.821H-300.05c.054-.108.1-.2.145-.286.058-.1.116-.212.178-.315h15.37C-284.273,172.419-284.19,172.618-284.112,172.821Z" transform="translate(313.048 -166.252)"/>
                <path id="Path_1680" data-name="Path 1680" d="M-284.754,177.616H-302.38c.1-.216.2-.415.286-.606h17.133C-284.89,177.209-284.82,177.412-284.754,177.616Z" transform="translate(314.412 -169.055)"/>
                <path id="Path_1681" data-name="Path 1681" d="M-285.439,182.416H-304.6c.1-.207.187-.411.278-.606h18.7C-285.555,182.009-285.5,182.212-285.439,182.416Z" transform="translate(315.711 -171.865)"/>
                <path id="Path_1682" data-name="Path 1682" d="M-286.2,187.206H-306.79c.091-.207.182-.406.274-.606h20.169C-286.3,186.8-286.248,187-286.2,187.206Z" transform="translate(316.993 -174.668)"/>
                <path id="Path_1683" data-name="Path 1683" d="M-287.022,192.006H-308.97c.091-.2.187-.406.274-.606h21.541C-287.109,191.6-287.063,191.8-287.022,192.006Z" transform="translate(318.269 -177.477)"/>
                <path id="Path_1684" data-name="Path 1684" d="M-287.9,196.805H-311.12c.091-.2.178-.406.27-.605h22.844C-287.969,196.4-287.932,196.6-287.9,196.805Z" transform="translate(319.527 -180.286)"/>
                <path id="Path_1685" data-name="Path 1685" d="M-288.815,201.6H-313.26c.091-.2.178-.406.27-.606h24.076C-288.882,201.189-288.848,201.392-288.815,201.6Z" transform="translate(320.78 -183.09)"/>
                <path id="Path_1686" data-name="Path 1686" d="M-289.784,206.4H-315.39c.087-.2.178-.4.265-.606h25.262C-289.834,205.993-289.809,206.192-289.784,206.4Z" transform="translate(322.026 -185.899)"/>
                <path id="Path_1687" data-name="Path 1687" d="M-290.778,211.186H-317.5c.087-.2.174-.4.265-.606h26.386C-290.824,210.783-290.8,210.982-290.778,211.186Z" transform="translate(323.261 -188.703)"/>
                <path id="Path_1688" data-name="Path 1688" d="M-291.812,215.986H-319.6c.083-.2.174-.4.261-.606h27.468C-291.85,215.583-291.833,215.782-291.812,215.986Z" transform="translate(324.49 -191.512)"/>
                <path id="Path_1689" data-name="Path 1689" d="M-292.878,220.786H-321.69c.083-.2.174-.4.261-.606h28.5C-292.907,220.383-292.891,220.582-292.878,220.786Z" transform="translate(325.713 -194.321)"/>
                <path id="Path_1690" data-name="Path 1690" d="M-293.965,225.576H-323.76c.083-.2.17-.4.257-.606H-294C-293.986,225.173-293.978,225.376-293.965,225.576Z" transform="translate(326.925 -197.124)"/>
                <path id="Path_1691" data-name="Path 1691" d="M-295.078,230.376H-325.81c.083-.2.17-.4.257-.606H-295.1C-295.09,229.973-295.082,230.176-295.078,230.376Z" transform="translate(328.125 -199.934)"/>
                <path id="Path_1692" data-name="Path 1692" d="M-296.192,235.166H-327.82c.083-.195.166-.4.253-.606H-296.2C-296.2,234.763-296.2,234.966-296.192,235.166Z" transform="translate(329.301 -202.737)"/>
                <path id="Path_1693" data-name="Path 1693" d="M-297.3,239.965H-329.76c.07-.191.153-.394.236-.606h32.217C-297.3,239.563-297.3,239.766-297.3,239.965Z" transform="translate(330.436 -205.546)"/>
                <path id="Path_1694" data-name="Path 1694" d="M-298.257,244.16c0,.2,0,.406,0,.606h-33.117s0-.008-.008-.012a1.643,1.643,0,0,1,.149-.593Z" transform="translate(331.391 -208.356)"/>
                <path id="Path_1695" data-name="Path 1695" d="M-292.236,248.95c0,.207-.012.406-.017.606h-26.527c-.817-.212-1.58-.415-2.281-.606Z" transform="translate(325.345 -211.159)"/>
                <path id="Path_1696" data-name="Path 1696" d="M-281.3,253.75c-.008.207-.017.411-.025.606h-18.464c-.834-.2-1.663-.4-2.476-.606Z" transform="translate(314.348 -213.968)"/>
                <path id="Path_1697" data-name="Path 1697" d="M-269.76,258.54c-.017.212-.029.415-.046.606h-9.962c-.838-.195-1.709-.4-2.592-.606Z" transform="translate(302.695 -216.772)"/>
                <path id="Path_1698" data-name="Path 1698" d="M-257.742,263.34a3.944,3.944,0,0,1-.108.606h-.846c-.622-.124-1.588-.336-2.8-.606Z" transform="translate(290.486 -219.581)"/>
              </g>
            </g>
            <g id="Group_762" data-name="Group 762" transform="translate(96.564 6.493)">
              <g id="Group_758" data-name="Group 758" transform="translate(0.404)">
                <path id="Path_1699" data-name="Path 1699" d="M-275.877,143.546c5.737-.466,15.242-2.522,20.413-5.407a6.671,6.671,0,0,0,3.732-5.683c.413-4.208-6.6-11.033-10.278-13.579-.487-.337-1.193,2.137-3.422,4.912-1.888,2.351-5.446,5-4.909,5.457.785.664,4.439,3.18,4.266,3.484-.3.519-3.687,1.955-8.763,4.415C-281.646,140.444-279.942,143.876-275.877,143.546Z" transform="translate(279.439 -118.847)" fill="#eb9481"/>
              </g>
              <g id="Group_761" data-name="Group 761" transform="translate(0 15.513)">
                <path id="Path_1700" data-name="Path 1700" d="M-261.358,163.815l-9.836-7.564s-6.657,3.217-8.413,5.183-.756,4.377,4.121,4.852C-269.893,166.831-261.358,163.815-261.358,163.815Z" transform="translate(280.413 -156.251)" fill="#ffc727"/>
                <g id="Group_759" data-name="Group 759" transform="translate(7.213 0.849)">
                  <path id="Path_1701" data-name="Path 1701" d="M-252.484,165.252c-3.714-3.292-7.737-6.443-8.488-6.948-.034-.023-.065.027-.04.054a91.382,91.382,0,0,0,8.49,6.945C-252.491,165.324-252.456,165.276-252.484,165.252Z" transform="translate(261.851 -158.298)" fill="#263238"/>
                  <path id="Path_1702" data-name="Path 1702" d="M-259.617,178.593a5.321,5.321,0,0,0-2.058.832,4.091,4.091,0,0,0-.8.77,3.231,3.231,0,0,0-.314.451,3.167,3.167,0,0,0-.235.47c-.013.037.039.059.063.035.12-.121.219-.26.341-.381s.238-.249.364-.367a9.083,9.083,0,0,1,.818-.685,5.976,5.976,0,0,1,1.846-1.029C-259.525,178.671-259.554,178.579-259.617,178.593Z" transform="translate(263.022 -170.175)" fill="#263238"/>
                </g>
                <g id="Group_760" data-name="Group 760" transform="translate(0.001 0.655)" opacity="0.1">
                  <path id="Path_1703" data-name="Path 1703" d="M-260.022,158.436h-4.1c.423-.224.813-.431,1.153-.606h2.157Z" transform="translate(270.877 -157.83)"/>
                  <path id="Path_1704" data-name="Path 1704" d="M-262.284,163.226H-272.4c.315-.2.647-.406.979-.606h8.349Z" transform="translate(275.723 -160.633)"/>
                  <path id="Path_1705" data-name="Path 1705" d="M-263.313,168.026H-278.58a.524.524,0,0,1,.046-.054,5.84,5.84,0,0,1,.581-.552H-264.1Z" transform="translate(279.339 -163.443)"/>
                  <path id="Path_1706" data-name="Path 1706" d="M-261.8,172.821h-18.6a1.959,1.959,0,0,1,.025-.6h17.792Z" transform="translate(280.411 -166.252)"/>
                  <path id="Path_1707" data-name="Path 1707" d="M-263.7,177.01c-.738.2-1.564.411-2.439.606h-11.5a4.167,4.167,0,0,1-.908-.606Z" transform="translate(279.322 -169.055)"/>
                </g>
              </g>
            </g>
            <g id="Group_776" data-name="Group 776" transform="translate(89.128 1.09)">
              <g id="Group_764" data-name="Group 764" transform="translate(4.201 15.924)">
                <g id="Group_763" data-name="Group 763" transform="translate(0 0.001)">
                  <path id="Path_1708" data-name="Path 1708" d="M-287.361,154.822c1.643.69,5.014-1.434,6.526-3.358.1-.132.47-6.041.664-7.2.041-.239-7.591.555-7.591.555a18.8,18.8,0,0,1-.041,4.584C-287.834,149.569-288.948,154.155-287.361,154.822Z" transform="translate(288.212 -144.216)" fill="#eb9481"/>
                </g>
                <path id="Path_1709" data-name="Path 1709" d="M-287.574,149.866c-.005.023-.016.049-.022.076l.037.009a4.174,4.174,0,0,0,.707.16c3.983.571,6.133-4.081,6.817-5.9-1.262-.036-7.368.6-7.368.6a18.662,18.662,0,0,1-.04,4.582c-.008.056-.02.111-.031.161A1.814,1.814,0,0,1-287.574,149.866Z" transform="translate(287.851 -144.213)" fill="#263238"/>
              </g>
              <g id="Group_775" data-name="Group 775">
                <path id="Path_1710" data-name="Path 1710" d="M-294,112.873a5.187,5.187,0,0,0-2.97,3.515,10.322,10.322,0,0,0,.282,5.29C-296.468,121.81-294,112.873-294,112.873Z" transform="translate(297.649 -109.947)" fill="#263238"/>
                <g id="Group_765" data-name="Group 765" transform="translate(0.676 2.426)">
                  <path id="Path_1711" data-name="Path 1711" d="M-284.077,115.924c.8,2.624-.6,10.2-2.473,11.883-2.709,2.444-7.137,2.669-9.211-.585-2.011-3.155-.012-12.993,2.074-14.524C-290.613,110.444-285.251,112.048-284.077,115.924Z" transform="translate(296.642 -111.667)" fill="#eb9481"/>
                  <path id="Path_1712" data-name="Path 1712" d="M-296.366,128.866a11.747,11.747,0,0,0-.289,2.115c-.053.733-.06,1.466-.054,2.2,0,.042.065.039.065,0,0-.722.051-1.443.113-2.162s.176-1.43.217-2.146C-296.313,128.841-296.359,128.839-296.366,128.866Z" transform="translate(296.711 -121.722)" fill="#263238"/>
                </g>
                <path id="Path_1713" data-name="Path 1713" d="M-271.922,150.4s0,0,0,0" transform="translate(282.879 -131.911)" fill="none" stroke="#f5a79e" stroke-linecap="round" stroke-linejoin="round" stroke-width="0"/>
                <g id="Group_771" data-name="Group 771" transform="translate(1.562 8.397)">
                  <g id="Group_766" data-name="Group 766" transform="translate(4.017 2.406)">
                    <path id="Path_1714" data-name="Path 1714" d="M-284.758,132.952c.007-.019.036.031.031.052-.108.508-.146,1.107.285,1.36.013.008.007.033-.01.028C-285,134.211-284.942,133.415-284.758,132.952Z" transform="translate(284.888 -132.499)" fill="#263238"/>
                    <path id="Path_1715" data-name="Path 1715" d="M-284.151,131.867c.832.085.6,1.744-.17,1.665S-284.848,131.8-284.151,131.867Z" transform="translate(284.832 -131.865)" fill="#263238"/>
                  </g>
                  <g id="Group_767" data-name="Group 767" transform="translate(0.121 1.926)">
                    <path id="Path_1716" data-name="Path 1716" d="M-292.5,132.18c0-.02-.044.019-.046.04-.056.516-.206,1.1-.695,1.2-.015,0-.017.029,0,.029C-292.667,133.452-292.475,132.678-292.5,132.18Z" transform="translate(293.682 -131.566)" fill="#263238"/>
                    <path id="Path_1717" data-name="Path 1717" d="M-293.488,130.721c-.818-.178-1.114,1.47-.357,1.635S-292.8,130.87-293.488,130.721Z" transform="translate(294.282 -130.708)" fill="#263238"/>
                  </g>
                  <path id="Path_1718" data-name="Path 1718" d="M-283.106,128.452a6.533,6.533,0,0,1-.611-.316,1.113,1.113,0,0,1-.562-.441.354.354,0,0,1,.116-.416.877.877,0,0,1,.889.033,1.289,1.289,0,0,1,.659.655A.378.378,0,0,1-283.106,128.452Z" transform="translate(288.565 -126.711)" fill="#263238"/>
                  <path id="Path_1719" data-name="Path 1719" d="M-294.184,127.078A6.49,6.49,0,0,0-293.5,127a1.11,1.11,0,0,0,.681-.214.353.353,0,0,0,.039-.43.878.878,0,0,0-.843-.285,1.289,1.289,0,0,0-.849.379A.378.378,0,0,0-294.184,127.078Z" transform="translate(294.574 -126.064)" fill="#263238"/>
                  <path id="Path_1720" data-name="Path 1720" d="M-286.167,144.637c-.14.1-.286.252-.474.241a1.371,1.371,0,0,1-.534-.207.018.018,0,0,0-.026.023.7.7,0,0,0,.613.37.552.552,0,0,0,.467-.4C-286.109,144.638-286.147,144.622-286.167,144.637Z" transform="translate(290.26 -136.931)" fill="#263238"/>
                  <g id="Group_769" data-name="Group 769" transform="translate(0.832 0.204)">
                    <g id="Group_768" data-name="Group 768">
                      <path id="Path_1721" data-name="Path 1721" d="M-289.632,132.444a1.766,1.766,0,0,1-1.277.615,2.225,2.225,0,0,1-.633-.059.618.618,0,0,1-.118-.031c-.037-.01-.07-.019-.11-.033a.129.129,0,0,1-.087-.129v0a.227.227,0,0,1,.012-.052v0l.007-.045c.044-.4.167-.993.167-.993-.155.052-.938.281-.9.076a26.582,26.582,0,0,1,1.418-5.2.048.048,0,0,1,.092.026c-.263,1.644-.814,3.23-1.1,4.876a3.1,3.1,0,0,1,.861-.135c.054.024-.257,1.148-.263,1.328a.065.065,0,0,0,0,.019,2.449,2.449,0,0,0,1.889-.309C-289.632,132.367-289.6,132.408-289.632,132.444Z" transform="translate(292.569 -126.555)" fill="#263238"/>
                    </g>
                  </g>
                  <g id="Group_770" data-name="Group 770" transform="translate(2.12 6.079)">
                    <path id="Path_1722" data-name="Path 1722" d="M-289.463,141.122a2.1,2.1,0,0,0,.741.76.943.943,0,0,0,.562.114c.425-.051.488-.426.458-.758a2.244,2.244,0,0,0-.115-.519A2.714,2.714,0,0,1-289.463,141.122Z" transform="translate(289.463 -140.72)" fill="#263238"/>
                    <path id="Path_1723" data-name="Path 1723" d="M-287.676,142.614a.943.943,0,0,0,.562.114c.425-.051.488-.426.458-.758A.974.974,0,0,0-287.676,142.614Z" transform="translate(288.417 -141.451)" fill="#ff98b9"/>
                  </g>
                </g>
                <g id="Group_772" data-name="Group 772" transform="translate(2.133)">
                  <path id="Path_1724" data-name="Path 1724" d="M-282.7,118.643c-.868.125-1.432-2.516-1.552-3.516-.106-.881.039-3.6.027-3.791s-3.982,1.805-5.975.869-3.1-3.029-2.988-3.909,3.047-2.695,5.309-2.457,4.853,3.563,4.853,3.563a10.572,10.572,0,0,1-.788-1.489A2.487,2.487,0,0,1-282.3,109.7s-.084-1.341.029-1.348,1.067,1.279.681,2.081a4.489,4.489,0,0,1,1.054,2.588C-280.609,114.276-281.681,118.5-282.7,118.643Z" transform="translate(293.197 -105.818)" fill="#263238"/>
                  <path id="Path_1725" data-name="Path 1725" d="M-289.408,118.251a7.083,7.083,0,0,0,1.863,1.014,4.76,4.76,0,0,0,2.308-.009,7.2,7.2,0,0,0,2.158-.86c.589-.348,1.134-.795,1.751-1.091.154-.074.285.152.179.268a7.6,7.6,0,0,1-4.225,2.2,4.361,4.361,0,0,1-4.043-1.5C-289.424,118.259-289.417,118.245-289.408,118.251Z" transform="translate(290.986 -112.533)" fill="#263238"/>
                </g>
                <g id="Group_773" data-name="Group 773" transform="translate(0 8.683)">
                  <path id="Path_1726" data-name="Path 1726" d="M-286.138,132.739a2.223,2.223,0,0,1-1.568-2.72h0a2.223,2.223,0,0,1,2.721-1.568,2.223,2.223,0,0,1,1.568,2.721,2.224,2.224,0,0,1-2.174,1.644A2.227,2.227,0,0,1-286.138,132.739Zm-1.281-2.644a1.926,1.926,0,0,0,1.358,2.357,1.926,1.926,0,0,0,2.357-1.358,1.926,1.926,0,0,0-1.359-2.357,1.926,1.926,0,0,0-.473-.066A1.927,1.927,0,0,0-287.419,130.1Z" transform="translate(292.161 -127.702)" fill="#ffc727"/>
                  <path id="Path_1727" data-name="Path 1727" d="M-296.965,131.169a2,2,0,0,1-1.35-2.416,2.651,2.651,0,0,1,.667-1.478,1.466,1.466,0,0,1,1.261-.509,1.47,1.47,0,0,1,1.087.816,2.652,2.652,0,0,1,.264,1.6,2.071,2.071,0,0,1-1.782,2A1.328,1.328,0,0,1-296.965,131.169Zm-.468-3.69a2.354,2.354,0,0,0-.588,1.313c-.138,1.051.353,1.986,1.095,2.083s1.457-.679,1.595-1.731a2.356,2.356,0,0,0-.23-1.42,1.184,1.184,0,0,0-.865-.664.931.931,0,0,0-.112-.008A1.224,1.224,0,0,0-297.433,127.478Z" transform="translate(298.341 -126.754)" fill="#ffc727"/>
                  <path id="Path_1728" data-name="Path 1728" d="M-289.5,131.963l.219-.2a1.213,1.213,0,0,0-1.633-.3l.189.229C-290.173,131.241-289.523,131.933-289.5,131.963Z" transform="translate(293.992 -129.382)" fill="#ffc727"/>
                  <path id="Path_1729" data-name="Path 1729" d="M-271.956,134.754l.279-.1c-.047-.13-.478-1.277-1.121-1.47-.6-.179-4.6-.326-4.765-.331l-.011.3c1.145.041,4.226.18,4.69.319C-272.459,133.595-272.07,134.44-271.956,134.754Z" transform="translate(286.187 -130.323)" fill="#ffc727"/>
                </g>
                <g id="Group_774" data-name="Group 774" transform="translate(11.129 10.93)">
                  <path id="Path_1730" data-name="Path 1730" d="M-271.025,134.155s1.767-2.412,2.865-1.777-.268,4.157-1.583,4.614a1.327,1.327,0,0,1-1.762-.752Z" transform="translate(271.506 -132.23)" fill="#eb9481"/>
                  <path id="Path_1731" data-name="Path 1731" d="M-267.566,134.94c.021,0,.024.028.006.035a3.355,3.355,0,0,0-1.78,2.06.733.733,0,0,1,1.1-.176c.023.017,0,.054-.026.049a.816.816,0,0,0-.9.265,3.962,3.962,0,0,0-.446.717c-.044.081-.191.034-.158-.06l.008-.021C-269.764,136.642-268.822,135.03-267.566,134.94Z" transform="translate(270.496 -133.792)" fill="#263238"/>
                  <path id="Path_1732" data-name="Path 1732" d="M-264.258,132.348a.93.93,0,0,0-.876-.124c-.042.011-.045.04,0,.028a.946.946,0,0,1,.537,0c.147.047.555.216.552,1.075a5.634,5.634,0,0,1-.55,1.95.02.02,0,0,0,.036.019,6.213,6.213,0,0,0,.482-1.2C-263.966,133.63-263.811,132.727-264.258,132.348Z" transform="translate(267.796 -132.171)" fill="#263238"/>
                </g>
              </g>
            </g>
            <path id="Path_1733" data-name="Path 1733" d="M-281.328,161.737c-.292.325-.556.673-.865.984a12.789,12.789,0,0,1-.988.895,12.241,12.241,0,0,1-2.164,1.413,4.315,4.315,0,0,1-2.637.588,2.322,2.322,0,0,1-1.817-1.564,5.574,5.574,0,0,1,.131-3.223.032.032,0,0,0-.063-.014,6.818,6.818,0,0,0-.307,3.079,2.481,2.481,0,0,0,1.439,1.89c1.837.763,3.8-.561,5.157-1.7a12.4,12.4,0,0,0,1.129-1.065,9.173,9.173,0,0,0,1.037-1.251C-281.255,161.743-281.3,161.711-281.328,161.737Z" transform="translate(382.653 -136.902)" fill="#263238"/>
          </g>
        </g>
        <g id="Table" transform="translate(14.696 66.693)">
          <g id="Group_782" data-name="Group 782">
            <g id="Group_778" data-name="Group 778">
              <rect id="Rectangle_210" data-name="Rectangle 210" width="148.7" height="5.288" fill="#37474f"/>
            </g>
            <g id="Group_779" data-name="Group 779" transform="translate(0 3.224)">
              <rect id="Rectangle_211" data-name="Rectangle 211" width="148.7" height="2.064" fill="#455a64"/>
            </g>
            <g id="Group_780" data-name="Group 780" transform="translate(3.196 5.288)">
              <path id="Path_1734" data-name="Path 1734" d="M-581.025,347.145h-2.138l6.221-74.2h5.455Z" transform="translate(583.163 -272.947)" fill="#455a64"/>
              <path id="Path_1735" data-name="Path 1735" d="M-563.293,272.95l-.639,4.964h-5.23l.415-4.964Z" transform="translate(574.968 -272.949)" fill="#263238"/>
            </g>
            <g id="Group_781" data-name="Group 781" transform="translate(133.827 5.288)">
              <path id="Path_1736" data-name="Path 1736" d="M-258.652,347.145h2.138l-6.221-74.2h-5.455Z" transform="translate(268.191 -272.947)" fill="#455a64"/>
              <path id="Path_1737" data-name="Path 1737" d="M-268.188,272.95l.639,4.964h5.23l-.415-4.964Z" transform="translate(268.19 -272.949)" fill="#263238"/>
            </g>
          </g>
        </g>
        <g id="Device" transform="translate(70.449 32.101)">
          <g id="Group_789" data-name="Group 789" transform="translate(0 0)">
            <path id="Path_1738" data-name="Path 1738" d="M-369.272,256.62H-346.3v-1.784l-22.974-.743Z" transform="translate(405.424 -222.032)" fill="#455a64"/>
            <g id="Group_784" data-name="Group 784" transform="translate(17.884 29.218)">
              <path id="Path_1739" data-name="Path 1739" d="M-413.106,252.579h15.155c1.294,0-.578-3.683-5.3-5.1S-414.595,251.2-413.106,252.579Z" transform="translate(413.319 -247.24)" fill="#37474f"/>
              <g id="Group_783" data-name="Group 783" transform="translate(0.212 1.309)">
                <path id="Path_1740" data-name="Path 1740" d="M-402.116,254.427a11.293,11.293,0,0,0-.99-2.226,6.141,6.141,0,0,0-.7-.963,7.941,7.941,0,0,0-.893-.841,3.064,3.064,0,0,1,1.118.608,3.864,3.864,0,0,1,.835.981,4.682,4.682,0,0,1,.5,1.18A3.779,3.779,0,0,1-402.116,254.427Z" transform="translate(408.065 -250.397)" fill="#263238"/>
                <path id="Path_1741" data-name="Path 1741" d="M-408.656,251.665c-.8.515-1.595.983-2.34,1.517a8.069,8.069,0,0,0-1.053.863,2.9,2.9,0,0,0-.758,1.124,2.091,2.091,0,0,1,.515-1.337,4.929,4.929,0,0,1,1.056-.987,7.924,7.924,0,0,1,1.238-.713A6.616,6.616,0,0,1-408.656,251.665Z" transform="translate(412.809 -251.139)" fill="#263238"/>
              </g>
            </g>
            <g id="Group_788" data-name="Group 788">
              <g id="Group_786" data-name="Group 786">
                <path id="Path_1742" data-name="Path 1742" d="M-447.3,204.218h36.843l-5.859-27.428h-36.843Z" transform="translate(454.519 -176.79)" fill="#455a64"/>
                <path id="Path_1743" data-name="Path 1743" d="M-450.583,204.218h36.843L-419.6,176.79h-36.843Z" transform="translate(456.442 -176.79)" fill="#37474f"/>
                <g id="Group_785" data-name="Group 785" transform="translate(14.189 11.441)">
                  <path id="Path_1744" data-name="Path 1744" d="M-396.253,210.529h.864l-1.312-6.153h-.864Z" transform="translate(407.794 -204.376)" fill="#263238"/>
                  <path id="Path_1745" data-name="Path 1745" d="M-400.364,210.529h.864l-1.312-6.153h-.864Z" transform="translate(410.2 -204.376)" fill="#263238"/>
                  <path id="Path_1746" data-name="Path 1746" d="M-404.474,210.529h.864l-1.312-6.153h-.864Z" transform="translate(412.606 -204.376)" fill="#263238"/>
                  <path id="Path_1747" data-name="Path 1747" d="M-408.585,210.529h.864l-1.312-6.153h-.864Z" transform="translate(415.011 -204.376)" fill="#263238"/>
                  <path id="Path_1748" data-name="Path 1748" d="M-412.7,210.529h.864l-1.312-6.153h-.864Z" transform="translate(417.417 -204.376)" fill="#263238"/>
                  <path id="Path_1749" data-name="Path 1749" d="M-416.807,210.529h.864l-1.312-6.153h-.864Z" transform="translate(419.823 -204.376)" fill="#263238"/>
                  <path id="Path_1750" data-name="Path 1750" d="M-420.917,210.529h.864l-1.312-6.153h-.864Z" transform="translate(422.229 -204.376)" fill="#263238"/>
                </g>
              </g>
              <g id="Group_787" data-name="Group 787" transform="translate(9.751 19.22)">
                <path id="Path_1751" data-name="Path 1751" d="M-417.19,257.384h18.12v-1.407l-18.12-.586Z" transform="translate(423.718 -242.012)" fill="#455a64"/>
                <path id="Path_1752" data-name="Path 1752" d="M-429.069,238.5h9.729l5.859-15.369h-9.729Z" transform="translate(430.67 -223.133)" fill="#455a64"/>
                <path id="Path_1753" data-name="Path 1753" d="M-432.93,238.5h9.729l5.859-15.369h-9.729Z" transform="translate(432.93 -223.133)" fill="#263238"/>
              </g>
            </g>
          </g>
        </g>
        <g id="Shield" transform="translate(47.514 0)">
          <g id="Group_791" data-name="Group 791" transform="translate(0)">
            <path id="Path_1754" data-name="Path 1754" d="M-480.828,109.456s-2.258,18.077-5.969,22.145c-4.455,4.88-7.688,4.166-9.486,6.682a0,0,0,0,0,0,0c-1.8-2.52-5.032-1.8-9.49-6.686-3.711-4.067-5.965-22.145-5.965-22.145a67.74,67.74,0,0,0,15.455-10.067l0,0A67.889,67.889,0,0,0-480.828,109.456Z" transform="translate(511.742 -99.389)" fill="#ffc727"/>
            <path id="Path_1755" data-name="Path 1755" d="M-496.283,99.393v38.89a0,0,0,0,0,0,0c-1.8-2.52-5.032-1.8-9.49-6.686-3.711-4.067-5.965-22.145-5.965-22.145a67.74,67.74,0,0,0,15.455-10.067Z" transform="translate(511.742 -99.389)" opacity="0.2"/>
            <path id="Path_1756" data-name="Path 1756" d="M-459.014,109.462s-2.258,18.077-5.969,22.145c-4.455,4.88-7.688,4.166-9.486,6.682V99.4A67.89,67.89,0,0,0-459.014,109.462Z" transform="translate(489.927 -99.395)" opacity="0.1"/>
            <path id="Path_1757" data-name="Path 1757" d="M-479.842,115.172s-1.907,15.271-5.042,18.708c-3.766,4.128-6.5,3.522-8.019,5.648-1.52-2.126-4.252-1.52-8.019-5.648-3.135-3.438-5.038-18.708-5.038-18.708a57.289,57.289,0,0,0,13.056-8.5A57.382,57.382,0,0,0-479.842,115.172Z" transform="translate(508.357 -103.649)" fill="#ffc727"/>
            <g id="Group_790" data-name="Group 790" transform="translate(11.539 13.167)">
              <rect id="Rectangle_212" data-name="Rectangle 212" width="7.836" height="7.109" transform="translate(0 4.114)" fill="#fff"/>
              <path id="Path_1758" data-name="Path 1758" d="M-475.76,137.444h-.8v-3.174a2.34,2.34,0,0,0-2.337-2.337,2.339,2.339,0,0,0-2.337,2.337v3.174h-.8v-3.174a3.137,3.137,0,0,1,3.133-3.133,3.137,3.137,0,0,1,3.134,3.133Z" transform="translate(482.812 -131.136)" fill="#fff"/>
              <path id="Path_1759" data-name="Path 1759" d="M-475.176,148.027l.328,1.556h-1.392l.328-1.556a.7.7,0,0,1-.328-.588.694.694,0,0,1,.7-.7.694.694,0,0,1,.7.7A.7.7,0,0,1-475.176,148.027Z" transform="translate(479.425 -140.27)" fill="#37474f"/>
            </g>
          </g>
        </g>
        <g id="Letter" transform="translate(14.696 31.044)">
          <g id="Group_809" data-name="Group 809" transform="translate(0 0)">
            <g id="Group_806" data-name="Group 806">
              <path id="Path_1760" data-name="Path 1760" d="M-568.185,206.652h-22.684V187.463l11.34-7.2,11.344,7.2Z" transform="translate(590.87 -177.764)" fill="#ffc727"/>
              <path id="Path_1761" data-name="Path 1761" d="M-568.185,206.652h-22.684V187.463l11.34-7.2,11.344,7.2Z" transform="translate(590.87 -177.764)" opacity="0.2"/>
              <g id="Group_804" data-name="Group 804" transform="translate(1.279)">
                <path id="Path_1762" data-name="Path 1762" d="M-567.659,200.075h-20.125V174.24h14.943l5.182,4.923Z" transform="translate(587.785 -174.24)" fill="#ebebeb"/>
                <path id="Path_1763" data-name="Path 1763" d="M-551.755,174.24l5.182,4.923h-5.182Z" transform="translate(566.698 -174.24)" fill="#dbdbdb"/>
                <g id="Group_792" data-name="Group 792" transform="translate(1.963 4.335)">
                  <rect id="Rectangle_213" data-name="Rectangle 213" width="11.19" height="0.663" transform="translate(11.19 0.663) rotate(180)" fill="#dbdbdb"/>
                </g>
                <g id="Group_793" data-name="Group 793" transform="translate(1.963 6.009)">
                  <rect id="Rectangle_214" data-name="Rectangle 214" width="11.19" height="0.663" transform="translate(11.19 0.663) rotate(180)" fill="#dbdbdb"/>
                </g>
                <g id="Group_794" data-name="Group 794" transform="translate(1.963 7.684)">
                  <rect id="Rectangle_215" data-name="Rectangle 215" width="11.19" height="0.663" transform="translate(11.19 0.663) rotate(180)" fill="#dbdbdb"/>
                </g>
                <g id="Group_795" data-name="Group 795" transform="translate(1.963 9.358)">
                  <rect id="Rectangle_216" data-name="Rectangle 216" width="16.395" height="0.663" transform="translate(16.395 0.663) rotate(180)" fill="#dbdbdb"/>
                </g>
                <g id="Group_796" data-name="Group 796" transform="translate(1.963 11.033)">
                  <rect id="Rectangle_217" data-name="Rectangle 217" width="16.395" height="0.663" transform="translate(16.395 0.663) rotate(180)" fill="#dbdbdb"/>
                </g>
                <g id="Group_797" data-name="Group 797" transform="translate(1.963 12.707)">
                  <rect id="Rectangle_218" data-name="Rectangle 218" width="16.395" height="0.663" transform="translate(16.395 0.663) rotate(180)" fill="#dbdbdb"/>
                </g>
                <g id="Group_798" data-name="Group 798" transform="translate(1.963 14.381)">
                  <rect id="Rectangle_219" data-name="Rectangle 219" width="16.395" height="0.663" transform="translate(16.395 0.663) rotate(180)" fill="#dbdbdb"/>
                </g>
                <g id="Group_799" data-name="Group 799" transform="translate(1.963 16.056)">
                  <rect id="Rectangle_220" data-name="Rectangle 220" width="16.395" height="0.663" transform="translate(16.395 0.663) rotate(180)" fill="#dbdbdb"/>
                </g>
                <g id="Group_800" data-name="Group 800" transform="translate(1.963 17.73)">
                  <rect id="Rectangle_221" data-name="Rectangle 221" width="16.395" height="0.663" transform="translate(16.395 0.663) rotate(180)" fill="#dbdbdb"/>
                </g>
                <g id="Group_801" data-name="Group 801" transform="translate(1.963 19.405)">
                  <rect id="Rectangle_222" data-name="Rectangle 222" width="16.395" height="0.663" transform="translate(16.395 0.663) rotate(180)" fill="#dbdbdb"/>
                </g>
                <g id="Group_802" data-name="Group 802" transform="translate(1.963 21.079)">
                  <rect id="Rectangle_223" data-name="Rectangle 223" width="16.395" height="0.663" transform="translate(16.395 0.663) rotate(180)" fill="#dbdbdb"/>
                </g>
                <g id="Group_803" data-name="Group 803" transform="translate(1.963 22.754)">
                  <rect id="Rectangle_224" data-name="Rectangle 224" width="16.395" height="0.663" transform="translate(16.395 0.663) rotate(180)" fill="#dbdbdb"/>
                </g>
              </g>
              <path id="Path_1764" data-name="Path 1764" d="M-568.186,209.206v14.386H-590.87V209.206c.975.552,1.932,1.131,2.9,1.7s1.922,1.151,2.875,1.737q1.594.971,3.185,1.969l.034-.02c-.01.007-.017.017-.027.024q1.19.741,2.381,1.489c.79-.5,1.584-1,2.378-1.489-.01-.007-.017-.017-.027-.024a.164.164,0,0,0,.034.017q1.589-.992,3.185-1.969,1.431-.873,2.872-1.734C-570.117,210.337-569.16,209.758-568.186,209.206Z" transform="translate(590.87 -194.704)" fill="#ffc727"/>
              <g id="Group_805" data-name="Group 805" transform="translate(0 14.502)">
                <path id="Path_1765" data-name="Path 1765" d="M-568.186,209.206c-.916.644-1.85,1.26-2.773,1.894s-1.864,1.24-2.8,1.853q-1.467.961-2.94,1.9l-.088.061q-1.3.833-2.613,1.666l-.129.078-.126-.078q-1.308-.833-2.61-1.669c-.031-.017-.061-.037-.092-.058q-1.476-.946-2.943-1.908c-.934-.61-1.867-1.23-2.8-1.85s-1.856-1.25-2.773-1.894c.975.552,1.932,1.131,2.9,1.7s1.922,1.151,2.875,1.737q1.594.971,3.185,1.969s0,0,.007,0q1.19.741,2.381,1.489c.79-.5,1.584-1,2.378-1.489,0-.007,0-.007.007-.007q1.589-.992,3.185-1.969,1.431-.873,2.872-1.734C-570.117,210.337-569.16,209.758-568.186,209.206Z" transform="translate(590.87 -209.206)" fill="#fff"/>
                <path id="Path_1766" data-name="Path 1766" d="M-581.8,222.184c-.01.007-.017.017-.027.024-.12.1-.238.2-.358.3-.569.48-1.151.94-1.744,1.386-.723.552-1.462,1.08-2.2,1.6s-1.5,1.025-2.262,1.516-1.54.971-2.34,1.41c.688-.6,1.4-1.165,2.126-1.713s1.465-1.08,2.2-1.6,1.5-1.029,2.265-1.519c.61-.392,1.23-.777,1.863-1.138.147-.085.293-.167.443-.249Z" transform="translate(590.793 -216.802)" fill="#fff"/>
                <path id="Path_1767" data-name="Path 1767" d="M-548.915,228.428c-.8-.439-1.577-.919-2.34-1.41s-1.516-1-2.265-1.516-1.482-1.053-2.2-1.6c-.589-.446-1.172-.9-1.737-1.383-.123-.1-.242-.2-.361-.306-.01-.007-.017-.017-.027-.024a.166.166,0,0,0,.035.017c.15.085.3.167.442.252.634.361,1.25.746,1.863,1.138.766.491,1.516,1,2.262,1.519s1.482,1.053,2.2,1.6S-549.6,227.825-548.915,228.428Z" transform="translate(571.545 -216.802)" fill="#fff"/>
              </g>
            </g>
            <g id="Group_808" data-name="Group 808" transform="translate(18.898 25.1)">
              <ellipse id="Ellipse_168" data-name="Ellipse 168" cx="3.732" cy="3.732" rx="3.732" ry="3.732" fill="#37474f"/>
              <g id="Group_807" data-name="Group 807" transform="translate(1.882 0.846)">
                <rect id="Rectangle_225" data-name="Rectangle 225" width="3.701" height="3.358" transform="translate(0 1.944)" fill="#fff"/>
                <path id="Path_1768" data-name="Path 1768" d="M-536.913,239.78h-.376v-1.5a1.105,1.105,0,0,0-1.1-1.1,1.105,1.105,0,0,0-1.1,1.1v1.5h-.376v-1.5a1.482,1.482,0,0,1,1.48-1.48,1.482,1.482,0,0,1,1.48,1.48Z" transform="translate(540.244 -236.801)" fill="#fff"/>
                <path id="Path_1769" data-name="Path 1769" d="M-536.637,244.78l.155.735h-.658l.155-.735a.33.33,0,0,1-.155-.278.328.328,0,0,1,.329-.329.328.328,0,0,1,.329.329A.33.33,0,0,1-536.637,244.78Z" transform="translate(538.644 -241.116)" fill="#37474f"/>
              </g>
            </g>
          </g>
        </g>
        <g id="Password" transform="translate(11.444 21.276)">
          <g id="Group_820" data-name="Group 820" transform="translate(0 0)">
            <g id="Group_810" data-name="Group 810" transform="translate(4.541 0.639)">
              <rect id="Rectangle_226" data-name="Rectangle 226" width="38.079" height="5.772" transform="translate(0.207 0.207)" fill="#fff"/>
              <path id="Path_1770" data-name="Path 1770" d="M-549.268,158.415h-38.494v-6.186h38.494Zm-38.08-.415h37.665v-5.357h-37.665Z" transform="translate(587.762 -152.229)" fill="#ebebeb"/>
            </g>
            <g id="Group_812" data-name="Group 812">
              <circle id="Ellipse_169" data-name="Ellipse 169" cx="3.732" cy="3.732" r="3.732" fill="#37474f"/>
              <g id="Group_811" data-name="Group 811" transform="translate(1.882 0.846)">
                <rect id="Rectangle_227" data-name="Rectangle 227" width="3.701" height="3.358" transform="translate(0 1.943)" fill="#fff"/>
                <path id="Path_1771" data-name="Path 1771" d="M-590.32,155.708h-.376v-1.5a1.105,1.105,0,0,0-1.1-1.1,1.105,1.105,0,0,0-1.1,1.1v1.5h-.376v-1.5a1.482,1.482,0,0,1,1.48-1.48,1.482,1.482,0,0,1,1.48,1.48Z" transform="translate(593.651 -152.729)" fill="#fff"/>
                <path id="Path_1772" data-name="Path 1772" d="M-590.043,160.708l.155.735h-.657l.155-.735a.33.33,0,0,1-.155-.278.328.328,0,0,1,.329-.329.328.328,0,0,1,.328.329A.33.33,0,0,1-590.043,160.708Z" transform="translate(592.05 -157.044)" fill="#37474f"/>
              </g>
            </g>
            <g id="Group_819" data-name="Group 819" transform="translate(9.822 2.504)">
              <g id="Group_813" data-name="Group 813">
                <rect id="Rectangle_228" data-name="Rectangle 228" width="0.415" height="2.644" transform="translate(1.114)" fill="#37474f"/>
                <rect id="Rectangle_229" data-name="Rectangle 229" width="2.643" height="0.415" transform="translate(0 1.114)" fill="#37474f"/>
                <rect id="Rectangle_230" data-name="Rectangle 230" width="2.643" height="0.415" transform="translate(0.24 2.11) rotate(-45)" fill="#37474f"/>
                <rect id="Rectangle_231" data-name="Rectangle 231" width="0.415" height="2.643" transform="translate(0.24 0.534) rotate(-45)" fill="#37474f"/>
              </g>
              <g id="Group_814" data-name="Group 814" transform="translate(4.486)">
                <rect id="Rectangle_232" data-name="Rectangle 232" width="0.415" height="2.644" transform="translate(1.114)" fill="#37474f"/>
                <rect id="Rectangle_233" data-name="Rectangle 233" width="2.643" height="0.415" transform="translate(0 1.114)" fill="#37474f"/>
                <rect id="Rectangle_234" data-name="Rectangle 234" width="2.643" height="0.415" transform="translate(0.24 2.11) rotate(-45)" fill="#37474f"/>
                <rect id="Rectangle_235" data-name="Rectangle 235" width="0.415" height="2.643" transform="translate(0.24 0.534) rotate(-45)" fill="#37474f"/>
              </g>
              <g id="Group_815" data-name="Group 815" transform="translate(8.972)">
                <rect id="Rectangle_236" data-name="Rectangle 236" width="0.415" height="2.644" transform="translate(1.114)" fill="#37474f"/>
                <rect id="Rectangle_237" data-name="Rectangle 237" width="2.644" height="0.415" transform="translate(0 1.114)" fill="#37474f"/>
                <rect id="Rectangle_238" data-name="Rectangle 238" width="2.643" height="0.415" transform="translate(0.241 2.11) rotate(-45)" fill="#37474f"/>
                <rect id="Rectangle_239" data-name="Rectangle 239" width="0.415" height="2.643" transform="translate(0.241 0.534) rotate(-45)" fill="#37474f"/>
              </g>
              <g id="Group_816" data-name="Group 816" transform="translate(13.458)">
                <rect id="Rectangle_240" data-name="Rectangle 240" width="0.415" height="2.644" transform="translate(1.114)" fill="#37474f"/>
                <rect id="Rectangle_241" data-name="Rectangle 241" width="2.644" height="0.415" transform="translate(0 1.114)" fill="#37474f"/>
                <rect id="Rectangle_242" data-name="Rectangle 242" width="2.643" height="0.415" transform="translate(0.241 2.11) rotate(-45)" fill="#37474f"/>
                <rect id="Rectangle_243" data-name="Rectangle 243" width="0.415" height="2.643" transform="translate(0.241 0.534) rotate(-45)" fill="#37474f"/>
              </g>
              <g id="Group_817" data-name="Group 817" transform="translate(17.944)">
                <rect id="Rectangle_244" data-name="Rectangle 244" width="0.415" height="2.644" transform="translate(1.114)" fill="#37474f"/>
                <rect id="Rectangle_245" data-name="Rectangle 245" width="2.644" height="0.415" transform="translate(0 1.114)" fill="#37474f"/>
                <rect id="Rectangle_246" data-name="Rectangle 246" width="2.643" height="0.415" transform="translate(0.241 2.11) rotate(-45)" fill="#37474f"/>
                <rect id="Rectangle_247" data-name="Rectangle 247" width="0.415" height="2.643" transform="translate(0.241 0.534) rotate(-45)" fill="#37474f"/>
              </g>
              <g id="Group_818" data-name="Group 818" transform="translate(22.43)">
                <rect id="Rectangle_248" data-name="Rectangle 248" width="0.415" height="2.644" transform="translate(1.114)" fill="#37474f"/>
                <rect id="Rectangle_249" data-name="Rectangle 249" width="2.644" height="0.415" transform="translate(0 1.114)" fill="#37474f"/>
                <rect id="Rectangle_250" data-name="Rectangle 250" width="2.643" height="0.415" transform="translate(0.241 2.11) rotate(-45)" fill="#37474f"/>
                <rect id="Rectangle_251" data-name="Rectangle 251" width="0.415" height="2.643" transform="translate(0.241 0.534) rotate(-45)" fill="#37474f"/>
              </g>
            </g>
          </g>
        </g>
        <g id="Plant" transform="translate(0 67.522)">
          <g id="Group_832" data-name="Group 832" transform="translate(0 0)">
            <g id="Group_829" data-name="Group 829">
              <g id="Group_822" data-name="Group 822" transform="translate(0 26.644)">
                <path id="Path_1773" data-name="Path 1773" d="M-604.218,346.125s-9.193-2.084-14.233-6.727-7.854-12.961-7.854-12.961a79.142,79.142,0,0,1,10.311,2.708,17.413,17.413,0,0,1,3.119,4.411,21.227,21.227,0,0,0,.024-3.153,14.039,14.039,0,0,1,3.274,1.988C-605.4,336.047-604.218,346.125-604.218,346.125Z" transform="translate(626.305 -326.437)" fill="#ffc727"/>
                <g id="Group_821" data-name="Group 821" transform="translate(1.932 1.33)">
                  <path id="Path_1774" data-name="Path 1774" d="M-617.838,332.357c-1.254-.867-2.529-1.7-3.777-2.579a.072.072,0,0,1,.075-.122c2.369,1.415,4.7,2.927,6.964,4.511.788.552,1.561,1.127,2.326,1.713-.054-.091-.107-.182-.161-.273-.276-.462-.567-.915-.857-1.367a19.569,19.569,0,0,0-1.952-2.605c-.027-.03.019-.074.045-.043.714.825,1.43,1.642,2.084,2.518.311.416.6.847.874,1.288q.214.343.413.694c.044.078.093.157.138.237,1.189.934,2.346,1.907,3.451,2.936q1.022.953,1.975,1.973c-.355-1.113-.666-2.238-1.078-3.334-.014-.037.048-.053.061-.015.4,1.149.838,2.3,1.148,3.484.7.761,1.378,1.549,2.012,2.369-.011-.05-.021-.1-.033-.149q-.156-.65-.328-1.3c-.224-.832-.468-1.658-.749-2.473a14.366,14.366,0,0,0-2.47-4.665c-.026-.031.019-.074.045-.043a17.931,17.931,0,0,1,3.521,7.352q.148.587.28,1.179c.047.208.1.421.138.635.278.375.551.755.812,1.143a39.818,39.818,0,0,1,3.89,7.628,87.979,87.979,0,0,1,2.947,9.186c.017.061-.075.082-.094.024-1.8-5.38-3.634-10.836-6.712-15.645-.65-1.015-1.353-1.994-2.1-2.938a17.35,17.35,0,0,1-4.471-.89,19.789,19.789,0,0,1-4.481-2.164,27.407,27.407,0,0,1-2.3-1.735.031.031,0,1,1,.039-.048,18.328,18.328,0,0,0,4.214,2.549,22.984,22.984,0,0,0,4.638,1.556c.679.148,1.367.257,2.056.351a38.957,38.957,0,0,0-2.711-3c-.31-.31-.632-.606-.951-.906a21.788,21.788,0,0,0-3.4-1.946c-1.506-.728-2.989-1.5-4.48-2.257-.841-.428-1.677-.866-2.525-1.28-.036-.017,0-.071.033-.053,1.511.73,3.046,1.412,4.571,2.111,1.435.658,2.888,1.318,4.265,2.092.06.033.115.069.173.1-1.245-1.084-2.534-2.118-3.853-3.114C-615.346,334.127-616.582,333.227-617.838,332.357Z" transform="translate(621.648 -329.645)" fill="#263238"/>
                  <path id="Path_1775" data-name="Path 1775" d="M-611.257,347.61c.748.328,1.509.618,2.249.964.761.356,1.482.773,2.2,1.2.032.019,0,.063-.03.048-.733-.351-1.475-.679-2.2-1.044-.743-.374-1.479-.774-2.241-1.108C-611.311,347.654-611.294,347.594-611.257,347.61Z" transform="translate(615.588 -340.158)" fill="#263238"/>
                </g>
              </g>
              <g id="Group_824" data-name="Group 824" transform="translate(23.621)">
                <path id="Path_1776" data-name="Path 1776" d="M-534.71,262.2a13.138,13.138,0,0,0-2.748,7.636c-.03.824.1,1.973.2,3.325a21.81,21.81,0,0,0-6,5.128,10.872,10.872,0,0,1,6.063-1.452,18.217,18.217,0,0,1-.351,2.747,10.318,10.318,0,0,0-3.9.771,8.725,8.725,0,0,1,3.516.7c-1.639,5.214-6.51,10.57-19.962,12.844a28.225,28.225,0,0,1,2.383-18.929C-551.483,267.036-534.71,262.2-534.71,262.2Z" transform="translate(563.043 -262.195)" fill="#ffc727"/>
                <g id="Group_823" data-name="Group 823" transform="translate(0 3.587)">
                  <path id="Path_1777" data-name="Path 1777" d="M-568.861,321.265q.351-3.341.871-6.662a132.919,132.919,0,0,1,2.713-13.168,52.856,52.856,0,0,1,1.942-6,9.075,9.075,0,0,1-.05-1.077q-.014-.646-.007-1.292.015-1.293.124-2.581a30.877,30.877,0,0,1,.827-5.044c.246-.958.532-1.9.813-2.85a.031.031,0,0,1,.06.018,37.107,37.107,0,0,0-.993,5.034,47.393,47.393,0,0,0-.452,5.048q-.025.694-.026,1.387c0,.2.009.395.016.594a43.267,43.267,0,0,1,2.267-4.692,57.037,57.037,0,0,1,4.6-6.888,2.909,2.909,0,0,1,.11-.753q.095-.45.2-.9c.138-.615.292-1.226.459-1.833.334-1.219.776-2.4,1.157-3.6a.031.031,0,0,1,.06.018c-.355,1.192-.591,2.425-.864,3.638-.135.6-.266,1.2-.4,1.8q-.1.45-.192.9c0,.022-.008.045-.012.067q.816-1.029,1.666-2.028c2.569-3.012,5.385-5.791,8.22-8.55.349-.339.706-.669,1.059-1,.029-.028.071.016.043.045-2.709,2.826-5.377,5.684-7.9,8.677q-.9,1.066-1.772,2.159c.305-.207.614-.409.918-.608.782-.513,1.575-1.011,2.391-1.468s1.639-.9,2.477-1.32c.863-.428,1.785-.776,2.617-1.26.036-.021.067.04.03.055a19.5,19.5,0,0,0-2.455,1.36c-.819.486-1.636.975-2.44,1.485s-1.586,1-2.371,1.506c-.654.425-1.3.89-1.977,1.282a63.558,63.558,0,0,0-4.31,6.273,46.179,46.179,0,0,0-2.228,4.225c.161-.07.324-.139.482-.209l1.232-.547c.791-.351,1.586-.694,2.38-1.039,1.508-.657,3.04-1.259,4.521-1.979a20.522,20.522,0,0,0,2.415-1.341c.034-.022.063.032.03.055a53.679,53.679,0,0,1-8.9,4.592l-1.324.586c-.363.161-.727.341-1.1.481a47.169,47.169,0,0,0-2.275,6.234,126.821,126.821,0,0,0-2.927,13.013c-.771,4.394-1.292,8.817-1.7,13.258-.05.555-.1,1.108-.163,1.662a.175.175,0,0,1-.35-.009C-569.327,325.764-569.1,323.506-568.861,321.265Z" transform="translate(569.352 -270.843)" fill="#263238"/>
                  <path id="Path_1778" data-name="Path 1778" d="M-549.134,297.111c.247-1.368.611-2.7.979-4.043a.031.031,0,0,1,.06.018c-.341,1.314-.583,2.654-.831,3.988q-.377,2.039-.666,4.094c0,.023-.039.024-.038,0A36.1,36.1,0,0,1-549.134,297.111Z" transform="translate(557.809 -283.837)" fill="#263238"/>
                  <path id="Path_1779" data-name="Path 1779" d="M-534.509,307.422a24.249,24.249,0,0,1,2.926-1.646c.49-.253.987-.494,1.483-.734.512-.248,1.044-.455,1.552-.711.036-.018.066.036.03.055-.492.247-.958.545-1.442.809s-.994.548-1.493.817c-.984.528-1.951,1.114-2.983,1.542A.075.075,0,0,1-534.509,307.422Z" transform="translate(548.981 -290.44)" fill="#263238"/>
                </g>
              </g>
              <g id="Group_826" data-name="Group 826" transform="translate(4.465 7.052)">
                <path id="Path_1780" data-name="Path 1780" d="M-598.071,302.633s-8.507-2.032-12.414-7.739c-3.731-5.45-4.936-14.741-5.032-15.558.154.749,1.909,8.87,7.7,12.652C-603.382,294.886-599.1,297.268-598.071,302.633Z" transform="translate(615.527 -279.279)" fill="#263238" opacity="0.1"/>
                <path id="Path_1781" data-name="Path 1781" d="M-592.458,300.056a10.869,10.869,0,0,1,3.136,5.166.014.014,0,0,1-.027.009A12.7,12.7,0,0,0-592.5,300.1C-592.529,300.075-592.487,300.028-592.458,300.056Z" transform="translate(602.061 -291.4)" fill="#263238"/>
                <g id="Group_825" data-name="Group 825">
                  <path id="Path_1782" data-name="Path 1782" d="M-598.085,302.552s-8.507-2.032-12.414-7.739c-3.731-5.45-4.936-14.741-5.032-15.558a.566.566,0,0,1-.009-.057s4.079,5.8,8.368,7.279S-596.856,293.072-598.085,302.552Z" transform="translate(615.54 -279.198)" fill="#ffc727"/>
                  <path id="Path_1783" data-name="Path 1783" d="M-611.984,286.89a34.72,34.72,0,0,0,2.63,4.5,18.046,18.046,0,0,0,3.5,3.6c1.156.918,2.378,1.749,3.547,2.649-.009-.014-.017-.029-.026-.042-.22-.326-.455-.642-.7-.952-.487-.622-1.02-1.21-1.555-1.791-1.057-1.147-2.136-2.272-3.084-3.514a12.989,12.989,0,0,1-1.365-2.2c-.017-.036.042-.056.059-.02,1.38,2.875,4.136,4.715,6.1,7.143a12.523,12.523,0,0,1,.786,1.075,4.422,4.422,0,0,1,.49.865,17.888,17.888,0,0,1,2.9,2.934,11.811,11.811,0,0,0-.342-1.652,8.321,8.321,0,0,0-.9-2.154c-.021-.034.032-.069.052-.034a10.144,10.144,0,0,1,.992,2.14,7.493,7.493,0,0,1,.31,1.837l0,.005a16.8,16.8,0,0,1,1.149,1.788c-.035-.182-.07-.364-.106-.545-.169-.848-.356-1.693-.576-2.529a15.155,15.155,0,0,0-2.046-4.793c-.023-.033.029-.068.052-.034a18.242,18.242,0,0,1,2.267,4.689c.271.835.489,1.684.68,2.54.093.418.177.839.257,1.26.042.218.089.44.124.665a30.557,30.557,0,0,1,1.962,5.767A84.637,84.637,0,0,1-593,320.844a89.532,89.532,0,0,1,.587,11.422c-.008.478-.036.956-.063,1.434-.007.123-.191.141-.2.011-.083-1.887-.132-3.777-.244-5.663s-.276-3.771-.478-5.652a100.443,100.443,0,0,0-1.773-11,28.318,28.318,0,0,0-3.284-8.966,16.848,16.848,0,0,0-3.069-3.65c-1.192-1.07-2.5-2.009-3.754-3a20.593,20.593,0,0,1-3.445-3.312,27.094,27.094,0,0,1-2.706-4.391c-.2-.386-.406-.769-.61-1.153C-612.055,286.889-612,286.854-611.984,286.89Z" transform="translate(613.492 -283.691)" fill="#263238"/>
                  <path id="Path_1784" data-name="Path 1784" d="M-608.452,289.892a28.651,28.651,0,0,0,1.9,3.314.023.023,0,0,1-.039.026,23.053,23.053,0,0,1-1.916-3.32C-608.529,289.876-608.469,289.856-608.452,289.892Z" transform="translate(611.428 -285.446)" fill="#263238"/>
                </g>
              </g>
              <g id="Group_828" data-name="Group 828" transform="translate(23.937 26.644)">
                <path id="Path_1785" data-name="Path 1785" d="M-530.791,326.437s.135,12.09-7.094,15.58-11.1.583-16.016,1.752a.014.014,0,0,0,.009-.007c.191-.288,3.7-5.327,9.272-6.715C-538.885,335.618-532.53,331.475-530.791,326.437Z" transform="translate(559.994 -326.437)" fill="#ffc727"/>
                <path id="Path_1786" data-name="Path 1786" d="M-530.791,326.437s.135,12.09-7.094,15.58-11.1.583-16.016,1.752a.014.014,0,0,0,.009-.007,27.342,27.342,0,0,1,8.219-2.424C-541.116,340.79-532.409,337.819-530.791,326.437Z" transform="translate(559.994 -326.437)" opacity="0.1"/>
                <g id="Group_827" data-name="Group 827" transform="translate(0 7.393)">
                  <path id="Path_1787" data-name="Path 1787" d="M-562.974,354.417a12.171,12.171,0,0,1,2.875-1.947c.155-.074.314-.135.472-.2.076-.1.157-.188.243-.277q.325-.34.68-.647a10.13,10.13,0,0,1,1.454-1.049c1.2-.7,2.51-1.2,3.734-1.851.036-.019.066.036.03.055-.606.314-1.191.661-1.78,1-.573.335-1.159.653-1.716,1.013a12.379,12.379,0,0,0-1.43,1.072c-.127.112-.25.232-.372.355a19.37,19.37,0,0,1,2.443-.649c1.323-.268,2.661-.457,3.982-.739a18.572,18.572,0,0,0,1.918-.518c.6-.483,1.2-.963,1.767-1.486a14.489,14.489,0,0,0,1.869-2.072c.024-.032.078,0,.053.033a22.065,22.065,0,0,1-2.964,3.27c.312-.118.62-.245.924-.383a14.919,14.919,0,0,0,6.16-5.125c.023-.033.076,0,.053.033a16.894,16.894,0,0,1-4.984,4.784,14.966,14.966,0,0,1-3.149,1.491,29.249,29.249,0,0,1-3.912.925,27.668,27.668,0,0,0-3.831.911,11.579,11.579,0,0,0-3.213,1.69A15.035,15.035,0,0,0-566,359.481a26.979,26.979,0,0,0-2.386,8.839c-.015.13-.215.13-.206,0C-568.25,363.234-566.891,357.946-562.974,354.417Z" transform="translate(568.59 -344.263)" fill="#263238"/>
                  <path id="Path_1788" data-name="Path 1788" d="M-534.828,355.258a4.159,4.159,0,0,1,1.486-1.347,5.458,5.458,0,0,0,1.768-1.462c.024-.033.078,0,.053.033a5.989,5.989,0,0,1-1.561,1.4,5.442,5.442,0,0,0-1.7,1.407C-534.8,355.314-534.846,355.287-534.828,355.258Z" transform="translate(548.833 -349.046)" fill="#263238"/>
                </g>
              </g>
            </g>
            <g id="Group_831" data-name="Group 831" transform="translate(15.204 50.339)">
              <g id="Group_830" data-name="Group 830" transform="translate(1.063 2.775)">
                <path id="Path_1789" data-name="Path 1789" d="M-569.243,390.261l-.329,6.648-1.008,20.311h-15.165l-1.008-20.311-.329-6.648Z" transform="translate(587.082 -390.261)" fill="#37474f"/>
                <path id="Path_1790" data-name="Path 1790" d="M-569.243,390.261l-.329,6.648h-17.181l-.329-6.648Z" transform="translate(587.082 -390.261)" fill="#263238"/>
              </g>
              <rect id="Rectangle_252" data-name="Rectangle 252" width="19.965" height="6.342" fill="#37474f"/>
            </g>
          </g>
        </g>
      </g>
    </g>
  </g>
</svg>
