<svg id="Group_574" data-name="Group 574" xmlns="http://www.w3.org/2000/svg" width="33.416" height="33.281" viewBox="0 0 33.416 33.281">
  <path id="Path_978" data-name="Path 978" d="M129.019,49.057c0-.006.005-.01.007-.016a16.641,16.641,0,1,0-9.86,10.6,7.663,7.663,0,0,0,9.854-10.583Zm-15.9,10.611A15.527,15.527,0,1,1,128.212,47.82a7.619,7.619,0,0,0-5.442-2.835c0-.1.008-.2.01-.3H126.8a.553.553,0,0,0,0-1.107h-4.023a21.616,21.616,0,0,0-1.085-6.274h2.724a.553.553,0,0,0,0-1.107h-3.129a17.535,17.535,0,0,0-3.27-5.309.554.554,0,0,0-.818.746,16.266,16.266,0,0,1,2.89,4.563h-6.413V30.414a.553.553,0,1,0-1.107,0V36.2h-6.413a16.273,16.273,0,0,1,2.89-4.563.554.554,0,1,0-.818-.746,17.537,17.537,0,0,0-3.271,5.309h-3.623a.553.553,0,0,0,0,1.107h3.219a21.617,21.617,0,0,0-1.085,6.274h-4.21a.553.553,0,1,0,0,1.107h4.208a21.57,21.57,0,0,0,1.079,6.274h-3.212a.553.553,0,0,0,0,1.107h3.612a17.567,17.567,0,0,0,3.069,5.085.554.554,0,0,0,.832-.731,16.3,16.3,0,0,1-2.7-4.355h6.421V57.79a.553.553,0,0,0,1.107,0V52.07h.917c-.013.185-.022.369-.022.553a7.656,7.656,0,0,0,3.31,6.3,15.472,15.472,0,0,1-4.759.747Zm8.552-14.979c0,.1-.007.2-.011.3a7.669,7.669,0,0,0-6.912,5.977h-1.076V44.689Zm-8-1.107V37.308h6.85a20.46,20.46,0,0,1,1.143,6.274Zm-9.1,0a20.441,20.441,0,0,1,1.144-6.274h6.85v6.274Zm7.994,1.107v6.274h-6.856a20.392,20.392,0,0,1-1.138-6.274Zm9.666,14.49a6.563,6.563,0,0,1-6.556-6.556,6.649,6.649,0,0,1,.05-.816,6.557,6.557,0,1,1,6.506,7.371Zm2.99-6.229c-.015-.19-.029-.374-.042-.553a5.991,5.991,0,0,0-.638-2.845,2.453,2.453,0,0,0-1.493-1.11.878.878,0,0,0-1.632,0,2.455,2.455,0,0,0-1.493,1.111,6,6,0,0,0-.639,2.848c-.013.178-.027.361-.042.55A2.217,2.217,0,0,1,118.6,54.3a1.6,1.6,0,0,0-.461,1.209.553.553,0,0,0,.553.553h2.339v.189a1.2,1.2,0,1,0,2.4,0v-.189h2.339a.553.553,0,0,0,.553-.553,1.608,1.608,0,0,0-.461-1.209,2.222,2.222,0,0,1-.642-1.352Zm-2.9,3.3c0,.1-.186.1-.186,0v-.189h.186Zm-2.816-1.3a3.35,3.35,0,0,0,.837-1.917c.016-.192.03-.378.043-.559a5.328,5.328,0,0,1,.459-2.32,1.433,1.433,0,0,1,1.347-.712h.055a1.44,1.44,0,0,1,1.367.711,5.309,5.309,0,0,1,.46,2.317c.013.182.027.369.043.562a3.357,3.357,0,0,0,.838,1.917H119.51Z" transform="translate(-96.481 -27.495)"/>
</svg>
