<svg xmlns="http://www.w3.org/2000/svg" width="36.61" height="36.61" viewBox="0 0 36.61 36.61">
  <g id="Group_445" data-name="Group 445" transform="translate(-890.326 -371)">
    <path id="Path_723" data-name="Path 723" d="M208.975,227.5h-1.83a.61.61,0,0,0-.431.179l-3.229,3.23-3.229-3.229h0a.61.61,0,0,0-.431-.179h-1.83a5.5,5.5,0,0,0-5.491,5.491v10.983a5.5,5.5,0,0,0,5.491,5.491h10.983a5.5,5.5,0,0,0,5.491-5.491V232.991a5.5,5.5,0,0,0-5.491-5.491Zm-15.254,16.474V233.136l3.051,1.525v13.4a4.277,4.277,0,0,1-3.051-4.091Zm3.934-10.237-3.774-1.887a4.276,4.276,0,0,1,4.112-3.13h1.578l3.3,3.3v16.222h-4.881V234.284a.61.61,0,0,0-.337-.546Zm6.439,14.508V232.024l3.3-3.3h1.578a4.276,4.276,0,0,1,4.112,3.13l-3.775,1.887h0a.61.61,0,0,0-.337.549v13.958Zm6.1-.183v-13.4l3.051-1.525v10.839a4.277,4.277,0,0,1-3.051,4.091Z" transform="translate(705.147 158.144)" fill="#303030"/>
    <path id="Path_724" data-name="Path 724" d="M276.741,32.145a5.5,5.5,0,0,0,5.491-5.491V22.993a5.491,5.491,0,0,0-10.983,0v3.661a5.5,5.5,0,0,0,5.491,5.491Zm-4.271-9.152a4.271,4.271,0,0,1,8.542,0v3.661a4.271,4.271,0,0,1-8.542,0Z" transform="translate(631.889 353.499)" fill="#fff"/>
    <path id="Path_725" data-name="Path 725" d="M94.766,76.4l-3.84-3.84-.863.863,3.84,3.84H92.325v1.22h3.051a.594.594,0,0,0,.6-.61h.005V74.826h-1.22Z" transform="translate(800.442 302.276)" fill="#303030"/>
    <path id="Path_726" data-name="Path 726" d="M95.944,455.378A.61.61,0,0,0,95.38,455H92.329v1.22h1.578l-3.84,3.84.863.863,3.84-3.84v1.578h1.22v-3.051h-.005A.617.617,0,0,0,95.944,455.378Z" transform="translate(800.438 -53.494)" fill="#303030"/>
    <path id="Path_727" data-name="Path 727" d="M89.506,269.941l.863.863,2.441-2.441h0a.611.611,0,0,0,0-.863l-2.441-2.441-.863.863,1.4,1.4H87.5v1.22h3.408Z" transform="translate(802.829 123.203)" fill="#fff"/>
    <path id="Path_728" data-name="Path 728" d="M525.042,78.108a.61.61,0,0,0,.564.376h3.051v-1.22h-1.578l3.84-3.84-.863-.863-3.84,3.84V74.823H525v3.051H525A.617.617,0,0,0,525.042,78.108Z" transform="translate(395.838 302.278)" fill="#303030"/>
    <path id="Path_729" data-name="Path 729" d="M528.661,456.219V455H525.61a.594.594,0,0,0-.6.61H525v3.051h1.22v-1.578l3.84,3.84.863-.863-3.84-3.84Z" transform="translate(395.834 -53.491)" fill="#303030"/>
    <path id="Path_730" data-name="Path 730" d="M535.833,267.329l1.4-1.4-.863-.863-2.441,2.441h0a.611.611,0,0,0,0,.863l2.441,2.441.863-.863-1.4-1.4h3.409v-1.22Z" transform="translate(387.694 123.196)" fill="#fff"/>
  </g>
</svg>
