<svg id="Group_440" data-name="Group 440" xmlns="http://www.w3.org/2000/svg" width="33.936" height="32.241" viewBox="0 0 33.936 32.241">
  <path id="Path_686" data-name="Path 686" d="M173.672,203.547a1.944,1.944,0,0,0-1.949-1.949h-4.575a1.944,1.944,0,0,0-1.949,1.949v4.533a1.944,1.944,0,0,0,1.949,1.949h4.533a1.944,1.944,0,0,0,1.949-1.949v-4.534Z" transform="translate(-161.81 -192.277)" fill="#ffc931"/>
  <path id="Path_687" data-name="Path 687" d="M296.872,203.547a1.944,1.944,0,0,0-1.949-1.949h-4.575a1.944,1.944,0,0,0-1.949,1.949v4.533a1.944,1.944,0,0,0,1.949,1.949h4.533a1.944,1.944,0,0,0,1.949-1.949v-4.534Zm-1.694,4.576a.273.273,0,0,1-.254.254h-4.576a.273.273,0,0,1-.254-.254v-4.576a.273.273,0,0,1,.254-.254h4.533a.273.273,0,0,1,.254.254v4.576Z" transform="translate(-275.689 -192.277)" fill="#303030"/>
  <path id="Path_688" data-name="Path 688" d="M420.07,203.547a1.944,1.944,0,0,0-1.949-1.949h-4.576a1.944,1.944,0,0,0-1.949,1.949v4.533a1.944,1.944,0,0,0,1.949,1.949h4.533a1.944,1.944,0,0,0,1.949-1.949v-4.534Zm-1.695,4.576a.273.273,0,0,1-.254.254h-4.576a.273.273,0,0,1-.254-.254v-4.576a.273.273,0,0,1,.254-.254h4.533a.273.273,0,0,1,.254.254v4.576Z" transform="translate(-389.566 -192.277)" fill="#303030"/>
  <path id="Path_689" data-name="Path 689" d="M171.723,330.4h-4.576a1.944,1.944,0,0,0-1.949,1.949v4.533a1.944,1.944,0,0,0,1.949,1.949h4.533a1.944,1.944,0,0,0,1.949-1.949v-4.533a1.908,1.908,0,0,0-1.906-1.949Zm.254,6.525a.273.273,0,0,1-.254.254h-4.576a.273.273,0,0,1-.254-.254v-4.576a.273.273,0,0,1,.254-.254h4.533a.273.273,0,0,1,.254.254v4.576Z" transform="translate(-161.809 -311.335)" fill="#303030"/>
  <path id="Path_690" data-name="Path 690" d="M294.923,330.4h-4.576a1.944,1.944,0,0,0-1.949,1.949v4.533a1.944,1.944,0,0,0,1.949,1.949h4.533a1.944,1.944,0,0,0,1.949-1.949v-4.533a1.908,1.908,0,0,0-1.906-1.949Zm.254,6.525a.273.273,0,0,1-.254.254h-4.576a.273.273,0,0,1-.254-.254v-4.576a.273.273,0,0,1,.254-.254h4.533a.273.273,0,0,1,.254.254v4.576Z" transform="translate(-275.688 -311.335)" fill="#303030"/>
  <path id="Path_691" data-name="Path 691" d="M418.123,330.4h-4.576a1.944,1.944,0,0,0-1.949,1.949v4.533a1.944,1.944,0,0,0,1.949,1.949h4.533a1.944,1.944,0,0,0,1.949-1.949v-4.533a1.908,1.908,0,0,0-1.906-1.949Zm.254,6.525a.273.273,0,0,1-.254.254h-4.576a.273.273,0,0,1-.254-.254v-4.576a.273.273,0,0,1,.254-.254h4.533a.273.273,0,0,1,.254.254v4.576Z" transform="translate(-389.568 -311.335)" fill="#ffc931"/>
  <path id="Path_692" data-name="Path 692" d="M205.877,86.024h.89a1.474,1.474,0,0,0,1.483-1.483v-4.66a1.474,1.474,0,0,0-1.483-1.483h-.89a1.474,1.474,0,0,0-1.483,1.483v4.7a1.439,1.439,0,0,0,1.483,1.44Zm.212-5.931h.424V84.33h-.424Z" transform="translate(-198.04 -78.398)" fill="#303030"/>
  <path id="Path_693" data-name="Path 693" d="M435.477,86.024h.89a1.474,1.474,0,0,0,1.483-1.483v-4.66a1.474,1.474,0,0,0-1.483-1.483h-.89a1.474,1.474,0,0,0-1.483,1.483v4.7a1.439,1.439,0,0,0,1.483,1.44Zm.212-5.931h.424V84.33h-.424Z" transform="translate(-410.269 -78.398)" fill="#303030"/>
  <path id="Path_694" data-name="Path 694" d="M266.848,119.3h10.168a.847.847,0,1,0,0-1.695H266.848a.847.847,0,1,0,0,1.695Z" transform="translate(-254.986 -114.636)" fill="#303030"/>
  <path id="Path_695" data-name="Path 695" d="M150.777,117.6h-1.144a.847.847,0,0,0,0,1.695h1.144a1.808,1.808,0,0,1,1.822,1.822v22.242a1.808,1.808,0,0,1-1.822,1.822h-26.86a1.808,1.808,0,0,1-1.822-1.822V121.116a1.808,1.808,0,0,1,1.822-1.822h1.144a.847.847,0,0,0,0-1.695h-1.144a3.508,3.508,0,0,0-3.516,3.516v22.242a3.508,3.508,0,0,0,3.516,3.516h26.9a3.508,3.508,0,0,0,3.516-3.516V121.116a3.572,3.572,0,0,0-3.559-3.516Z" transform="translate(-120.4 -114.634)" fill="#303030"/>
</svg>
