<svg xmlns="http://www.w3.org/2000/svg" width="171" height="131.461" viewBox="0 0 171 131.461">
  <g id="Group_538" data-name="Group 538" transform="translate(-1831.715 326.189)">
    <path id="Path_1" data-name="Path 1" d="M2606,42.457s35.293,18.637,55.913-2.379c0,0-9.121,36.085-59.481,55.119,0,0,23.595-11.3,22.6-27.757S2606,42.457,2606,42.457" transform="translate(-660.888 -366.267)" fill="#ffa700" fill-rule="evenodd"/>
    <path id="Path_2" data-name="Path 2" d="M2472.467,195.488s21.857,12.1,35.018-.8c0,0-6.15,22.47-37.9,33.763,0,0,14.9-6.783,14.485-17.093s-11.6-15.867-11.6-15.867" transform="translate(-548.465 -497.111)" fill="#67676a" fill-rule="evenodd"/>
    <path id="Path_3" data-name="Path 3" d="M2344.2,298.777s13.008,10.05,22.857,2.974c0,0-6.244,14-28.022,18.176,0,0,10.371-2.924,11.129-9.671s-5.964-11.479-5.964-11.479" transform="translate(-437.982 -585.203)" fill="#ffa700" fill-rule="evenodd"/>
    <path id="Path_4" data-name="Path 4" d="M2627.412,411.918h-49.068s-16.412,1.172-16.412,15.91,16.747,14.57,16.747,14.57h31.652s3.853-.335,3.853,3.517h15.072s2.01-13.23-14.57-13.23h-34a3.864,3.864,0,0,1-3.684-4.019c0-3.852,4.019-3.684,4.019-3.684h36.51Z" transform="translate(-626.616 -680.954)" fill="#67676a" fill-rule="evenodd"/>
    <path id="Path_5" data-name="Path 5" d="M2389.339,411.274v38.115h80.889s.334,13.23-19.762,13.23h-76.534v-44.07Z" transform="translate(-467.513 -680.409)" fill="#ffa700" fill-rule="evenodd"/>
    <path id="Path_6" data-name="Path 6" d="M1956.722,411.918H1905c-22.711,0-22.972,31.659.348,31.659h32.876c5.018-.436,5.241,6.243-.094,6.021h-37.921l-10.263,13.568h50.967c12.277-.876,21.221-13.482,15.473-23.543-4.281-8.23-15.821-8.115-15.821-8.115h-32.876c-5.034,0-5.245-6.021.094-6.021h48.9Z" transform="translate(-56.201 -680.954)" fill="#67676a" fill-rule="evenodd"/>
    <path id="Path_7" data-name="Path 7" d="M2058.922,788.317a3.04,3.04,0,0,1-1.828,2.8,6.858,6.858,0,0,1-3.235.738h-1.828V790.8h1.828a2.381,2.381,0,0,0,1.74-.721,2.673,2.673,0,0,0,.553-.811,2.4,2.4,0,0,0,.184-.949,2.522,2.522,0,0,0-2.478-2.464H2052.4a1.292,1.292,0,0,0-.448.079,1.141,1.141,0,0,0-.372.214,1.115,1.115,0,0,0-.258.316.8.8,0,0,0-.1.4v8.927a.7.7,0,0,0,.129.407,1.166,1.166,0,0,0,.343.322,1.769,1.769,0,0,0,.5.214,2.1,2.1,0,0,0,.58.076v1.04H2047.4v-1.04a2.35,2.35,0,0,0,.577-.085,1.767,1.767,0,0,0,.5-.211,1.121,1.121,0,0,0,.343-.316.7.7,0,0,0,.129-.407v-8.927a.687.687,0,0,0-.129-.4,1.172,1.172,0,0,0-.343-.322,1.767,1.767,0,0,0-.5-.211,2.206,2.206,0,0,0-.577-.073V784.8h6.455a6.858,6.858,0,0,1,3.235.738,3.025,3.025,0,0,1,1.828,2.78m-14.943-2.464a1.119,1.119,0,0,0-.826.387,1.219,1.219,0,0,0-.352.85v5.8a5.633,5.633,0,0,1-1.055,3.621,4.182,4.182,0,0,1-3.46,1.494,4.6,4.6,0,0,1-3.674-1.494,4.536,4.536,0,0,1-.879-1.65,7.45,7.45,0,0,1-.287-2.145v-5.622a1.218,1.218,0,0,0-.352-.85,1.652,1.652,0,0,0-1.193-.4V784.8h5.365v1.037a2.718,2.718,0,0,0-.715.111,1.091,1.091,0,0,0-.463.293,1.168,1.168,0,0,0-.369.85v5.605q0,4.241,2.807,4.239a2.848,2.848,0,0,0,2.482-1.184,3.867,3.867,0,0,0,.554-1.239,6.469,6.469,0,0,0,.184-1.626v-5.8a1.217,1.217,0,0,0-.352-.85,1.668,1.668,0,0,0-1.178-.4V784.8h4.114v.686Zm-14.746,5.467a6.533,6.533,0,0,1-1.916,4.714,6.148,6.148,0,0,1-4.609,1.966,6.169,6.169,0,0,1-4.644-1.966,6.852,6.852,0,0,1,0-9.426,6.426,6.426,0,0,1,9.253,0A6.585,6.585,0,0,1,2029.233,791.32Zm-2.886.5a9.119,9.119,0,0,0-.231-2.1,8.562,8.562,0,0,0-.686-1.89,4.322,4.322,0,0,0-1.266-1.588,2.783,2.783,0,0,0-1.67-.524,2.871,2.871,0,0,0-2.669,1.65,5.954,5.954,0,0,0-.58,1.562,8.66,8.66,0,0,0-.193,1.9,8.925,8.925,0,0,0,.911,4.011,3.288,3.288,0,0,0,2.945,2.092,2.878,2.878,0,0,0,2.669-1.655,5.917,5.917,0,0,0,.577-1.562A8.64,8.64,0,0,0,2026.347,791.818Zm-10.618,9.1a6.141,6.141,0,0,1-2.157-.357,4.871,4.871,0,0,1-1.723-1.1,5.057,5.057,0,0,1-1.491-3.829v-1.3a2.539,2.539,0,0,0-2.482-2.473h-1.441V790.8h1.828a2.38,2.38,0,0,0,1.74-.721,2.671,2.671,0,0,0,.554-.811,2.406,2.406,0,0,0,.185-.949,2.523,2.523,0,0,0-2.479-2.464H2006.8a1.289,1.289,0,0,0-.448.079,1.138,1.138,0,0,0-.372.214,1.11,1.11,0,0,0-.258.316.791.791,0,0,0-.1.4v8.927a.7.7,0,0,0,.129.407,1.122,1.122,0,0,0,.343.316,1.766,1.766,0,0,0,.5.211,2.357,2.357,0,0,0,.58.085v1.04h-5.365v-1.04a2.35,2.35,0,0,0,.577-.085,1.768,1.768,0,0,0,.5-.211,1.115,1.115,0,0,0,.343-.316.7.7,0,0,0,.129-.407v-8.927a.687.687,0,0,0-.129-.4,1.166,1.166,0,0,0-.343-.322,1.768,1.768,0,0,0-.5-.211,2.206,2.206,0,0,0-.577-.073V784.8h6.455a6.856,6.856,0,0,1,3.234.738,3.025,3.025,0,0,1,1.828,2.78,2.965,2.965,0,0,1-1.184,2.394,4.76,4.76,0,0,1-1.143.645,3,3,0,0,1,1.94,2.971v1.286q0,4.276,2.775,4.275h.384v.662Zm-16.593-7.383a1.259,1.259,0,0,0-.445.079,1.148,1.148,0,0,0-.375.214,1.128,1.128,0,0,0-.258.325.878.878,0,0,0-.1.4v3.287h-4.7a6.543,6.543,0,0,1-2.52-.472,6.66,6.66,0,0,1-2.107-1.427,6.469,6.469,0,0,1-1.43-2.116,6.807,6.807,0,0,1,3.534-8.69,6.263,6.263,0,0,1,2.522-.5,5.461,5.461,0,0,1,.952.082,4.968,4.968,0,0,1,.929.252v-.017c.132.053.331.141.6.267s.618.3,1.035.507c.029.011.053.02.073.026s.023.009.015.009.009-.07.032-.211.053-.352.088-.63l.97.489v3.657h-.4a.822.822,0,0,1-.378-.094.982.982,0,0,1-.325-.293c-.076-.126-.161-.272-.263-.442s-.223-.361-.372-.58a4.663,4.663,0,0,0-1.438-1.468,3.281,3.281,0,0,0-1.729-.48,2.871,2.871,0,0,0-2.669,1.65v-.017a6.358,6.358,0,0,0-.58,1.588,8.63,8.63,0,0,0-.193,1.9,8.937,8.937,0,0,0,.231,2.077,8.4,8.4,0,0,0,.68,1.863,4.236,4.236,0,0,0,1.269,1.512,2.873,2.873,0,0,0,1.676.507,3.379,3.379,0,0,0,.9-.111,2.256,2.256,0,0,0,.7-.328v.017a1.556,1.556,0,0,0,.636-1.356v-.454a.728.728,0,0,0-.123-.4,1.13,1.13,0,0,0-.34-.325,1.745,1.745,0,0,0-.5-.214,2.184,2.184,0,0,0-.592-.079V792.5h5.365v.668Zm-23.536.583a3.478,3.478,0,0,1-1.494,2.921,4.945,4.945,0,0,1-1.424.721,5.616,5.616,0,0,1-1.673.24,3.966,3.966,0,0,1-1.271-.22,7.3,7.3,0,0,1-1.383-.656l.018.018a.355.355,0,0,1-.056-.026.219.219,0,0,1-.029-.027.424.424,0,0,1,.009.176c-.006.1-.015.243-.027.425h-1.037v-2.9l1-.516a2.893,2.893,0,0,0,.841,2.01h-.015a2.429,2.429,0,0,0,1.62.592,2.7,2.7,0,0,0,1.717-.56,1.707,1.707,0,0,0,.56-.65,1.923,1.923,0,0,0-.144-1.875,3.2,3.2,0,0,0-.99-.923h.018l-1.412-.8q-.716-.409-1.421-.794a3.442,3.442,0,0,1-1.632-2.886,3.4,3.4,0,0,1,1.315-2.737l-.018.018a4.244,4.244,0,0,1,2.848-1.023,5.005,5.005,0,0,1,.829.062,2.749,2.749,0,0,1,.63.17,3.172,3.172,0,0,1,.472.223,4.13,4.13,0,0,1,.551.387,2.506,2.506,0,0,1,0-.525h1.014v2.886l-1.031.539a3.92,3.92,0,0,0-.167-1.231,1.888,1.888,0,0,0-.486-.8,2.609,2.609,0,0,0-.7-.454,2.021,2.021,0,0,0-.812-.164,2.194,2.194,0,0,0-1.512.583,1.7,1.7,0,0,0-.472.609,1.89,1.89,0,0,0-.146.756,1.72,1.72,0,0,0,.331.984,3.514,3.514,0,0,0,1.026.914v-.018c.463.284.941.571,1.43.852s.967.563,1.429.838A3.4,3.4,0,0,1,1975.6,794.118Zm-9.563-8.265c-.276,0-.5.009-.686.023a.983.983,0,0,0-.422.106,1.626,1.626,0,0,0-.7.721l-2.62,4.448v4.635a.7.7,0,0,0,.129.407,1.172,1.172,0,0,0,.343.322,1.769,1.769,0,0,0,.5.214,2.13,2.13,0,0,0,.586.076v1.04H1957.8v-1.04a2.1,2.1,0,0,0,.58-.076,1.767,1.767,0,0,0,.495-.214,1.251,1.251,0,0,0,.343-.322.7.7,0,0,0,.129-.407V791.64l-2.619-4.954a2.252,2.252,0,0,0-.325-.472,1.012,1.012,0,0,0-.361-.249,1.556,1.556,0,0,0-.515-.088c-.246-.015-.566-.023-.961-.023V784.8h5.432v1.055c-.68,0-1.02.056-1.02.164a.271.271,0,0,0,.038.1c.026.047.067.126.123.234l1.934,3.674,2.265-3.871v.018a.281.281,0,0,1,.009-.065.429.429,0,0,0,.009-.091c0-.109-.334-.164-1.005-.164V784.8h4.061v.686ZM1949.9,797.845v-1.04c.715,0,1.073-.132,1.073-.4a.7.7,0,0,0-.032-.232l-.507-1.4h-4.448l-.387,1.143c-.038.1-.07.188-.094.27a.8.8,0,0,0-.035.22c0,.27.357.4,1.075.4v1.04h-4.061v-1.04a4.816,4.816,0,0,0,.8-.056,1.69,1.69,0,0,0,.58-.193,1.277,1.277,0,0,0,.407-.352,1.855,1.855,0,0,0,.276-.539l4.318-11.9,4.343,11.9a1.856,1.856,0,0,0,.284.536,1.315,1.315,0,0,0,.419.352,2.036,2.036,0,0,0,.583.193,4.366,4.366,0,0,0,.773.059v1.04Zm-3.527-4.111h3.674l-1.846-5.066Zm-1.881-7.882a3.252,3.252,0,0,0-.627.056,1.368,1.368,0,0,0-.463.185,1.215,1.215,0,0,0-.343.349,2.307,2.307,0,0,0-.258.536l-4.319,11.9-2.781-7.612-2.757,7.612-4.342-11.9a1.488,1.488,0,0,0-.709-.876,2.986,2.986,0,0,0-1.351-.249V784.8h5.347v1.055q-1.055,0-1.055.387a.784.784,0,0,0,.018.249l2.737,7.5,1.553-4.266-1-2.745a1.5,1.5,0,0,0-.709-.876,2.987,2.987,0,0,0-1.351-.249V784.8h5.347v1.055c-.706,0-1.058.129-1.058.387a.784.784,0,0,0,.018.249l2.74,7.5,2.625-7.252a1.485,1.485,0,0,0,.1-.5q0-.387-1.055-.387V784.8h4.061v.686Zm-19.074,0c-.275,0-.5.009-.686.023a.983.983,0,0,0-.422.106,1.626,1.626,0,0,0-.7.721l-2.619,4.448v4.635a.7.7,0,0,0,.129.407,1.17,1.17,0,0,0,.343.322,1.769,1.769,0,0,0,.5.214,2.13,2.13,0,0,0,.586.076v1.04h-5.365v-1.04a2.1,2.1,0,0,0,.58-.076,1.778,1.778,0,0,0,.5-.214,1.255,1.255,0,0,0,.343-.322.7.7,0,0,0,.129-.407V791.64l-2.619-4.954a2.252,2.252,0,0,0-.325-.472,1.014,1.014,0,0,0-.36-.249,1.562,1.562,0,0,0-.516-.088c-.246-.015-.565-.023-.961-.023V784.8h5.432v1.055c-.68,0-1.02.056-1.02.164a.271.271,0,0,0,.038.1c.026.047.067.126.123.234l1.934,3.674,2.265-3.871v.018a.279.279,0,0,1,.009-.065.412.412,0,0,0,.009-.091c0-.109-.334-.164-1.005-.164V784.8h4.061v.686Zm-18.371,11.992v-1.04h.422c.425,0,.636-.132.636-.4a.962.962,0,0,0-.009-.138.73.73,0,0,1-.009-.094l-2.268-6.2-2.652,2.406v3.407a.7.7,0,0,0,.129.407,1.173,1.173,0,0,0,.343.322,1.766,1.766,0,0,0,.5.214,2.1,2.1,0,0,0,.58.076v1.04h-5.365v-1.04a2.1,2.1,0,0,0,.577-.076,1.766,1.766,0,0,0,.5-.214,1.173,1.173,0,0,0,.343-.322.7.7,0,0,0,.129-.407v-8.927a.687.687,0,0,0-.129-.4,1.171,1.171,0,0,0-.343-.322,1.76,1.76,0,0,0-.5-.211,2.207,2.207,0,0,0-.577-.073V784.8h5.365v1.055a2.212,2.212,0,0,0-.58.073,1.76,1.76,0,0,0-.5.211,1.171,1.171,0,0,0-.343.322.689.689,0,0,0-.129.4v4.093l5.409-4.849v-.085c0-.109-.331-.164-1-.164V784.8h4.061v1.055a4.717,4.717,0,0,0-1.058.1,1.311,1.311,0,0,0-.651.322l-2.3,2.06,2.7,7.331a2.018,2.018,0,0,0,.29.536,1.289,1.289,0,0,0,.422.352,1.991,1.991,0,0,0,.577.193,4.292,4.292,0,0,0,.771.059v1.04Zm-10.753-3.727a3.479,3.479,0,0,1-1.494,2.921,4.947,4.947,0,0,1-1.424.721,5.62,5.62,0,0,1-1.673.24,3.967,3.967,0,0,1-1.271-.22,7.3,7.3,0,0,1-1.383-.656l.018.018a.374.374,0,0,1-.056-.026.219.219,0,0,1-.029-.027.426.426,0,0,1,.009.176c-.006.1-.014.243-.026.425h-1.037v-2.9l1-.516a2.893,2.893,0,0,0,.841,2.01h-.015a2.429,2.429,0,0,0,1.621.592,2.7,2.7,0,0,0,1.717-.56,1.713,1.713,0,0,0,.56-.65,1.894,1.894,0,0,0,.178-.823,1.875,1.875,0,0,0-.322-1.052,3.2,3.2,0,0,0-.99-.923h.018q-.695-.4-1.412-.8t-1.421-.794a3.441,3.441,0,0,1-1.632-2.886,3.394,3.394,0,0,1,1.316-2.737l-.018.018a4.244,4.244,0,0,1,2.848-1.023,5.007,5.007,0,0,1,.829.062,2.754,2.754,0,0,1,.63.17,3.172,3.172,0,0,1,.472.223,4.147,4.147,0,0,1,.551.387,2.472,2.472,0,0,1,0-.525h1.013v2.886l-1.031.539a3.928,3.928,0,0,0-.167-1.231,1.888,1.888,0,0,0-.486-.8,2.621,2.621,0,0,0-.7-.454,2.021,2.021,0,0,0-.812-.164,2.192,2.192,0,0,0-1.512.583,1.693,1.693,0,0,0-.472.609,1.89,1.89,0,0,0-.146.756,1.718,1.718,0,0,0,.331.984,3.514,3.514,0,0,0,1.026.914v-.018c.463.284.94.571,1.43.852s.967.563,1.43.838A3.4,3.4,0,0,1,1896.293,794.118Z" transform="translate(-56.208 -995.647)" fill="#67676a"/>
  </g>
</svg>
