<svg xmlns="http://www.w3.org/2000/svg" xmlns:xlink="http://www.w3.org/1999/xlink" width="375" height="812" viewBox="0 0 375 812">
  <defs>
    <clipPath id="clip-path">
      <rect id="Rectangle_270" data-name="Rectangle 270" width="375" height="812" fill="#fff"/>
    </clipPath>
    <linearGradient id="linear-gradient" x1="0.243" y1="0.116" x2="0.831" y2="0.482" gradientUnits="objectBoundingBox">
      <stop offset="0" stop-color="#ffa700"/>
      <stop offset="1" stop-color="#ffc14b"/>
    </linearGradient>
  </defs>
  <g id="Mask_Group_9" data-name="Mask Group 9" clip-path="url(#clip-path)">
    <g id="Group_846" data-name="Group 846">
      <path id="Path_681" data-name="Path 681" d="M-666.309-56.971c6.6,64.658,52.317,117.68,105.154,141.411s111.677,22.588,167.948,14.222c30.139-4.481,66.686-8.112,84.96,19.746,19.307,29.434,3.537,72.652,13.514,107.667,8.664,30.409,37.151,50.041,65.037,49.854s54.235-17.589,72.6-41.668,29.564-54.29,37.456-84.975c10.756-41.823,15.882-86.164,9.959-129.235s-23.585-84.841-52.741-112.817c-34.639-33.235-81.449-44.141-126.465-48.213-128.391-11.611-259.73,24.433-369.643,101.444" transform="matrix(1, -0.017, 0.017, 1, 545.528, 85.368)" fill="url(#linear-gradient)"/>
      <path id="Path_911" data-name="Path 911" d="M544.856,1566.612c3.806,24.821,30.009,44.033,50.177,53.112,14.194,6.39,30.227,8.849,45.216,5.027,24.228-6.177,41.716-29.714,43.493-55.887,2.12-31.221-18.278-60.14-45.906-69.506-27.861-9.446-59.636,2.829-79.093,25.154C548.485,1536.283,542.441,1550.854,544.856,1566.612Z" transform="translate(-331.341 -1437.568)" fill="#fff" opacity="0.08"/>
      <path id="Path_912" data-name="Path 912" d="M544.67,1539.156c2.471,15.15,19.481,26.876,32.573,32.417,9.214,3.9,19.623,5.4,29.353,3.069,15.728-3.77,27.081-18.137,28.234-34.111,1.376-19.056-11.865-36.707-29.8-42.424-18.086-5.765-38.714,1.726-51.344,15.353C547.026,1520.643,543.1,1529.537,544.67,1539.156Z" transform="translate(-436.722 -1517.172)" fill="#fff" opacity="0.08"/>
      <path id="Path_913" data-name="Path 913" d="M544.562,1525.641c1.694,10.389,13.359,18.431,22.338,22.231a32.651,32.651,0,0,0,20.129,2.1c10.786-2.585,18.571-12.437,19.362-23.393.944-13.068-8.137-25.173-20.436-29.093-12.4-3.954-26.549,1.184-35.211,10.529C546.177,1512.946,543.487,1519.045,544.562,1525.641Z" transform="translate(-524.326 -1439.961)" fill="#fff" opacity="0.08"/>
    </g>
  </g>
</svg>
