<svg xmlns="http://www.w3.org/2000/svg" xmlns:xlink="http://www.w3.org/1999/xlink" width="375" height="812" viewBox="0 0 375 812">
  <defs>
    <clipPath id="clip-path">
      <rect id="Rectangle_272" data-name="Rectangle 272" width="375" height="812" fill="#fff"/>
    </clipPath>
  </defs>
  <g id="Mask_Group_11" data-name="Mask Group 11" clip-path="url(#clip-path)">
    <g id="Group_850" data-name="Group 850">
      <g id="Group_849" data-name="Group 849">
        <path id="Path_919" data-name="Path 919" d="M544.856,1566.612c3.806,24.821,30.009,44.033,50.177,53.112,14.194,6.39,30.227,8.849,45.216,5.027,24.228-6.177,41.716-29.714,43.493-55.887,2.12-31.221-18.278-60.14-45.906-69.506-27.861-9.446-59.636,2.829-79.093,25.154C548.485,1536.283,542.441,1550.854,544.856,1566.612Z" transform="translate(-293.999 -1454.145)" fill="#fff0d4" opacity="0.4"/>
        <path id="Path_912" data-name="Path 912" d="M544.67,1539.156c2.471,15.15,19.481,26.876,32.573,32.417,9.214,3.9,19.623,5.4,29.353,3.069,15.728-3.77,27.081-18.137,28.234-34.111,1.376-19.056-11.865-36.707-29.8-42.424-18.086-5.765-38.714,1.726-51.344,15.353C547.026,1520.643,543.1,1529.537,544.67,1539.156Z" transform="translate(-434.627 -1535.948)" fill="#fff0d4" opacity="0.6"/>
        <path id="Path_913" data-name="Path 913" d="M544.562,1525.641c1.694,10.389,13.359,18.431,22.338,22.231a32.651,32.651,0,0,0,20.129,2.1c10.786-2.585,18.571-12.437,19.362-23.393.944-13.068-8.137-25.173-20.436-29.093-12.4-3.954-26.549,1.184-35.211,10.529C546.177,1512.946,543.487,1519.045,544.562,1525.641Z" transform="translate(-562.326 -1439.961)" fill="#fff0d4" opacity="0.68"/>
        <path id="Path_9" data-name="Path 9" d="M-1277.1,372.3c5.129,43.821,40.68,79.757,81.764,95.841s86.835,15.31,130.589,9.64c23.435-3.038,51.852-5.5,66.062,13.383,15.013,19.949,2.75,49.24,10.508,72.971,6.737,20.61,28.887,33.914,50.57,33.788s42.171-11.921,56.447-28.241,22.988-36.8,29.124-57.592c8.364-28.345,12.349-58.4,7.744-87.589S-862.635,367-885.3,348.044c-26.933-22.526-63.332-29.918-98.334-32.677a482.985,482.985,0,0,0-287.42,68.754" transform="matrix(-0.956, -0.292, 0.292, -0.956, -1080.304, 917.168)" fill="#ffa700" opacity="0.17"/>
        <g id="Group_251" data-name="Group 251" transform="matrix(0.978, 0.208, -0.208, 0.978, 302.237, -606.432)" opacity="0.23">
          <path id="Path_431" data-name="Path 431" d="M239.34,837.8c-5.892,28.694-10.758,57.436-15.308,86.373-1.331,8.477,4.557,14.067,12.9,12.907,27.263-3.793,54.3-7.389,81.116-13.677,6.22-1.458,8.823-9.024,5.82-14.306-15.63-27.5-35.319-67.839-66.283-80.512-9.059-3.71-16.341,8.311-12.084,15.719,7.426,12.929,21.174,22.148,31.093,33.275,11.349,12.729,22.316,26.319,30.454,41.347q4.209-7.324,8.411-14.653c-28.366,2.441-56.1,7.542-84.1,12.574Q238,921.9,244.639,926.965c3.193-29.127,6.028-58.143,7.862-87.385.466-7.477-11.637-9.2-13.161-1.779Z" transform="translate(0 0)" fill="#edc483"/>
        </g>
      </g>
    </g>
  </g>
</svg>
