<svg xmlns="http://www.w3.org/2000/svg" xmlns:xlink="http://www.w3.org/1999/xlink" width="375" height="812" viewBox="0 0 375 812">
  <defs>
    <clipPath id="clip-path">
      <rect id="Rectangle_269" data-name="Rectangle 269" width="375" height="812" fill="#fff"/>
    </clipPath>
  </defs>
  <g id="Mask_Group_8" data-name="Mask Group 8" clip-path="url(#clip-path)">
    <g id="Group_845" data-name="Group 845">
      <path id="Path_9" data-name="Path 9" d="M-1277.1,372.3c5.129,43.821,40.68,79.757,81.764,95.841s86.835,15.31,130.589,9.64c23.435-3.038,51.852-5.5,66.062,13.383,15.013,19.949,2.75,49.24,10.508,72.971,6.737,20.61,28.887,33.914,50.57,33.788s42.171-11.921,56.447-28.241,22.988-36.8,29.124-57.592c8.364-28.345,12.349-58.4,7.744-87.589S-862.635,367-885.3,348.044c-26.933-22.526-63.332-29.918-98.334-32.677a482.985,482.985,0,0,0-287.42,68.754" transform="matrix(-0.956, -0.292, 0.292, -0.956, -1080.304, 917.168)" fill="#ffa700" opacity="0.17"/>
      <path id="Path_719" data-name="Path 719" d="M-666.309-105.521c3.054,28.217,24.224,51.356,48.688,61.712s51.708,9.858,77.763,6.207c13.955-1.956,30.877-3.54,39.338,8.617,8.939,12.845,1.638,31.705,6.257,46.986,4.012,13.27,17.2,21.838,30.113,21.756s25.111-7.676,33.613-18.184,13.689-23.692,17.343-37.083c4.98-18.252,7.353-37.6,4.611-56.4S-419.5-108.933-433-121.142c-16.038-14.5-37.712-19.263-58.556-21.04-59.447-5.067-120.259,10.663-171.151,44.27" transform="matrix(1, -0.017, 0.017, 1, 840.422, 54.446)" fill="#ffc727" opacity="0.17"/>
    </g>
  </g>
</svg>
