<svg xmlns="http://www.w3.org/2000/svg" width="36.61" height="36.61" viewBox="0 0 36.61 36.61">
  <g id="Group_443" data-name="Group 443" transform="translate(0)">
    <path id="Path_720" data-name="Path 720" d="M105.112,20.827l-1.358-1.085V12.294l.229-.172A5.173,5.173,0,0,0,106.042,8V7.069A7.007,7.007,0,0,0,99.307,0,6.865,6.865,0,0,0,92.314,6.86V7.3l-1.656,3.311a.571.571,0,0,0,.195.732l1.461.974V14.3a2.863,2.863,0,0,0,2.86,2.86h.572v2.488l-1.412.627a6.3,6.3,0,0,0-3.737,5.75v3.147H84.306a2.863,2.863,0,0,0-2.86,2.86V32.6h-4V29.169h.572a.572.572,0,0,0,.572-.572V15.44h5.148a1.718,1.718,0,0,0,1.716-1.716V10.292h2.86a.572.572,0,0,0,.572-.572V2.856a.562.562,0,0,0-.045-.22.576.576,0,0,0-.124-.185L86.426.164A.57.57,0,0,0,86.242.04.566.566,0,0,0,86.022,0H81.445a.572.572,0,0,0-.572.572V9.72a.572.572,0,0,0,.572.572h2.86v3.432a.573.573,0,0,1-.572.572H78.585v-4a.572.572,0,0,0-.572-.572H74.581a1.718,1.718,0,0,0-1.716,1.716V27.453a1.714,1.714,0,0,0,1.144,1.611V32.6H70.577a.572.572,0,0,0-.572.572v2.86a.572.572,0,0,0,.572.572h18.3a.572.572,0,0,0,.572-.572V33.745H90.6v2.288a.572.572,0,0,0,.572.572h14.873a.572.572,0,0,0,.572-.572V23.954a3.987,3.987,0,0,0-1.5-3.127ZM86.593,1.949l.335.335h-.335ZM82.017,1.14h3.432V2.856a.572.572,0,0,0,.572.572h1.716v5.72h-5.72Zm-8.008,10.3a.573.573,0,0,1,.572-.572h2.86V28.025h-2.86a.573.573,0,0,1-.572-.572Zm1.144,17.733H76.3V32.6H75.153Zm13.157,6.292H71.149V33.745H88.309Zm17.161,0H91.742V33.745H94.6a.572.572,0,1,0,0-1.144H82.589v-.572a1.718,1.718,0,0,1,1.716-1.716H94.6A1.718,1.718,0,0,0,96.318,28.6v-2.86a1.718,1.718,0,0,1,1.716-1.716.572.572,0,1,0,0-1.144,2.863,2.863,0,0,0-2.86,2.86V28.6a.573.573,0,0,1-.572.572h-2.86V26.022a5.154,5.154,0,0,1,3.058-4.7l1.752-.778a.573.573,0,0,0,.339-.523V16.585a.572.572,0,0,0-.572-.572H95.174A1.718,1.718,0,0,1,93.458,14.3V12.008a.573.573,0,0,0-.255-.476l-1.3-.864,1.49-2.98a.566.566,0,0,0,.061-.256V6.86a5.72,5.72,0,0,1,5.828-5.719A5.857,5.857,0,0,1,104.9,7.069V8a4.025,4.025,0,0,1-1.6,3.2l-.458.343a.571.571,0,0,0-.229.457v8.008a.572.572,0,0,0,.215.447l1.572,1.257a2.846,2.846,0,0,1,1.074,2.234Z" transform="translate(-70.005 0.004)" fill="#303030"/>
    <path id="Path_721" data-name="Path 721" d="M271.822,71.144h2.288a.572.572,0,1,0,0-1.144h-2.288a.572.572,0,1,0,0,1.144Z" transform="translate(-258.094 -65.424)" fill="#fff"/>
    <path id="Path_722" data-name="Path 722" d="M274.682,105.572a.572.572,0,0,0-.572-.572h-2.288a.572.572,0,1,0,0,1.144h2.288A.572.572,0,0,0,274.682,105.572Z" transform="translate(-258.094 -98.135)" fill="#fff"/>
  </g>
</svg>
