<svg id="Group_442" data-name="Group 442" xmlns="http://www.w3.org/2000/svg" width="32.254" height="32.241" viewBox="0 0 32.254 32.241">
  <path id="Path_707" data-name="Path 707" d="M169.655,167.735h3.03a.473.473,0,1,0,0-.947h-3.03a.473.473,0,0,0,0,.947Z" transform="translate(-163.405 -157.245)" fill="#ffcf46"/>
  <path id="Path_708" data-name="Path 708" d="M250.415,167.739h1.4a.473.473,0,1,0,0-.947h-1.4a.473.473,0,0,0,0,.947Z" transform="translate(-239.514 -157.249)" fill="#ffcf46"/>
  <path id="Path_709" data-name="Path 709" d="M169.655,201.605h8.5a.473.473,0,0,0,0-.947h-8.5a.473.473,0,0,0,0,.947Z" transform="translate(-163.405 -189.165)" fill="#303030"/>
  <path id="Path_710" data-name="Path 710" d="M169.563,235.95h-1.572a.789.789,0,0,0-.789.789v1.572a.789.789,0,0,0,.789.789h1.572a.789.789,0,0,0,.789-.789v-1.572A.789.789,0,0,0,169.563,235.95Zm-.151,2.2h-1.256V236.9h1.256Z" transform="translate(-161.54 -222.423)" fill="#ffcf46"/>
  <path id="Path_711" data-name="Path 711" d="M240.766,248.77h-5.252a.473.473,0,0,0,0,.947h5.252a.473.473,0,1,0,0-.947Z" transform="translate(-225.472 -234.505)" fill="#303030"/>
  <path id="Path_712" data-name="Path 712" d="M240.178,319.02H235.52a.473.473,0,1,0,0,.947h4.658a.473.473,0,1,0,0-.947Z" transform="translate(-225.477 -300.709)" fill="#303030"/>
  <path id="Path_713" data-name="Path 713" d="M235.515,284.779h3.554a.473.473,0,0,0,0-.947h-3.554a.473.473,0,0,0,0,.947Z" transform="translate(-225.472 -267.548)" fill="#303030"/>
  <path id="Path_714" data-name="Path 714" d="M356.853,235.95h-1.572a.789.789,0,0,0-.789.789v1.572a.789.789,0,0,0,.789.789h1.572a.789.789,0,0,0,.789-.789v-1.572a.8.8,0,0,0-.789-.789Zm-.158,2.2h-1.256V236.9h1.256Z" transform="translate(-338.043 -222.423)" fill="#ffcf46"/>
  <path id="Path_715" data-name="Path 715" d="M427.946,248.77h-5.252a.473.473,0,1,0,0,.947h5.252a.473.473,0,0,0,0-.947Z" transform="translate(-401.871 -234.505)" fill="#303030"/>
  <path id="Path_716" data-name="Path 716" d="M427.358,319.02H422.7a.473.473,0,1,0,0,.947h4.658a.473.473,0,0,0,0-.947Z" transform="translate(-401.876 -300.709)" fill="#ffcf46"/>
  <path id="Path_717" data-name="Path 717" d="M422.695,284.779h3.554a.473.473,0,0,0,0-.947h-3.554a.473.473,0,1,0,0,.947Z" transform="translate(-401.871 -267.548)" fill="#303030"/>
  <path id="Path_718" data-name="Path 718" d="M100.366,1.1H69.69a.789.789,0,0,0-.789.789V3.868a.789.789,0,0,0,.789.789h.133V24.729a1.648,1.648,0,0,0,1.647,1.647h2.923v.985a.789.789,0,0,0,.789.789H78.64a.789.789,0,0,0,.789-.789v-.985h3.749v6.015h-2.1a.473.473,0,1,0,0,.947h7.89a.473.473,0,1,0,0-.947H86.884V26.377h11.7a1.648,1.648,0,0,0,1.647-1.647V4.658h.133a.789.789,0,0,0,.789-.789V1.886a.789.789,0,0,0-.789-.789ZM74.393,25.43H71.47a.706.706,0,0,1-.707-.707V4.651H75.87V6.02H73.326a1.1,1.1,0,0,0-1.1,1.1v15.83a1.1,1.1,0,0,0,1.1,1.1h1.067Zm4.09,1.774H75.34V24.06h3.143Zm.473-4.09h-5.63a.156.156,0,0,1-.158-.158V7.125a.156.156,0,0,1,.158-.158H75.87v.985a.789.789,0,0,0,.789.789h3.459a.789.789,0,0,0,.789-.789V6.968H83.9v3.3a.789.789,0,0,0,.789.789h3.459a.789.789,0,0,0,.789-.789v-3.3h.852v3.3a.789.789,0,0,0,.789.789h3.459a.789.789,0,0,0,.789-.789v-3.3h1.919a.156.156,0,0,1,.158.158v15.83a.156.156,0,0,1-.158.158ZM76.817,7.794V4.651H79.96V7.794Zm8.023,2.316V6.968h3.143v3.143Zm5.883,0V6.968h3.143v3.143ZM85.944,32.386h-1.83V26.37h1.83Zm13.35-7.663a.706.706,0,0,1-.707.707H79.424V24.06H96.731a1.1,1.1,0,0,0,1.1-1.1V7.125a1.1,1.1,0,0,0-1.1-1.1H80.9V4.651H99.287V24.723ZM100.209,3.7H69.849V2.038h30.36Z" transform="translate(-68.901 -1.098)" fill="#303030"/>
</svg>
