<svg id="Group_441" data-name="Group 441" xmlns="http://www.w3.org/2000/svg" width="33.06" height="32.241" viewBox="0 0 33.06 32.241">
  <path id="Path_696" data-name="Path 696" d="M161.514,78.325a.421.421,0,0,0-.013-.089c0-.008,0-.016-.007-.025a.39.39,0,0,0-.032-.073s0-.01-.007-.014a.379.379,0,0,0-.059-.073l-.018-.015c-.011-.01-.021-.02-.034-.029l-2.306-1.58v.947l1.393.955-1.492,1.022V69.061a.429.429,0,0,0-.005-.054c0-.005,0-.011,0-.016a.386.386,0,0,0-.032-.1l-.011-.021a.414.414,0,0,0-.063-.088l-4.733-4.73a.4.4,0,0,0-.078-.059l-.024-.013a.4.4,0,0,0-.073-.028l-.018-.006a.386.386,0,0,0-.082-.01h-22.4a.391.391,0,0,0-.391.391V79.351l.2.139-1.7-1.162,1.394-.955v-.946l-2.306,1.58a.411.411,0,0,0-.034.029.23.23,0,0,0-.018.015.4.4,0,0,0-.059.073s0,.009-.007.014a.392.392,0,0,0-.032.073c0,.008-.005.016-.007.024a.419.419,0,0,0-.013.089.022.022,0,0,0,0,0V95.8a.4.4,0,0,0,.005.049c0,.009,0,.017,0,.025s0,.007,0,.01a.363.363,0,0,0,.013.037c0,.007,0,.014.007.021a.359.359,0,0,0,.034.062l.005.007a.332.332,0,0,0,.039.047l.017.015a.434.434,0,0,0,.036.029l.022.015a.4.4,0,0,0,.038.021l.025.011c.015.006.029.01.044.014l.024.006a.4.4,0,0,0,.072.007h32.278a.393.393,0,0,0,.072-.007l.024-.006a.3.3,0,0,0,.044-.014l.025-.011a.345.345,0,0,0,.038-.021l.022-.015c.013-.009.024-.019.036-.029l.017-.015a.407.407,0,0,0,.039-.047l.005-.007a.362.362,0,0,0,.034-.062.167.167,0,0,0,.007-.021.269.269,0,0,0,.013-.037s0-.007,0-.01a.253.253,0,0,0,0-.025.406.406,0,0,0,.005-.049V78.33s0,0,0,0Zm-7.4-13.147,3.371,3.371-3.707-.421ZM131.81,64.72h21.572l-.424,3.706a.391.391,0,0,0,.344.433l4.86.552v6.249H131.81Zm0,12.592h19.766v6.969l.781-.535V77.312h5.805v2.575l-11.137,7.63-.791-.439a2.557,2.557,0,0,0-2.5,0l-.791.439L131.81,79.886Zm-2.573,1.758,12.946,8.871-12.946,7.187Zm1.117,16.33,13.762-7.639a1.779,1.779,0,0,1,1.74,0L159.617,95.4Zm30.38-.273-12.946-7.186,12.946-8.871Z" transform="translate(-128.455 -63.939)" fill="#303030"/>
  <path id="Path_697" data-name="Path 697" d="M352.426,258.772h1.941a.391.391,0,1,0,0-.781h-1.941a.391.391,0,1,0,0,.781Z" transform="translate(-335.352 -243.511)" fill="#ffcf46"/>
  <path id="Path_698" data-name="Path 698" d="M197.4,258h-8.641a.391.391,0,1,0,0,.781H197.4a.391.391,0,1,0,0-.781Z" transform="translate(-183.895 -243.519)" fill="#ffcf46"/>
  <path id="Path_699" data-name="Path 699" d="M352.426,282.732H355.4a.391.391,0,0,0,0-.781h-2.972a.391.391,0,1,0,0,.781Z" transform="translate(-335.352 -265.684)" fill="#303030"/>
  <path id="Path_700" data-name="Path 700" d="M216.092,281.96h-7.133a.391.391,0,0,0,0,.781h7.133a.391.391,0,1,0,0-.781Z" transform="translate(-202.59 -265.692)" fill="#303030"/>
  <path id="Path_701" data-name="Path 701" d="M245.527,305.91h-4.76a.391.391,0,0,0,0,.781h4.76a.391.391,0,0,0,0-.781Z" transform="translate(-232.025 -287.855)" fill="#ffcf46"/>
  <path id="Path_702" data-name="Path 702" d="M352.426,306.692h1.005a.391.391,0,1,0,0-.781h-1.005a.391.391,0,1,0,0,.781Z" transform="translate(-335.352 -287.856)" fill="#303030"/>
  <path id="Path_703" data-name="Path 703" d="M352.426,330.652h2.4a.391.391,0,1,0,0-.781h-2.4a.391.391,0,1,0,0,.781Z" transform="translate(-335.352 -310.028)" fill="#ffcf46"/>
  <path id="Path_704" data-name="Path 704" d="M279.025,329.87h-2.059a.391.391,0,1,0,0,.781h2.059a.391.391,0,0,0,0-.781Z" transform="translate(-265.523 -310.027)" fill="#303030"/>
  <path id="Path_705" data-name="Path 705" d="M204.4,108.885a1.492,1.492,0,0,1-1.448-1.052h1.925v-.89h-2.105c-.009-.1-.009-.207-.009-.324,0-.1,0-.2.009-.3h2.105v-.89h-1.925a1.521,1.521,0,0,1,1.44-1.106,1.578,1.578,0,0,1,1.286.719l.684-.711a2.335,2.335,0,0,0-1.952-.98,2.592,2.592,0,0,0-2.573,2.078h-.747v.891h.612c-.009.1-.009.2-.009.3s.009.216.009.324h-.612v.89h.756a2.538,2.538,0,0,0,2.554,2.024,2.731,2.731,0,0,0,2.051-.909l-.674-.747a1.8,1.8,0,0,1-1.377.684Z" transform="translate(-195.671 -100.412)" fill="#ffcf46"/>
  <path id="Path_706" data-name="Path 706" d="M457.947,135.481l-4.289-.5a.919.919,0,0,1-.284-.08.909.909,0,0,1-.2-.125.049.049,0,1,0-.062.075,1.028,1.028,0,0,0,.22.138,1.015,1.015,0,0,0,.314.088l4.289.5h.006a.049.049,0,0,0,.049-.043.051.051,0,0,0-.044-.054Z" transform="translate(-428.872 -129.482)" fill="#303030"/>
</svg>
