<svg xmlns="http://www.w3.org/2000/svg" width="33.201" height="32.314" viewBox="0 0 33.201 32.314">
  <g id="Group_573" data-name="Group 573" transform="translate(0 0)">
    <path id="Path_1095" data-name="Path 1095" d="M157.92,76.487a2.877,2.877,0,1,0,2.035.843A2.877,2.877,0,0,0,157.92,76.487Zm-3.763,2.877a3.767,3.767,0,1,1,1.1,2.659,3.762,3.762,0,0,1-1.1-2.659Zm-4.825.907a.978.978,0,0,0-1.731.651,1.019,1.019,0,0,0,.234.655l3.191,3.86h0a.443.443,0,1,1-.682.567l-3.191-3.856h0a1.91,1.91,0,0,1-.443-1.217,1.863,1.863,0,0,1,3.3-1.217l.58.7h0a8.308,8.308,0,0,0,4.166,2.7l2.165.6h2.528l2.169-.6h0a8.308,8.308,0,0,0,4.166-2.7l.58-.7h0a1.863,1.863,0,0,1,3.3,1.217,1.909,1.909,0,0,1-.443,1.217L167.348,84.4a9.294,9.294,0,0,1-3.373,2.563l-1.381.615v1.965a.443.443,0,1,1-.886,0V87.283a.443.443,0,0,1,.261-.4l1.642-.73h0a8.437,8.437,0,0,0,3.054-2.32l1.877-2.253a1.018,1.018,0,0,0,.235-.651.978.978,0,0,0-1.731-.651l-.58.7a9.2,9.2,0,0,1-4.612,2.988l-2.213.615a.344.344,0,0,1-.115,0h-2.656a.37.37,0,0,1-.119,0l-2.213-.615a9.207,9.207,0,0,1-4.608-2.988ZM144.109,86.1a.885.885,0,0,0-1.2.328.917.917,0,0,0,.323,1.239.885.885,0,0,0,1.2-.332.912.912,0,0,0-.323-1.235ZM142.144,86a1.771,1.771,0,0,1,2.417-.651,1.8,1.8,0,0,1,.642,2.421,1.771,1.771,0,0,1-2.417.651A1.8,1.8,0,0,1,142.144,86Zm10.244,2.877a2.877,2.877,0,1,0,2.035.843A2.876,2.876,0,0,0,152.387,88.882Zm-3.763,2.877a3.767,3.767,0,1,1,1.1,2.659,3.764,3.764,0,0,1-1.1-2.659Zm20.194.62a.885.885,0,0,0-1.2.328.916.916,0,0,0,.323,1.239.885.885,0,0,0,1.2-.328A.912.912,0,0,0,168.818,92.378Zm-1.965-.111a1.771,1.771,0,0,1,2.417-.651,1.8,1.8,0,0,1,.642,2.439,1.771,1.771,0,0,1-2.417.651,1.8,1.8,0,0,1-.642-2.439Zm-23.7.562a.983.983,0,0,0-1.731.655,1.017,1.017,0,0,0,.234.651l1.868,2.257h0a8.441,8.441,0,0,0,3.054,2.32l1.642.73a.443.443,0,0,1,.261.4v7.627a.443.443,0,0,1-.885,0v-7.339l-1.381-.615a9.3,9.3,0,0,1-3.373-2.563L140.975,94.7h0a1.906,1.906,0,0,1-.443-1.217,1.868,1.868,0,0,1,3.3-1.222l.58.7a8.334,8.334,0,0,0,4.166,2.7l2.169.6h3.028a3.1,3.1,0,0,1,3.1,3.134v.885a.443.443,0,1,1-.885,0V99.4a2.214,2.214,0,0,0-2.213-2.249h-3.1a.478.478,0,0,1-.115,0l-2.213-.615h0a9.229,9.229,0,0,1-4.59-3.006Zm18.309,1.364a2.877,2.877,0,1,0,2.035.843A2.878,2.878,0,0,0,161.462,94.193ZM157.7,97.07a3.767,3.767,0,1,1,1.1,2.659,3.762,3.762,0,0,1-1.1-2.659Zm12.2.58a1.864,1.864,0,0,1,3.3,1.217,1.907,1.907,0,0,1-.443,1.217l-1.863,2.253a9.26,9.26,0,0,1-3.373,2.563l-1.381.615v1.956a.443.443,0,0,1-.885,0v-2.245a.443.443,0,0,1,.266-.4l1.642-.73h0a8.407,8.407,0,0,0,3.05-2.32l1.881-2.257a1.02,1.02,0,0,0,.235-.651.978.978,0,0,0-1.731-.651l-.58.7A9.207,9.207,0,0,1,165.4,101.9l-2.213.615h0a.369.369,0,0,1-.119,0h-3.1a2.214,2.214,0,0,0-2.213,2.249v2.709a.443.443,0,0,1-.885,0v-2.691a3.1,3.1,0,0,1,3.1-3.134H163l2.147-.593a8.313,8.313,0,0,0,4.166-2.7Zm-26.232,4.2a1.837,1.837,0,0,0-2.532.69,1.917,1.917,0,0,0,.677,2.594,1.837,1.837,0,0,0,2.532-.69,1.917,1.917,0,0,0-.677-2.594Zm-3.3.252a2.722,2.722,0,0,1,3.754-1.014,2.8,2.8,0,0,1,1,3.794,2.722,2.722,0,0,1-3.754,1.014,2.8,2.8,0,0,1-1-3.794Z" transform="translate(-139.992 -75.602)" fill-rule="evenodd"/>
  </g>
</svg>
