<svg xmlns="http://www.w3.org/2000/svg" width="32" height="32" viewBox="0 0 32 32">
  <g id="Group_853" data-name="Group 853" transform="translate(-130 -336)">
    <g id="Ellipse_35" data-name="Ellipse 35" transform="translate(130 336)" fill="#f3f3f3" stroke="#e4e4e4" stroke-width="1">
      <circle cx="16" cy="16" r="16" stroke="none"/>
      <circle cx="16" cy="16" r="15.5" fill="none"/>
    </g>
    <path id="whatsapp" d="M7.02,12.388a6.14,6.14,0,0,1-3.006-.774L0,13.214,1.6,9.2A6.14,6.14,0,0,1,.826,6.194a6.037,6.037,0,0,1,.49-2.407,6.129,6.129,0,0,1,3.3-3.3,6.151,6.151,0,0,1,4.813,0,6.13,6.13,0,0,1,3.3,3.3,6.151,6.151,0,0,1,0,4.813,6.13,6.13,0,0,1-3.3,3.3A6.028,6.028,0,0,1,7.02,12.388ZM9.084,7.433H8.259l-.465.413a3.612,3.612,0,0,1-1.426-1,3.608,3.608,0,0,1-1-1.426l.413-.465V4.129a.756.756,0,0,0-.155-.439.981.981,0,0,0-.342-.316q-.187-.1-.264-.019l-.606.606a1.453,1.453,0,0,0-.148,1.568A5.361,5.361,0,0,0,5.62,7.594,5.352,5.352,0,0,0,7.685,8.949,1.455,1.455,0,0,0,9.252,8.8l.606-.606q.077-.077-.019-.265a.981.981,0,0,0-.316-.342A.756.756,0,0,0,9.084,7.433Z" transform="translate(139 345)"/>
  </g>
</svg>
